<?xml version="1.0" encoding="iso-8859-1"?>
<!-- Generator: Adobe Illustrator 19.0.0, SVG Export Plug-In . SVG Version: 6.00 Build 0)  -->
<svg version="1.1" id="Capa_1" xmlns="http://www.w3.org/2000/svg" xmlns:xlink="http://www.w3.org/1999/xlink" x="0px" y="0px"
	 viewBox="0 0 512.001 512.001" style="enable-background:new 0 0 512.001 512.001;" xml:space="preserve">
<g>
	<path style="fill:#D2D2D2;" d="M468.692,291.907c-1.42-1.437-3.357-2.246-5.377-2.246h-48.534c-4.129,0-7.495,3.314-7.56,7.444
		c-0.564,36.566-14.253,71.826-38.545,99.282c-22.127,25.008-51.706,42.125-84.042,48.798V198.05h51.648
		c7.082,0,12.844-5.762,12.844-12.844v-23.971c0-7.082-5.762-12.844-12.844-12.844h-51.648v-47.399
		c16.077-10.881,25.242-29.219,24.147-48.877C307.215,23.993,283.93,1.12,255.77,0.042c-15.158-0.581-29.559,4.886-40.482,15.399
		c-10.928,10.517-16.946,24.66-16.946,39.823c0,18.354,9.182,35.486,24.235,45.721v47.405h-51.648
		c-7.082,0-12.844,5.762-12.844,12.844v23.97c0,7.082,5.762,12.844,12.844,12.844h51.648v117.867c0,0.038,0,0.075,0.001,0.113
		c-0.001,0.037-0.001,0.075-0.001,0.112v129.044c-32.805-6.765-62.708-24.242-84.942-49.818
		c-24.415-28.083-37.794-64.015-37.673-101.179c0.007-2.009-0.787-3.939-2.206-5.362c-1.419-1.424-3.345-2.224-5.355-2.224H43.866
		c-4.168,0-7.55,3.374-7.561,7.542c-0.144,58.256,22.458,113.021,63.644,154.209c41.042,41.043,95.613,63.647,153.656,63.647
		s112.612-22.603,153.656-63.647c40.352-40.354,62.945-93.997,63.614-151.043C470.898,295.289,470.112,293.344,468.692,291.907z
		 M253.589,79.979c-14.845,0-26.879-12.034-26.879-26.879s12.034-26.879,26.879-26.879s26.879,12.034,26.879,26.879
		S268.434,79.979,253.589,79.979z"/>
	<path style="fill:#D2D2D2;" d="M284.634,90.91v10.081c16.077-10.881,25.242-29.219,24.147-48.877
		c-0.035-0.619-0.092-1.234-0.148-1.848C307.141,66.722,298.44,81.566,284.634,90.91z"/>
	<path style="fill:#D2D2D2;" d="M222.576,305.836v0.224c0-0.037,0-0.075,0.001-0.112
		C222.576,305.911,222.576,305.873,222.576,305.836z"/>
	<path style="fill:#D2D2D2;" d="M284.634,198.05h51.648c7.082,0,12.844-5.762,12.844-12.844v-10.081
		c0,7.082-5.762,12.844-12.844,12.844h-51.648L284.634,198.05L284.634,198.05z"/>
	<path style="fill:#D2D2D2;" d="M170.927,198.05h51.648v-10.081h-51.648c-7.082,0-12.844-5.762-12.844-12.844v10.081
		C158.083,192.288,163.845,198.05,170.927,198.05z"/>
</g>
<path style="fill:#A9A9A9;" d="M407.26,435.201c-41.044,41.043-95.613,63.647-153.656,63.647s-112.613-22.603-153.656-63.647
	c-39.164-39.165-61.508-87.539-63.485-142.584c-0.102,0.493-0.158,1.004-0.159,1.529c-0.144,58.256,22.458,113.022,63.644,154.209
	c41.043,41.043,95.613,63.647,153.656,63.647s112.612-22.603,153.656-63.647c40.352-40.354,62.945-93.997,63.614-151.044
	c0.008-0.688-0.085-1.365-0.257-2.018C468.015,349.315,445.706,396.754,407.26,435.201z"/>
<path style="fill:#D2D2D2;" d="M222.576,100.986V90.905c-13.701-9.316-22.513-24.35-23.989-40.813
	c-0.157,1.709-0.246,3.433-0.246,5.172C198.34,73.619,207.523,90.75,222.576,100.986z"/>
<g>
	<path style="fill:#A9A9A9;" d="M77.276,217.673c-1.402-2.106-3.764-3.37-6.294-3.37c-2.53,0-4.892,1.265-6.293,3.37l-52.658,79.102
		c-0.842,1.264-1.268,2.725-1.268,4.191c0,1.223,0.297,2.451,0.896,3.569c1.317,2.457,3.878,3.991,6.665,3.991h105.316
		c2.787,0,5.348-1.534,6.665-3.991c0.599-1.118,0.896-2.345,0.896-3.569c0-1.465-0.425-2.926-1.268-4.191L77.276,217.673z"/>
	<path style="fill:#A9A9A9;" d="M499.968,301.704l-52.659-79.102c-1.402-2.106-3.764-3.37-6.293-3.37s-4.892,1.265-6.293,3.37
		l-52.658,79.102c-0.842,1.264-1.266,2.725-1.266,4.191c0,1.223,0.297,2.451,0.896,3.569c1.317,2.457,3.877,3.991,6.665,3.991
		h105.316c2.787,0,5.349-1.534,6.665-3.991c0.599-1.118,0.896-2.345,0.896-3.569C501.235,304.429,500.81,302.968,499.968,301.704z"
		/>
</g>
<g>
</g>
<g>
</g>
<g>
</g>
<g>
</g>
<g>
</g>
<g>
</g>
<g>
</g>
<g>
</g>
<g>
</g>
<g>
</g>
<g>
</g>
<g>
</g>
<g>
</g>
<g>
</g>
<g>
</g>
</svg>
