<?xml version="1.0"?><svg width="1264" height="790" xmlns="http://www.w3.org/2000/svg">
 <title>beach</title>
 <g>
  <title>Layer 1</title>
  <path id="svg_1" fill="#DC8944" fill-rule="evenodd" stroke="#DC8944" stroke-width="1px" d="m316,541l8,-12l6,9q6,8 6,9l0,1l-9,11q-9,11 -10,11l0,0l0,1l-1,0l0,1l0,1l-1,0l0,1l-1,0l0,0l0,0l-1,0l0,-1l-1,0l0,-1l0,-1l-1,0l0,-1l0,0l-1,0l0,-1l0,-1l-1,-1l-1,-1l0,-1q0,-1 -2,-4l-1,-3l0,0l1,-1l0,-1l0,-1l1,-1q1,-1 9,-13z"/>
  <path id="svg_2" fill="#F3F2E6" fill-rule="evenodd" stroke="#F3F2E6" stroke-width="1px" d="m460,716l1,-1l1,0l0,0l1,0l1,0l0,1q0,0 1,0l0,0l0,1l1,0l0,0l0,1l0,0l0,0l1,0l0,0l0,1l1,0l0,2l0,2l-2,3q-2,2 -3,2l0,1l-1,0q-1,-1 -2,-1q-1,0 -2,-5l-1,-5l1,0q0,0 2,-2z"/>
  <path id="svg_3" fill="#0A9CC3" fill-rule="evenodd" stroke="#0A9CC3" stroke-width="1px" d="m327,559l9,-11l4,6q4,5 4,6l0,0l0,0l0,0l-1,0l0,0l0,1l-1,0l0,1l0,1l-1,0l0,1l0,0l-1,0l0,0l0,0l-6,11q-6,11 -7,12l-1,1l0,1l0,1l-1,0l-1,0l0,0l-1,0l-1,0l-1,0l-1,0l0,0l0,-1l0,0l0,-1l0,-1l0,0l0,-1l0,0l0,0l-1,-1l-1,-1l0,0l0,0l0,-1q0,0 -3,-3l-2,-3l0,-1q1,0 1,-1l0,-1l0,0l1,0l0,-1l1,0l0,-1l0,-1l1,0l0,-1l0,0q1,0 10,-11z"/>
  <path id="svg_4" fill="#E9B96D" fill-rule="evenodd" stroke="#E9B96D" stroke-width="1px" d="m398,471l0,0l0,1q0,1 8,6q9,6 10,6l2,0l0,0l0,1l0,0q0,1 -8,5q-9,4 -23,12q-14,8 -29,22l-14,14l-1,0l0,0l0,1l-1,0l0,0l0,1l0,0l0,0l-1,0l0,1l-1,0l0,-1l0,0l0,0l-1,-1l-1,-1l0,0l0,0l0,-1l0,0l-1,0l0,-1l0,0l-1,0l0,-1q0,-1 -4,-7l-3,-6l1,0l0,0l0,-1l0,0l1,0l0,-1l0,0l1,0l0,0l0,0l0,-1l0,0l1,0q0,-1 5,-8q6,-7 9,-9q3,-2 14,-10q11,-9 23,-14l11,-5l1,-1q2,-1 2,-1z"/>
  <path id="svg_5" fill="#C2CB82" fill-rule="evenodd" stroke="#C2CB82" stroke-width="1px" d="m170,417l1,-1l1,0q0,0 6,1l7,0l0,0q0,1 1,1l0,0l2,3q2,3 2,3l0,1l-6,0q-6,1 -9,1q-3,1 -3,2q0,1 -2,2l-1,0l0,-1l1,-1l0,0q0,0 0,-2l0,-1l0,-1q0,0 2,-2q2,-1 -1,-2l-2,-2l0,0q0,0 1,-1z"/>
  <path id="svg_6" fill="#78C6E0" fill-rule="evenodd" stroke="#78C6E0" stroke-width="1px" d="m205,522l8,-5l0,13l1,12l0,1l0,1l1,0l0,0l-1,2q0,2 -1,2l0,1l0,0l-1,0l0,0l0,1l-2,0l-1,0l-7,5q-8,4 -12,8q-4,3 -4,4l0,0l-1,0l0,1l0,0l-1,0l0,0l0,0l0,1l0,0l-1,0l0,1l0,0l-1,0l0,0l0,0l0,1l0,0l-1,0l0,1l0,0l-1,0l0,0l0,0l0,1l0,0l0,-3l0,-2l0,-2l0,-2l1,-2q1,-1 3,-10q2,-9 5,-14l3,-5l0,0q1,-1 1,-1l0,0l1,0l0,0l0,-1l0,0l1,0l0,-1l0,0l1,0l0,0l0,0l0,-1q0,0 1,-1q1,0 8,-6z"/>
  <path id="svg_7" fill="#E4EEF5" fill-rule="evenodd" stroke="#E4EEF5" stroke-width="1px" d="m1019,0l0,0l123,0l122,0l0,86l0,86l0,0l-1,0l-1,1l-1,1l0,0l-1,0l0,0l0,0l0,1l0,0l-1,1l-1,1l0,0q0,1 -2,6q-2,5 -11,4q-8,-1 -15,-3q-7,-4 -22,-5q-14,-1 -27,-3q-13,-2 -20,-5q-7,-2 -16,-3q-9,-2 -17,-4q-8,-2 -23,-4q-15,-2 -24,-4q-9,-2 -15,-4q-7,-2 -20,-4q-13,-2 -24,-4q-10,-2 -18,-4q-9,-4 -19,-4q-10,0 -12,6q-3,7 -5,8l-3,0l0,1l-1,0l0,0l0,1l0,0l0,0l-1,0l0,0l0,1l-1,0l0,0l0,1l0,0l0,0l-1,0l0,0l0,1l-1,0l0,0l0,1l-2,0l-1,0l0,-1l1,0l0,0l0,-1l0,0l0,0l1,0l0,0l0,-1l1,0l0,0l0,-1l0,0l0,0l1,0l0,0l0,-1l1,0l0,0l0,-1l0,0l0,0l2,-2q0,-1 -2,-11q-2,-10 -2,-15q-2,-5 -1,-21q1,-16 5,-27q6,-12 12,-20q6,-8 12,-13q7,-5 14,-9q6,-4 8,-4l1,0l1,-1l2,-1l2,0l1,0l0,-1l1,0l0,0l0,-1l-2,0l-1,0l-1,-1l-2,-1l0,0l0,0l-1,0l0,0l0,1l-1,0l0,0l0,-1l-2,0q-1,0 -1,-2q-1,-1 -1,0q0,1 -1,0q-1,-1 -2,-1q-1,-1 -5,-1q-4,-1 -11,-3l-7,-3l-3,0l-3,0l-2,-1l-1,-1l11,0l10,0l-9,-1q-9,-1 -16,-1l-7,-2l-2,0l-2,0l-2,-1l-1,-1l2,0l2,0l14,-1l14,-1l-11,0l-11,0l28,-1q28,-1 28,-1z"/>
  <path id="svg_8" fill="#007fff" fill-rule="evenodd" stroke="#71C3E7" stroke-width="1px" d="m139,482l-6,-17l1,0q0,1 50,1l49,0l1,1l0,0l-9,11q-9,11 -9,12l0,0l-3,4q-3,3 -3,4l0,0l-22,0q-22,0 -32,1l-11,0l0,0q-1,0 -6,-17z"/>
  <path id="svg_9" fill="#B6DBE5" fill-rule="evenodd" stroke="#B6DBE5" stroke-width="1px" d="m446,398l0,-1l12,4q13,5 16,6q2,2 3,3l0,2l-1,0q0,0 -2,0q-2,0 -20,5l-17,6l0,-2q0,-2 -9,-6l-10,-3l-1,0l-1,0l-1,0l-1,0l0,-1l0,0l-1,0l0,0l0,0l0,-1l1,0l1,0l0,-1l1,0l0,0l0,-1l1,0l1,0l1,-1l1,-1l13,-3q13,-4 13,-5z"/>
  <path id="svg_10" fill="#C9BE71" fill-rule="evenodd" stroke="#C9BE71" stroke-width="1px" d="m151,427l1,0l0,0l0,1l0,0l0,0l1,0l0,0l0,1l1,0l0,1l0,1l2,1q1,2 2,2l0,0l2,3q1,3 2,3l0,0l0,0q0,0 -8,1q-8,1 -17,3l-9,3l0,1l0,1l0,0l-1,-1l0,0l0,0l0,-1l-1,-1l0,-2l0,-1l-1,-1l-1,-2l0,-2l0,-1l-1,0l0,-1l0,0l0,0l0,-1l-1,-1l0,0l0,0l0,-1l0,0l1,0q1,1 3,1q1,0 4,-3l3,-2l1,0l0,0l0,0l0,1l8,-2q8,-2 9,-1z"/>
  <path id="svg_11" fill="#007fff" fill-rule="evenodd" stroke="#74C4E7" stroke-width="1px" d="m130,465l0,-1l5,14q5,14 5,16l0,2l1,1l1,1l0,1l0,1l-1,0l-1,0l-14,0q-15,0 -36,0l-22,1l0,-3q0,-4 3,-17l3,-13l0,0q1,0 3,-2l2,-1l25,1q26,0 26,-1z"/>
  <path id="svg_12" fill="#DAEAF3" fill-rule="evenodd" stroke="#DAEAF3" stroke-width="1px" d="m0,122l0,-122l510,0l509,0l0,0q0,0 -28,1l-28,1l11,0l11,0l-14,1l-14,1l-2,0l-2,0l1,1l2,1l2,0l2,0l7,2q7,0 16,1l9,1l-10,0l-11,0l1,1l2,1l3,0l3,0l7,3q7,2 11,3q4,0 5,1q1,0 2,1q1,1 1,0q0,-1 1,0q0,2 1,2l2,0l0,1l0,0l1,0l0,-1l0,0l1,0l0,0l0,0l2,1l1,1l1,0l2,0l0,1l0,0l-1,0l0,1l-1,0l-2,0l-2,1l-1,1l-1,0q-2,0 -8,4q-7,4 -14,9q-6,5 -12,13q-6,8 -12,20q-4,11 -5,27q-1,16 1,21q0,5 2,15q2,10 2,11l-2,2l0,0l0,0l0,1l0,0l-1,0l0,1l0,0l-1,0l0,0l0,0l0,1l0,0l-1,0l0,1l0,0l-1,0l0,0l0,0l0,1l0,0l-1,0l0,1l1,0l2,0l0,-1l0,0l1,0l0,-1l0,0l1,0l0,0l0,0l0,-1l0,0l1,0l0,-1l0,0l1,0l0,0l0,0l0,-1l0,0l1,0l0,-1l3,0q2,-1 5,-8q2,-6 12,-6q10,0 19,4q8,2 18,4q11,2 24,4q13,2 20,4q6,2 15,4q9,2 24,4q15,2 23,4q8,2 17,4q9,1 16,3q7,3 20,5q13,2 27,3q15,1 22,5q7,2 15,3q9,1 11,-4q2,-5 2,-6l0,0l1,-1l1,-1l0,0l0,-1l0,0l0,0l1,0l0,0l1,-1l1,-1l1,0l0,0l0,147l0,147l-20,0l-19,0l0,0l0,0l3,-1l3,-1l-8,0l-8,0l-3,-1l-3,-1l13,0l12,0l0,-1l0,0l1,0l0,-1l-6,0q-6,0 -5,-1q1,-1 -7,-2q-8,-1 -5,-2q2,-1 -2,-2q-5,-1 -19,-4q-14,-3 -31,-7q-18,-4 -26,-4q-8,-2 -29,-6q-21,-4 -29,-6q-9,-2 -34,-6q-26,-6 -40,-8q-14,-4 -40,-8q-25,-4 -33,-6q-8,-2 -31,-7q-22,-5 -32,-7q-9,-2 -16,-3q-7,-1 -22,-5q-16,-2 -41,-8q-25,-4 -32,-6q-7,-2 -22,-4q-15,-4 -25,-6q-11,-2 -53,-10q-42,-8 -75,-14q-34,-8 -81,-16q-47,-10 -65,-14q-19,-4 -34,-6q-15,-4 -56,-12q-41,-8 -52,-10q-10,-2 -26,-5q-15,-3 -34,-6l-18,-4l0,1l0,2l-1,0l0,0l-1,0l0,0l0,0l0,0l-1,1q0,1 2,1q2,0 2,1q0,1 -1,1q-1,0 -2,0l-1,0l0,0l-1,0l0,3l0,3l-2,0l-1,0l-1,-1l-1,-1l0,0l0,0l0,0l1,-1l0,-3q0,-2 -2,-5q0,-3 -5,-6q-5,-3 -9,-5q-3,-2 -5,-7q-1,-5 -3,-7l-2,-2l-2,0q-3,0 -6,3l-4,3l0,-1l0,-1l-1,0l0,0l0,0q-1,-1 -3,-4q-4,-4 -11,-10q-8,-6 -19,-12q-12,-4 -28,-8q-16,-4 -46,-4l-29,0l0,1l0,1l2,0l2,0l1,1l2,1l16,5q15,5 16,6q1,1 2,1l1,0l1,1l1,1l0,0l1,0l0,0l0,0l1,1l1,1l0,0l0,0l1,0l0,0l-1,1l-1,1l-3,0l-2,0l-24,7q-23,7 -33,11q-9,4 -10,4l0,0l-1,1l-1,1l-1,0l-1,0l-1,1l0,0l0,-121z"/>
  <path id="svg_13" fill="#F1D692" fill-rule="evenodd" stroke="#F1D692" stroke-width="1px" d="m171,600l1,-12l1,9q1,9 1,8q0,-1 1,6l0,7l-1,2q-1,2 -2,3l0,0l0,-3q0,-4 -1,-8q-1,-3 -1,-1q0,2 1,-11z"/>
  <path id="svg_14" fill="#15ADD7" fill-rule="evenodd" stroke="#15ADD7" stroke-width="1px" d="m292,540l0,-2l4,7q4,7 5,8l1,1l0,1l0,1l1,1l1,1l0,0l0,0l0,1q0,1 -11,4q-11,3 -22,9q-11,6 -19,12q-8,7 -8,7l0,1l0,0l-1,0l-12,14q-13,13 -13,14q0,1 -1,1l0,1l-1,0l0,0l-2,0l-1,0l-1,-1l-1,-1l-1,0l-2,0l-2,-1l-1,0l0,-1l-1,0l0,0l0,0l0,-1l0,0l1,0l0,-1l1,0l1,0l0,-1l1,0l0,0l0,-1l1,0l1,0l0,-1q0,0 2,-1q2,-2 8,-4q6,-2 6,-5q0,-3 -4,-15l-4,-12l0,0l1,0l0,-1l0,0l0,0l1,0l0,-1l0,-1l1,-1l1,-1l0,0l0,-1l0,0l0,0l1,-1q1,-1 6,-9l6,-9l1,0q0,-1 0,-1l0,0l0,0q1,0 1,-1l0,0l1,0l1,1l1,0l0,0l1,-1q1,0 1,-1q1,0 8,2q7,2 11,2q3,-1 9,-4q5,-4 7,-4q2,0 4,0q2,0 6,-1l4,-1l0,0l-1,0l0,0q0,0 1,-1l1,0l0,-1z"/>
  <path id="svg_15" fill="#C9A27B" fill-rule="evenodd" stroke="#C9A27B" stroke-width="1px" d="m128,320l3,-2l-1,1q0,1 -1,2q-1,0 -1,1q0,1 -1,2l-1,1l-8,18q-10,18 -18,38q-8,20 -8,21l0,2l-1,2l-1,1l0,1l0,2l-3,7q-3,7 -3,10l0,3l0,3l0,3l0,0l0,0l-1,2q-1,1 -2,2l-1,2l0,4l0,4l-1,0q0,0 1,1l1,0l-1,3q-2,3 -1,4l0,0l-1,1q-2,1 -2,2l0,0l-1,1q-1,2 -1,4l0,2l-3,13q-3,13 -3,17l0,3l-2,13q-2,12 -4,30q-2,18 -1,52q1,35 3,54q2,18 3,21l0,3l-3,0l-3,0l-4,0l-4,0l0,0l-1,0l0,-2q0,-1 -3,-24q-3,-23 -3,-53q0,-30 4,-61l4,-30l0,-2l0,-1l0,-1q0,0 4,-18q3,-17 2,-17q-1,-1 -3,0l-2,1l0,-1l1,-1l0,-3q0,-3 1,-3l0,-1l1,0q1,1 3,-1q1,-1 5,-10q4,-8 4,-12l0,-4l0,0q0,-1 1,-2q1,0 8,-21q7,-21 19,-47l12,-26l0,0l0,0l0,-1l0,0l1,-1l1,-2l0,-1l0,-1l-1,0l0,0l0,0q0,0 6,-3l6,-3l1,0q1,0 4,-2z"/>
  <path id="svg_16" fill="#B6DCE6" fill-rule="evenodd" stroke="#B6DCE6" stroke-width="1px" d="m286,444l12,-7l0,0l1,0l0,0l0,1l0,0l1,0l0,0l0,0l1,1l1,1l0,0l0,0l1,0l0,0l0,1l1,0l0,0l0,1l1,0l1,0l0,1l0,0l1,0l0,1l3,2q4,2 4,3l0,0l-18,12q-18,12 -19,13q-1,1 -2,2l-1,1l0,0l0,1l0,0l0,0l-1,0l0,0l0,1l-1,0l0,0l0,1l-1,0l-1,0l0,-1l0,-1l1,0l0,0l0,-1q1,0 1,-1q2,-1 -4,-4q-5,-2 -10,-4l-4,-1l0,-1l0,0l0,0l1,0l1,-1l1,-1l0,0l1,0l0,0l0,0l0,-1l0,0l1,0l0,-1l0,0q1,0 7,-6q8,-5 20,-12z"/>
  <path id="svg_17" fill="#0BA4CC" fill-rule="evenodd" stroke="#0BA4CC" stroke-width="1px" d="m494,420l1,0l1,1l1,1l1,0l1,0l0,1l1,0l0,1l0,1l-2,0l-2,1l-2,0l-1,0l-2,1q-2,1 -8,3q-6,2 -15,8q-10,6 -16,14l-6,7l0,0l0,1l0,0l0,0l-1,0l0,1l0,0q-1,0 -1,1l0,0l-4,10q-4,11 -4,14q0,4 -1,7l0,3l0,0l-1,0l0,0l0,0l0,0l-1,0l-1,0l-1,0l0,-1l-1,0l0,0l0,-1l0,0l0,0l-1,0l0,0l-1,-1l-1,-1l0,0l-1,0l0,0l0,0l-1,-1l-1,-1l0,0q0,0 -3,-2l-3,-3l0,-1l0,0l0,0l0,0l1,-2q1,-1 1,-2q0,-2 11,-18q11,-16 21,-26q10,-11 18,-16l8,-6l2,0q3,0 8,3q5,3 6,3z"/>
  <path id="svg_18" fill="#F1DF96" fill-rule="evenodd" stroke="#F1DF96" stroke-width="1px" d="m445,397l1,0l0,0q0,1 0,1l1,0l0,0q0,0 -13,4l-14,4l-1,1l-1,1l-1,0l-1,0l0,1l0,0l-1,0l0,1l-1,0l-1,0l0,1l0,0l-1,0q-1,1 -7,4l-7,3l0,0l0,0l-1,1l-1,0l0,-1l0,-1l-1,0l0,-1l-1,0l-1,0l0,-1q0,-1 2,-2l2,-1l-2,-1q-2,-1 -7,-2q-4,-1 -11,-2l-7,-1l0,0l0,0l1,-1l1,-1l1,0l1,0l0,-1l0,0l1,0l0,-1l1,0l1,0l7,-5q8,-5 8,-5l0,0l16,0q16,0 26,2q10,2 11,3z"/>
  <path id="svg_19" fill="#E0DD99" fill-rule="evenodd" stroke="#E0DD99" stroke-width="1px" d="m136,398l0,0l10,0q11,2 18,5q8,3 12,6q5,3 5,4l1,0l0,0l0,1l0,0l0,0l1,0l0,0l0,1l1,0l0,0l0,1l1,0l1,0l0,1l0,1l-1,0l-1,0l-6,-1q-6,-1 -6,-1l-1,0l0,0q-1,-1 -2,-3q-2,-1 -8,-3l-6,-1l0,-1q-1,0 -1,-1q-1,-1 -1,-1q0,-2 -4,-3q-4,-2 -4,-3q0,-1 -5,-2l-4,0l0,0z"/>
  <path id="svg_20" fill="#F1E19E" fill-rule="evenodd" stroke="#F1E19E" stroke-width="1px" d="m284,425l1,0l0,1q0,1 -1,1q-1,0 -1,1l0,2l1,0l1,0l0,1l1,0l0,0l0,1l1,0l1,0l1,1l1,1l1,0l1,0l2,2q1,0 2,1l2,0l-12,7q-12,7 -20,12q-6,6 -7,6l0,0l0,1l-1,0l0,0l0,1l0,0l0,0l-1,0l0,0l-1,1l-1,1l-1,0l0,0l0,0q0,0 -1,-1l-1,-1l-1,0l0,0l0,-1l-1,0l0,0l0,-1l-1,0l-1,0l-1,-1l-1,0l0,-1l0,-1l1,0l0,-1l0,0l1,0l0,0l0,0l0,-1l0,0l-1,0l0,-1l0,0q-1,0 -1,0l0,0l0,-1q0,-1 5,-5q5,-4 5,-7l0,-2l1,1q1,2 3,1q1,-1 1,-1l1,0l0,0l0,0l0,-1l0,0l1,0l0,-1l0,0l1,0l0,0l0,0l0,-1l0,0l-1,0l0,-1l-1,0q-1,0 -2,-2l-1,0l0,-1l-1,0l0,0l0,-1l0,0l0,0l-1,0l0,0l0,-1l-1,0l0,-1l0,-1l1,0l1,1l0,0l0,0l1,0l0,0l0,1l1,0l0,0l0,1l0,0l0,0l1,0l0,0l0,1l1,0l0,0l0,1l2,0q2,2 10,-4q9,-6 10,-7z"/>
  <path id="svg_21" fill="#E7AF65" fill-rule="evenodd" stroke="#E7AF65" stroke-width="1px" d="m202,620l3,-1l1,0l2,1l2,0l1,0l1,1l1,1l1,0l2,0l0,6q0,5 -1,6q-1,0 -3,1l-3,1l-2,0l-2,0l0,1l0,0l-1,0q-1,1 -6,1l-5,2l-1,0l-2,0l-1,1l-1,0l0,-1l0,-1l1,-1l0,-1l0,0l1,0l0,-1l0,-1l1,0l0,-1l0,0l1,0l0,-1q0,-1 4,-6q4,-5 6,-7z"/>
  <path id="svg_22" fill="#007fff" fill-rule="evenodd" stroke="#69C2E8" stroke-width="1px" d="m444,461l1,0l0,1q-1,1 -1,2l0,1l-1,0l0,1l391,0l391,0l19,0l20,0l0,29l0,29l-1,0q-1,0 -1,1q0,1 -1,-1q-1,-1 -4,0q-4,0 -88,-2q-84,-2 -109,-2q-25,0 -51,-2q-26,0 -207,-5q-181,-5 -218,-5q-37,0 -53,1q-16,1 -16,2l0,1l-5,0l-4,0l-3,0q-3,0 -43,-4l-41,-4l0,0l0,0l4,-1l4,-1l4,-1q3,-2 4,-3l0,-2l0,-3q1,-3 4,-17q4,-15 5,-15z"/>
  <path id="svg_23" fill="#64a0db" fill-rule="evenodd" stroke="#85c7e2" stroke-width="1px" d="m1263,524l1,0l0,90l0,91l0,0l0,0l-1,4l0,4l-8,0q-8,-1 -17,-2q-8,-1 -82,-11q-73,-10 -131,-17q-58,-7 -91,-11q-32,-6 -64,-13q-33,-7 -36,-8q-2,0 -2,-1q0,-1 -6,-3q-5,-3 -16,-7q-12,-4 -32,-11q-20,-7 -22,-8q-3,-1 -3,-2q0,-1 -5,-3q-6,-1 -6,-2q0,-1 -4,-2q-4,-2 -4,-2q-1,-1 -2,-1q-2,-1 -27,-13q-25,-14 -45,-28q-20,-14 -30,-20q-10,-6 -31,-14q-21,-8 -53,-14l-33,-6l-3,-1l-4,-1l0,0l0,0l4,0l5,0l0,-1q0,-1 16,-2q16,-1 53,-1q37,0 218,5q181,5 207,5q26,2 51,2q25,0 109,2q84,2 88,2q3,-1 4,0q1,2 1,1q0,-1 1,-1z"/>
  <path id="svg_24" fill="#ECC34F" fill-rule="evenodd" stroke="#ECC34F" stroke-width="1px" d="m312,412l1,0l0,0l1,0l0,0l0,0l3,2q3,1 3,2l0,1l0,0q0,0 -1,1l0,0l0,0q-1,0 -1,0l0,1l0,0q0,0 -1,1l0,0l-8,7q-7,7 -8,7l0,0l0,1l-1,0l0,0l0,1l0,0l0,0l-1,0l0,1l-1,0l0,0l-2,0q-1,-1 -2,-1l-2,-2l-1,0l-1,0l-1,-1l-1,-1l-1,0l-1,0l0,-1l0,0l-1,0l0,-1l-1,0l-1,0l0,-2l1,-1l0,0l0,-1l0,0l0,0l0,0l1,0l0,-1l0,0l1,0l0,-1l12,-6q13,-6 14,-6z"/>
  <path id="svg_25" fill="#F1E098" fill-rule="evenodd" stroke="#F1E098" stroke-width="1px" d="m296,461l18,-12l0,0l1,0l0,0l0,1l0,0l1,0l8,8q8,8 8,8l0,0l1,0l0,0l0,1l1,0l0,0l0,1l0,0l0,0l1,1l1,1l0,0l0,0l0,0l0,0l0,1l0,0l-1,0l0,1l-1,0l-2,0l-1,1q-1,1 -13,7l-12,6l0,0l0,0l-1,0l0,0l-1,1l-1,1l0,0l-1,0l0,0l0,0l-1,1l-1,1l0,0l0,0l-8,5q-7,5 -7,5l-1,0l0,0l0,0l0,1l0,0l-1,0l0,1l-1,0l-1,0l0,0l-1,0l0,-1l0,-1l1,0q0,0 -1,-3q0,-3 -4,-7q-3,-4 -4,-4q-1,0 -2,-3l0,-3l0,0q1,0 1,-1l0,0l1,0q0,-1 0,-1l0,0l0,0q1,0 1,-1l0,0l1,0q0,-1 0,-1l0,0l0,0q1,0 3,-2q1,-1 19,-13z"/>
  <path id="svg_26" fill="#DE934D" fill-rule="evenodd" stroke="#DE934D" stroke-width="1px" d="m231,606l12,-14l0,1l1,1l0,1l0,1l1,0l0,0l1,1l1,0l0,1l1,1l0,0l0,1l0,0l1,0l0,-1l1,0l0,1l0,1l2,1q2,2 3,1q1,0 1,1q0,1 -1,1l0,0l-17,17q-17,18 -18,18l-2,0l0,0l-1,0l-1,-1l-2,-1l-3,0l-3,0l-2,-1l-1,0l0,0l0,-1l2,0l2,0l3,-1q2,-1 3,-1q1,-1 1,-6l0,-6l0,0l1,0l0,-1q1,0 1,-1q0,-1 13,-14z"/>
  <path id="svg_27" fill="#B2CA6B" fill-rule="evenodd" stroke="#B2CA6B" stroke-width="1px" d="m109,416l1,-1l2,1q2,2 3,3q0,1 4,3q3,3 5,4q0,1 1,1l0,1l3,0l2,0l2,1l1,0l-3,2q-3,3 -4,3q-2,0 -3,-1l-1,0l0,-1q0,-1 -6,0l-7,1l0,3l1,2l0,3l0,3l1,0l0,0l0,0l0,1l-3,0q-4,-1 -10,0q-5,1 -9,2l-5,2l0,0l0,1l-1,0l-1,0l0,1l-1,0l0,0l-1,0l0,1l0,0l0,0l0,0l0,-1l0,-1l0,-4l0,-4l1,-2q1,-1 2,-2l1,-2l0,0l1,0l0,-1l1,0l0,0l0,-1l1,0l1,0l0,-1l0,0l1,0l0,-1l0,0l1,0l0,0q0,0 6,-4q6,-4 8,-5q1,-2 2,-2q1,0 1,-1q-1,-1 0,-2q1,0 1,-1q0,-1 1,-1z"/>
  <path id="svg_28" fill="#29B3D9" fill-rule="evenodd" stroke="#29B3D9" stroke-width="1px" d="m328,411l0,0l0,0l0,0l1,0l0,1l1,0l0,0l0,-1l0,0l1,0l0,1l8,1q7,1 7,3q0,2 1,3l0,1l-5,4q-6,3 -10,7q-3,3 -10,10q-6,7 -6,7l0,0l-1,0l0,1l-1,0l0,0l0,0q0,-1 -4,-3l-3,-2l0,-1l-1,0l0,0l0,-1l-1,0l-1,0l0,-1l0,0l-1,0l0,-1l0,0l-1,0l0,0l0,0l-1,-1l-1,-1l0,0l0,0l-1,0l0,0l0,-1l0,0l0,-1l1,0l0,0l0,0l0,-1l0,0l1,0l0,-1l0,0q1,0 8,-7l8,-7l1,0q0,0 0,-1l0,0l0,0q1,-1 1,-1l0,0l1,0q0,0 0,-1l0,0l4,-3q4,-3 4,-3z"/>
  <path id="svg_29" fill="#42B8DB" fill-rule="evenodd" stroke="#42B8DB" stroke-width="1px" d="m238,486l16,-19l4,1q5,2 10,4q6,2 6,3l0,1l0,0q0,0 -1,0l0,1l0,0q-1,0 -1,1l0,0l0,0q0,0 -1,0l0,1l0,0q-1,0 -1,1l0,0l-16,16q-16,17 -25,29q-9,13 -9,13l0,0l-1,0l0,0l0,1l-1,0l0,1l0,1l-1,1l-1,1l0,0l0,1l0,0l-1,0l0,0l-1,0l0,-1l0,-1l-1,-12l0,-13l0,-1q1,0 2,-2l1,-3l0,0l1,-1l0,0l1,0l0,-1l0,-1l1,0l0,0l0,-1l1,0l0,0l0,-1l0,0l0,0l1,-1q1,-1 17,-19z"/>
  <path id="svg_30" fill="#D4C657" fill-rule="evenodd" stroke="#D4C657" stroke-width="1px" d="m96,407l0,-1l2,0l1,0l3,1q2,1 5,3q3,3 3,4l0,1l-1,1q-1,0 -1,1q0,1 -1,1q-1,1 0,2q0,1 -1,1q-1,0 -2,2q-2,1 -8,5q-6,4 -6,4l0,0l-1,0l0,0l0,1l-1,0l0,0l0,1l-1,0l-1,0l0,1l0,0l-1,0l0,1l-1,0l0,0l0,0l0,0l0,-3l0,-3l0,-3q0,-3 3,-10l3,-7l0,0l1,0l1,-1l1,-1l1,0l1,0l0,-1l1,0l0,0z"/>
  <path id="svg_31" fill="#FAFBFC" fill-rule="evenodd" stroke="#FAFBFC" stroke-width="1px" d="m1229,460l6,0l0,1l-1,0l0,0l0,1l-12,0l-13,0l3,1l3,1l8,0l8,0l-3,1l-3,1l0,0l0,0l-391,0l-391,0l0,-1l1,0l0,-1l0,-2l0,0l1,0l0,-1l0,0l0,-1l1,0l0,0l0,0l0,-1l0,0l6,-7q6,-8 16,-14q9,-6 15,-8q6,-2 8,-3l2,-1l1,0l2,0l2,-1l2,0l0,-1l0,-1l-1,0l0,-1l-1,0l-1,0l-1,-1l-1,-1l-1,0q-1,0 -6,-3q-5,-3 -8,-3l-2,0l0,-1q0,-1 -1,-1l0,0l0,-2q-1,-1 -7,-4q-6,-4 -14,-6l-9,-2l0,0q-1,-1 -1,-1l0,0l-1,0q-1,-1 -11,-3q-10,-2 -26,-2l-16,0l-8,0q-7,0 -24,4q-17,4 -21,5l-4,2l-1,0q-2,1 -10,3l-7,4l-1,0l-1,0l-1,1l-1,1l0,0l0,0l-1,0q-1,0 -14,6l-12,6l0,1l-1,0l0,0q-1,0 -1,1l0,0l-1,0q-1,0 -8,6q-7,4 -10,5l-3,0l0,-1q0,0 -1,0l0,0l0,0q-1,-1 -1,-1l0,0l0,-1q0,0 -1,0l0,0l0,0q-1,-1 -1,-1l0,0l0,-1q0,0 -1,0l0,0l0,0l-1,-1l0,0l0,0l0,0l-1,-1l0,0l-1,0l0,0l0,0l-1,-1l-1,0l0,1l0,2l1,1l1,1l0,2q2,3 2,4l0,1l0,2q0,3 -3,6q-3,3 -4,3l0,1l0,0q-1,0 -1,1l0,0l0,0q0,0 -1,0l0,1l0,0q-1,0 -1,1l0,0l-6,5q-6,5 -6,6l0,0l0,0l-1,-1l-49,0q-50,0 -50,-1l-1,0l0,-1q-1,0 -1,-2l-1,-1l0,-1q-1,-2 -1,-5l-2,-3l0,-2l0,-1l0,-1l0,-1l9,-3q9,-2 17,-3q8,-1 8,-1l0,0l0,0q0,0 4,-5l3,-5l1,0q0,0 0,-1l0,0l0,0q1,-1 1,-1l0,0l3,-1q4,-1 10,-2l6,0l1,0l1,1l0,0l0,0l0,2l0,2l-5,11q-5,11 -5,13l0,1l-1,0l0,1l0,0l-1,0l0,1l0,1l0,1l0,1l0,0l0,0l2,-1l1,-1l1,0l1,0l1,-1l1,-1l1,0q1,0 8,-5q6,-5 15,-13q9,-10 16,-19q7,-10 13,-23q4,-13 5,-28q1,-14 -3,-26q-4,-12 -14,-26l-8,-15l-1,0l0,-1l0,0l-1,0l0,-1l0,-1l-1,0l0,0l0,-1l-1,0l0,0l0,-1l0,0l0,0l-1,-1l0,-1l-1,0l-1,0l0,-1l-1,0l0,-1l0,-1l1,0l1,1l0,0l0,0l1,0l0,0l0,1l1,0l0,1l0,1l1,0l0,1l0,0l1,0l0,0l0,0l0,1l0,0l1,0l0,1l0,0l1,0l0,0l0,0l0,1l0,0l1,0l0,1l0,0l1,0l6,8q8,7 8,7l0,1l0,0l0,0l1,0l0,0l0,1l1,0l0,1l0,1l1,0l0,1l0,0l1,0l0,0l0,0l0,1l1,0l12,19q13,19 21,36q8,17 10,24q2,7 3,9l1,2l0,1l0,2l1,2l0,1l1,0l1,0l0,-6q1,-6 0,-28q-1,-22 -3,-35q-4,-14 -10,-25q-6,-11 -11,-17l-6,-7l0,-1q-1,0 -2,-2q-2,-3 -5,-6q-4,-2 -11,-7q-8,-5 -21,-10l-12,-5l0,-3l0,-3l1,0l0,0l1,-1q1,-1 0,-1q-1,0 0,-2q0,-2 6,-2q5,0 19,4q14,2 29,5q16,3 26,5q11,2 52,10q41,8 56,12q15,2 34,6q18,4 65,14q47,8 81,16q33,6 75,14q42,8 53,10q10,2 25,6q15,2 22,4q7,2 32,6q25,6 41,8q15,4 22,5q7,1 16,3q10,2 32,7q23,5 31,7q8,2 33,6q26,4 40,8q14,2 40,8q25,4 34,6q8,2 29,6q21,4 29,6q8,0 26,4q17,4 31,7q14,3 19,4q4,1 2,2q-3,1 5,2q8,1 7,2q-1,1 5,1z"/>
  <path id="svg_32" fill="#99BA72" fill-rule="evenodd" stroke="#99BA72" stroke-width="1px" d="m461,699l1,0l0,3l0,2l-1,6l0,5l-1,1q-2,2 -2,2l-1,0l-1,0l-2,0l0,-2l0,-2l1,-2l1,-1l0,-1q0,-2 -1,-4l-1,-1l1,0q1,0 1,1l0,1l1,-1q1,-1 2,-4l1,-2l1,0l0,0l0,-1z"/>
  <path id="svg_33" fill="#EABD71" fill-rule="evenodd" stroke="#EABD71" stroke-width="1px" d="m304,559l0,-1l0,0l1,0l1,3q2,3 2,4l0,1l1,1l1,1l0,1l0,1l1,0l0,0l0,1l1,0l0,1l0,1l1,0l0,1l1,0l0,0l0,1q0,1 -1,1l0,1l-15,5q-16,6 -28,14q-13,8 -14,9l-1,0l-1,0q0,-1 -2,-2l-2,-2l0,-1l0,-1l-1,0l0,1l-1,0l0,0l0,-1l0,0l-1,-1l0,-1l-1,0l-1,-1l0,0l-1,0l0,-1l0,-1l-1,-1l0,-1l1,0l0,0l0,-1q0,0 8,-7q8,-6 19,-12q11,-6 22,-9q11,-3 11,-4z"/>
  <path id="svg_34" fill="#F5F0C0" fill-rule="evenodd" stroke="#F5F0C0" stroke-width="1px" d="m502,692l5,0l0,0l1,0l0,0l0,0l3,2q3,2 4,2l0,0l0,1l1,0l0,1l0,1l0,1l0,1l0,0l0,1l-2,0l-2,0l-2,1q-1,1 -8,3q-7,2 -13,4q-5,3 -7,6l-2,4l-1,0l-1,0l0,1l0,1l1,0l0,0l0,1q-1,0 -1,1l0,1l-1,0l-1,-1l-2,0l-2,0l-2,-1l-2,0l0,-2l0,-2l-1,0l0,-1l0,0l-1,0l0,0l0,0l0,-1l0,0l-1,0l0,-1l-1,0l-1,0l0,-1l-1,0l0,0l0,0l0,0l0,-1l2,0l1,0l1,0l0,0l0,0l0,0l1,-1l1,-1l7,-7q8,-7 15,-9q7,-4 12,-4z"/>
  <path id="svg_35" fill="#F5E74B" fill-rule="evenodd" stroke="#F5E74B" stroke-width="1px" d="m535,724l0,8l0,0l-1,0l0,0l0,1l0,1l0,0l-6,0q-5,0 -17,-2l-12,-2l0,0q0,0 -11,-3l-10,-2l0,-1l0,0l-1,0l0,0l0,0l0,0l1,-1l1,-1l0,0l-1,0l0,-1l0,-1l1,0l1,0l2,-4q2,-3 7,-6q6,-2 13,-4q7,-2 8,-3l2,-1l2,0l2,0l0,-1l0,0l0,-1l0,-1l0,-1l0,-1l-1,0l0,-1l0,0q-1,0 -4,-2l-3,-2l0,0l0,0l-1,0l0,0l0,0l0,0l5,0q6,0 6,-1q1,-1 7,6q5,7 7,13q2,7 3,14z"/>
  <path id="svg_36" fill="#E8DB8F" fill-rule="evenodd" stroke="#E8DB8F" stroke-width="1px" d="m334,403l1,0l0,0q0,1 0,1l-1,0l0,0l0,0l0,1l0,0l-1,0l0,1l0,0l-1,0l0,0l0,0l0,1l0,0l-1,0l0,1l0,0l-1,0l0,0l0,0l0,1l0,0l-1,0l0,1l0,0l-1,0l0,0l0,1l-4,4q-5,5 -6,5l-1,0l0,-1q1,-1 2,-3q1,-1 -2,-2l-3,-2l0,0l0,0l-1,0l0,0l0,0l0,0l1,-1l1,-1l1,0l1,0l7,-4q8,-2 10,-3z"/>
  <path id="svg_37" fill="#66C0DF" fill-rule="evenodd" stroke="#66C0DF" stroke-width="1px" d="m304,489l0,0l1,0l0,1l9,5q9,5 14,6q5,1 6,1l0,0l0,0q0,0 -6,3l-5,3l-1,0l-1,0l0,1l-1,0l0,1l0,0l-1,0l-1,0l-2,2q-1,0 -2,1l0,0l-12,9q-12,8 -12,11q2,3 2,4l0,1l0,2l0,1l-1,0q-1,1 -1,1l0,0l1,0l0,0l-4,1q-4,1 -6,1q-2,0 -4,0q-2,0 -7,4q-6,3 -9,4q-4,0 -11,-2q-7,-2 -8,-2q0,1 -1,1l-1,1l0,0l-1,0l0,-1l-1,0l0,0l0,1l0,0l0,0l-1,0l0,0l-1,1l-1,0l0,-1l1,-1l0,0l0,-1l0,0l0,0l1,0l0,0l0,-1l1,0l0,0l0,-1l0,0l0,0l1,0l0,0l0,-1l1,0l0,0q0,-1 8,-10q7,-9 20,-21l13,-12l1,0l1,0l0,-1l1,0l0,0l0,-1l0,0l0,0l1,0q0,0 7,-5l8,-5l2,0l2,0l0,-1z"/>
  <path id="svg_38" fill="#18AFD8" fill-rule="evenodd" stroke="#18AFD8" stroke-width="1px" d="m349,457l11,-11l2,0q2,0 2,1l0,0l1,0l0,1l3,0q3,1 3,2q0,1 5,3q4,1 6,2l2,0l-2,2q-2,2 -1,4q0,1 7,6q7,4 7,5l0,1l-11,5q-12,5 -23,14q-11,8 -14,10q-3,2 -9,9q-5,7 -5,8l-1,0l0,0l0,1l0,0l0,0l-1,0l0,0l0,1l-1,0l0,0l0,1l0,0l-1,0l-1,0l0,0l0,-1l0,0l-1,0l0,-1l0,0l-1,0l0,-1l0,-1l-1,0l0,0l0,-1l-1,0l0,0l0,-1l0,0l0,0l-1,-1l-1,-1l0,0l0,0l0,-1l0,0l-1,-1l-1,-1l0,0l0,-1l0,0l0,0l0,0l0,-1l1,0l0,-1l1,0l1,0l5,-3q6,-3 6,-3l0,0l8,-4q8,-4 10,-4l1,0l1,-1l1,0l0,-1l-1,-2l0,0l0,0l0,-1l0,0l-1,0l0,-1l0,0q-1,0 -8,-9l-8,-9l0,0l1,-1l0,0q0,-1 11,-12z"/>
  <path id="svg_39" fill="#C3D444" fill-rule="evenodd" stroke="#C3D444" stroke-width="1px" d="m167,234l0,0l0,1q1,1 1,1l0,0l2,4q2,5 3,8q0,2 -2,2q-1,1 -1,2q0,1 0,2l0,1l-1,0q-1,0 -1,-1q0,-1 -1,2q-1,2 -8,4q-7,2 -10,8q-3,7 -4,14q-1,8 -3,12q-2,3 -4,8q0,6 0,8q0,1 0,2l0,2l0,0q0,0 -1,0l0,1l-3,1q-2,2 -2,2l-1,0l0,0q-1,0 -1,0l0,1l0,0q0,0 -1,1l0,0l-2,1q-2,1 -3,1l-1,0l-6,3q-6,3 -6,3l0,0l-1,0l-2,0l-2,1l-1,1l-1,0q-1,0 -4,2q-3,0 -28,5l-24,5l-3,0l-3,0l0,-1l0,0l1,0l0,-1l1,0l1,0l0,-1l1,0l0,0l0,-1l0,0l0,0l1,0l0,0l1,-1q1,-1 7,-6q5,-6 20,-30l15,-23l0,-1l0,0l1,0l0,-1l0,0l1,0l0,-1l0,-1l1,-1l0,-1l-7,0q-7,0 -18,-2q-12,0 -40,-6l-28,-6l0,0l0,0l0,-8l0,-7l0,0l1,-1l1,0l1,0l1,-1l1,-1l0,0q1,0 10,-4q10,-4 33,-11l24,-7l2,0l3,0l1,-1l1,-1l0,0l-1,0l0,0l0,0l-1,-1l-1,-1l0,0l0,0l-1,0l0,0l-1,-1l-1,-1l-1,0q-1,0 -2,-1q-1,-1 -16,-6l-16,-5l-2,-1l-1,-1l-2,0l-2,0l0,-1l0,-1l29,0q30,0 46,4q16,4 28,8q11,6 19,12q7,6 11,10q2,3 3,4z"/>
  <path id="svg_40" fill="#B4DBE7" fill-rule="evenodd" stroke="#B4DBE7" stroke-width="1px" d="m336,470l0,0l0,0l1,0l8,9q7,9 8,9l0,0l0,1l1,0l0,0l0,1l0,0l0,0l1,2l0,1l-1,0l-1,1l-1,0q-2,0 -10,4l-8,4l0,0q-1,0 -6,-1q-5,-1 -14,-6l-9,-5l0,-1l-1,0l0,0l0,1l-2,0l-2,0l0,0l0,0l1,-1l1,-1l0,0l0,0l1,0l0,0l1,-1l1,-1l0,0l1,0l0,0l0,0l12,-6q12,-6 13,-7l1,-1l2,0l1,0l0,-1l1,0l0,0l0,-1l0,0z"/>
  <path id="svg_41" fill="#17A8D0" fill-rule="evenodd" stroke="#17A8D0" stroke-width="1px" d="m298,582l15,-5l2,3q3,3 3,3l0,1l0,0l0,0l1,1l1,1l0,0l0,0l0,1l0,0l0,1l0,1l0,0l0,1l0,0l1,0l-11,3q-12,3 -25,9q-13,8 -22,15q-9,7 -9,8q0,1 -1,1q-1,0 -7,7q-6,7 -12,16q-6,8 -7,9l-1,1l0,0l0,1l-1,0l-1,0l-1,-1l-1,-1l-1,0l-1,0l-1,-1l-1,-1l0,0l0,0l-1,0l0,0l0,0l-1,-1l0,0l0,0l0,0l0,-1l2,0l1,0l0,-6l-1,-5l0,-1l0,-2l2,0q1,0 18,-18l17,-17l1,0q1,-1 14,-9q12,-8 28,-14z"/>
  <path id="svg_42" fill="#EBC350" fill-rule="evenodd" stroke="#EBC350" stroke-width="1px" d="m249,453l0,0l1,1q0,0 0,1q-2,1 -2,2l0,1l-1,0l0,0l0,1l-1,0l0,1l0,1l1,0l1,1l1,0l1,0l0,1l0,0l1,0l0,1l0,0l1,0l1,1q1,1 1,1l0,0l0,0l0,1l-16,19q-16,18 -17,19l-1,1l0,0l0,0l0,1l0,0l-1,0l0,1l0,0l-1,0l0,1l0,1l-1,0l0,0l-1,1l0,0l0,0l0,0l-1,-1l-1,-1l0,-3l0,-3l1,-5q1,-4 1,-6l0,-2l0,0q0,-1 9,-12l9,-11l0,0q0,-1 6,-6l6,-5l0,0q1,0 1,-1l0,0l1,0q0,-1 0,-1l0,0l0,0q1,0 1,-1z"/>
  <path id="svg_43" fill="#EBD4A7" fill-rule="evenodd" stroke="#EBD4A7" stroke-width="1px" d="m440,686l-13,-19l3,1q3,1 4,3q2,3 44,5q42,2 66,4q24,2 42,6q18,4 25,7q7,2 7,3q0,1 4,2q5,2 8,4q4,2 5,3l1,1l1,0l1,0l0,1l0,0l1,0l0,1l0,0l1,0l0,1l0,1l-1,0l0,0l0,1l-1,0l0,0l0,1l-1,0l-1,0l-2,1q-1,1 -4,2q-2,1 -9,5q-7,4 -28,8q-21,6 -39,7q-17,2 -17,-1l-1,-3l0,1q0,1 -1,1l-1,0l0,-1q0,-1 0,-8q0,-7 -2,-14q-2,-6 -7,-13q-6,-7 -7,-6q0,1 -6,1l-5,0l0,0l0,0l-5,0q-5,0 -12,4q-7,2 -15,9l-7,7l-1,1l-1,1l0,0l0,0l-1,1l-1,0l0,0l0,-1l-1,0l-1,0l0,1l0,0l0,0l-1,0l0,-5l1,-6l0,-2l0,-3l-1,0l0,1l0,0l-1,0l-1,2q-1,3 -2,4l-1,1l0,0l0,-1l0,0l0,0l-1,0l0,0l0,0l-1,-1l0,0l0,0l0,-1q0,0 -14,-18z"/>
  <path id="svg_44" fill="#D4BD71" fill-rule="evenodd" stroke="#D4BD71" stroke-width="1px" d="m108,445l3,0l0,3q1,2 1,2l0,1l0,3l0,2l1,0q1,0 2,0l1,0l0,1q0,1 -4,0q-4,-1 -12,0l-7,1l0,-2q-1,-1 -1,-1q0,-1 -6,1l-7,2l0,0q-1,-1 0,-4l1,-2l0,0l1,0l0,-1l0,0l1,0l0,-1l1,0l1,0l0,-1l0,0l5,-2q4,-1 9,-2q6,-1 10,0z"/>
  <path id="svg_45" fill="#9BD2E4" fill-rule="evenodd" stroke="#9BD2E4" stroke-width="1px" d="m384,392l8,0l0,0q0,0 -8,5l-7,5l-1,0l-1,0l0,1l-1,0l0,0l0,1l-1,0l-1,0l-1,1l-1,1l0,0l0,0l0,0q0,0 -10,6l-10,6l-1,1l-1,1l0,0l-1,0l0,-1q-1,-1 -1,-3q0,-2 -7,-3l-8,-1l0,-1l-1,0l0,0l0,1l0,0l-1,0l0,-1l-1,0l0,0l0,0l0,-1l0,0l1,0l0,0l0,-1l1,0l0,0l0,-1l0,0l0,0l1,0l0,0l0,-1l1,0l0,0l0,-1l0,0l0,0l1,0l0,0l0,-1l1,0l0,0l0,-1l0,0l0,0l1,0q0,0 0,-1l0,0l4,-2q4,-1 21,-5q17,-4 24,-4z"/>
  <path id="svg_46" fill="#BBC65E" fill-rule="evenodd" stroke="#BBC65E" stroke-width="1px" d="m154,409l1,0l6,1q6,2 8,3q1,2 2,3l0,0l-1,1q-1,1 -1,1l0,0l-5,1q-4,1 -7,3q-3,2 -3,2l0,0l0,1l0,0l-1,1l-1,1l0,0l0,0l-1,0q-1,-1 -9,1l-8,2l0,-1l0,0l0,-1l0,0l0,-1l0,-1l0,-2l0,-1l-1,-1l-1,-1l0,-1q0,-2 -1,-3l-1,-1l0,-1l0,-1l-1,-1l0,-1l0,0l1,0l0,0l0,0l1,1q1,0 1,-1q0,-2 2,-3q2,-1 6,1q3,2 8,0q5,0 6,-1z"/>
  <path id="svg_47" fill="#059BC3" fill-rule="evenodd" stroke="#059BC3" stroke-width="1px" d="m302,522l12,-9l1,1q1,2 2,3l1,1l0,0l0,0l3,5q3,4 3,5l0,1l-8,12q-8,12 -9,13l-1,1l0,1l0,1l-1,1l0,0l-1,0l0,0l0,0l0,0l-1,-1l-1,-1l0,-1l0,-1l-1,-1q-1,-1 -5,-8l-4,-7l0,-1q0,-1 -2,-4q0,-3 12,-11z"/>
  <path id="svg_48" fill="#EBC24E" fill-rule="evenodd" stroke="#EBC24E" stroke-width="1px" d="m254,496l16,-16l0,3q1,3 2,3q1,0 4,4q4,4 4,7q1,3 1,3l-1,0l0,1l0,1l1,0l0,0l-13,12q-13,12 -20,21q-8,9 -8,10l0,0l-1,0l0,1l0,0l-1,0l0,0l0,0l0,1l0,0l-1,1l0,1l0,0q-1,0 -1,1l0,0l0,0q0,0 -1,0l0,1l-6,9q-5,8 -6,9l-1,1l0,0l0,0l0,1l0,0l-1,1l-1,1l0,1l0,1l-1,0l0,0l-1,0l-1,0l0,-3l-1,-3l0,-3q0,-2 -2,-8l0,-6l0,-1l0,-1l0,0l0,0l0,-1l0,0l-1,0l0,0l0,-1q1,0 1,-2l1,-2l1,0l0,0l0,-1l0,0l1,-1l1,-1l0,-1l0,-1l1,0l0,-1l0,0l1,0l0,0q0,0 9,-13q9,-12 25,-29z"/>
  <path id="svg_49" fill="#82B36A" fill-rule="evenodd" stroke="#82B36A" stroke-width="1px" d="m93,456l0,2l-5,2q-4,2 -4,2l0,0l-3,1q-2,1 -2,2l0,0l-2,1q-2,2 -3,2l0,0l0,-2q0,-2 1,-4l1,-1l0,0q0,-1 2,-2l1,-1l7,-2q6,-2 6,-1q0,0 1,1z"/>
  <path id="svg_50" fill="#FDFDFD" fill-rule="evenodd" stroke="#FDFDFD" stroke-width="1px" d="m0,362l0,-104l0,0l0,0l28,6q28,6 40,6q11,2 18,2l7,0l0,1l-1,1l0,1l0,1l-1,0l0,0l0,1l-1,0l0,0l0,1l-15,23q-15,24 -20,30q-6,5 -7,6l-1,1l0,0l-1,0l0,0l0,0l0,1l0,0l-1,0l0,1l-1,0l-1,0l0,1l-1,0l0,0l0,1l3,0l3,0l24,-5q25,-5 28,-5q3,-2 4,-2l1,0l1,-1l2,-1l2,0l1,0l0,0l1,0l0,1l0,1l-1,2l-1,1l0,0l0,1l0,0l0,0l-12,26q-12,26 -19,47q-7,21 -8,21q-1,1 -1,2l0,0l-5,8q-5,8 -6,12q-1,4 -2,6l0,1l0,1q-1,0 -1,3l0,3l-1,1l0,1l-27,0l-28,0l0,-104z"/>
  <path id="svg_51" fill="#954D26" fill-rule="evenodd" stroke="#954D26" stroke-width="1px" d="m316,512l2,-2l1,0l1,0l0,0l0,0l0,1l0,0l1,1l1,1l0,0l0,1l0,0l0,0l1,1l1,1l0,0l0,0l0,1l0,0l1,0l0,1l0,0l1,0l0,1l0,1l1,0l0,0l0,1l1,0l0,0l0,1l0,0l1,0l3,6q4,6 4,7l0,1l1,0l0,0l0,1l1,0l0,0l0,1l0,0l0,0l1,1l1,1l0,0l0,0l0,1l1,0l0,1l1,1l0,0l0,1l0,0l0,0l1,1l1,1l0,0l0,0l0,1l0,0l1,1l1,1l0,0l0,1l0,0l0,0l1,1l1,1l0,0l0,0l0,1l1,0l35,51q36,52 39,57q3,5 4,5l0,1l0,0q0,1 1,1l0,0l0,0q0,0 0,1l1,0l12,17q13,18 13,18l0,1l0,0q0,1 0,1l1,0l0,1q1,1 1,3l0,1l-1,1l-1,2l0,2l0,2l0,2l0,2l-1,0l0,0l-1,0l0,0l0,-1l0,0l-1,-1l-1,-1l0,-1l0,-1l-1,0l0,-1l0,0l-1,0l0,0q0,0 -51,-77l-51,-76l0,0l0,-1l0,0l0,0l-1,-1l-1,-1l0,0l0,0l0,0q0,-1 -4,-6l-4,-6l0,-1q0,-1 -6,-9l-6,-9l0,-1q0,-1 -3,-5l-3,-5l0,0l0,0l-1,-1q-1,-1 -2,-3l-1,-1l0,0q1,-1 2,-1z"/>
  <path id="svg_52" fill="#63BAE0" fill-rule="evenodd" stroke="#63BAE0" stroke-width="1px" d="m466,726l2,-3l2,0l2,1l2,0l3,0l0,0q0,0 1,1l0,0l10,2q11,3 11,3l0,0l-3,0l-2,0l2,2q3,1 3,6q-1,5 -3,7q-3,1 -4,7q0,6 0,6l0,0l0,1l0,0l-1,0l0,1l0,0l-1,0l0,1l0,1l0,0l-1,0l-1,-1l-1,-1l-1,0l-1,0l-1,-1q-1,-1 -4,-3q-2,-2 -5,-5q-3,-3 -8,-13l-4,-9l0,-1q1,0 3,-2z"/>
  <path id="svg_53" fill="#D8D397" fill-rule="evenodd" stroke="#D8D397" stroke-width="1px" d="m65,438l5,-8l0,4q0,4 -4,12q-4,9 -5,10q-2,2 -3,1l-1,0l0,-1q1,-2 2,-6q1,-4 6,-12z"/>
  <path id="svg_54" fill="#69A157" fill-rule="evenodd" stroke="#69A157" stroke-width="1px" d="m122,432l0,1l0,0l0,1l0,0l0,0l1,1l0,1l-4,2q-3,3 -4,3l0,1l0,0l-1,0l0,0l0,0l0,1l0,0l-1,0l0,1l-1,0l-1,0l0,0l-1,0l0,-3l0,-3l-1,-2l0,-3l7,-1q6,-1 6,0z"/>
  <path id="svg_55" fill="#E2E0A1" fill-rule="evenodd" stroke="#E2E0A1" stroke-width="1px" d="m114,398l2,0l0,0l0,0l0,1l0,0l-1,0l0,1l1,0q0,0 2,1l2,1l0,0l0,0l1,0l0,0l0,1l1,0l0,0l0,1l0,0l1,0l0,0l0,0l0,1l1,0l0,1l0,1l1,0l0,1l0,0l1,0l0,1l0,1l1,0l0,0l0,1l1,0l0,0l0,1l0,0l1,0l0,1l1,1l0,1l0,1l1,1q1,1 1,3l0,1l1,1l1,1l0,1l0,2l0,1l0,1l0,0l0,1l0,0l-1,0l-1,0l-2,-1l-2,0l-3,0l0,-1q-1,0 -1,-1q-2,-1 -5,-4q-4,-2 -4,-3q-1,-1 -3,-3l-2,-1l0,-1q0,-1 -3,-4q-3,-2 -5,-3l-3,-1l0,0l1,-1l0,0l0,-1l2,0l1,0l1,-1l1,-1l1,0q1,0 2,-4q0,-3 2,-2q1,2 4,2z"/>
  <path id="svg_56" fill="#88CBE3" fill-rule="evenodd" stroke="#88CBE3" stroke-width="1px" d="m213,578l5,-2l4,12q4,12 4,15q0,3 -6,5q-6,2 -8,4q-2,1 -2,1l0,1l-1,0l-1,0l0,1l0,0l-1,0l0,1l-1,0l-1,0l0,1l-1,0l0,0l0,1l0,0l0,0l1,0l0,1l-3,1q-2,2 -6,7q-4,5 -4,6l0,1l-1,0l0,0l0,1l-1,0l0,1l0,1l-1,0l0,0l-3,4q-4,4 -4,7q-2,2 -2,4l0,1l-1,1l-1,1l0,1l0,2l-1,2l-1,1l0,-2l0,-2l-1,-5q-1,-4 -1,-10l0,-5l-1,7l0,7l0,0l-1,0l0,-14l0,-14l0,0q1,-1 2,-3l1,-2l0,0l1,0l0,-2l0,-1l1,0l0,-1l0,0l1,0l0,-1l0,-1l1,-1q1,-1 7,-10q6,-9 14,-15q8,-6 13,-8z"/>
  <path id="svg_57" fill="#EDD89F" fill-rule="evenodd" stroke="#EDD89F" stroke-width="1px" d="m150,528l0,-2l4,11q4,11 4,13l0,2l1,2l1,1l0,1l0,2l2,0l1,0l0,-1l1,0l0,-1l0,-1l-1,-2l-1,-2l0,-1q0,-2 -4,-11l-3,-9l1,0q1,0 4,3q2,3 7,3q5,0 13,-2q8,0 9,-1q1,-1 2,-1l0,0l1,0l1,0l0,1q0,1 -2,3q-3,2 -6,14q-3,11 -4,12l-1,2l0,2l0,2l0,2l0,3l0,0l0,-1l0,0l0,0l1,0l0,0l0,-1l1,0l0,0l0,-1l0,0l0,0l1,0l0,0l0,-1l1,0l0,0l0,-1l0,0l0,0l1,0l0,0l0,-1l1,0l0,0q0,-1 4,-4q4,-4 12,-8l7,-5l1,0l2,0l0,-1l0,0l1,0l0,0l0,0l1,0l0,0l0,1l0,0l0,0l0,1l0,1l0,6q2,6 2,8l0,3l1,3l0,3l1,0l1,0l0,0l0,1l-1,0l0,0l-5,2q-5,2 -13,8q-8,6 -14,15q-6,9 -7,10l-1,1l0,1l0,1l-1,0l0,0l0,1l-1,0l0,1l0,2l-1,0l0,0l0,-7q-1,-7 -1,-6q0,1 -1,-8l-1,-9l0,-4q0,-3 -1,-5q-1,-2 -11,-4q-11,-1 -24,-5q-14,-4 -19,-8q-5,-4 -5,-8q0,-5 2,-8q2,-3 8,-6q6,-4 15,-6q9,-2 11,-4q1,0 2,-2z"/>
  <path id="svg_58" fill="#EDCF70" fill-rule="evenodd" stroke="#EDCF70" stroke-width="1px" d="m213,494l3,-4l0,2q0,2 -1,6l-1,5l0,3l0,3l1,1l1,1l0,0l0,0l-1,3q-1,2 -2,2l0,1l-8,5q-7,6 -8,6q-1,1 -1,1l0,1l0,0l0,0l-1,0l0,0l0,1l-1,0l0,0l0,1l0,0l-1,0l0,0l-1,0l0,0l0,1l0,0l-1,-1l0,0l0,0l0,0l1,-1l0,-1l0,-2l1,-1l1,-1l0,-1q0,-1 2,-5q2,-3 8,-12l6,-10l0,0q0,-1 3,-4z"/>
  <path id="svg_59" fill="#98532D" fill-rule="evenodd" stroke="#98532D" stroke-width="1px" d="m130,462l0,-1l0,0l1,0l1,1q0,2 1,2l0,1l6,17q5,17 6,17l0,0l0,1l1,2l4,13q4,13 5,14l0,1l0,0q0,0 1,1l0,0l3,9q3,8 3,10l0,1l1,2l1,2l0,1l0,1l-1,0l0,1l-1,0l-2,0l0,-2l0,-1l-1,-1l-1,-2l0,-2q0,-2 -4,-13l-4,-11l0,-2q0,-1 -4,-12l-4,-12l0,0q0,-1 -1,-1l0,0l0,-1l-1,-2l0,-2q0,-2 -5,-16l-5,-14l0,-2z"/>
  <path id="svg_60" fill="#E7B579" fill-rule="evenodd" stroke="#E7B579" stroke-width="1px" d="m454,720l0,-2l2,0l1,0l1,5q1,5 2,5q1,0 2,1l1,0l4,9q5,10 8,13q3,3 5,5q3,2 4,3l1,1l1,0l1,0l1,1l1,1l1,0l0,0l0,0l0,0l1,0l0,0l1,1l2,1l2,0l1,0l2,1l2,0l0,0l0,1l-2,0l-2,0l-3,0l-2,0l-7,0q-7,0 -9,-1q-1,-1 -10,-9q-8,-10 -10,-15q-3,-6 -4,-6q-1,0 -1,-1q1,-1 1,-6l1,-6l0,0l1,0l0,-2z"/>
  <path id="svg_61" fill="#FCFBF7" fill-rule="evenodd" stroke="#FCFBF7" stroke-width="1px" d="m138,314l0,0l1,0q1,1 -7,36q-10,34 -12,40q-4,6 -4,7l0,1l-2,0q-3,0 -4,-2q-2,-1 -2,2q-1,4 -2,4l-1,0l-1,1l-1,1l-1,0l-2,0l0,1l0,0l-1,1l0,0l-1,0l-2,0l0,1l0,0l-1,0l0,1l-1,0l-1,0l-1,1l-1,1l-1,0l0,0l0,-2l0,-1l1,-1l1,-2l0,-2q0,-1 8,-21q8,-20 18,-38l8,-18l1,-1q1,-1 1,-2l1,-2l1,0q0,0 0,-1l0,0l0,0q1,-1 1,-1l0,0l1,0q0,0 2,-2l3,-1l1,0q0,-1 0,-1z"/>
  <path id="svg_62" fill="#CA8933" fill-rule="evenodd" stroke="#CA8933" stroke-width="1px" d="m254,428l0,2l0,0l0,0l1,0l0,0l1,1l0,0l0,0q0,1 0,1l1,0l0,0q0,0 1,1l0,0l0,0q0,1 0,1l1,0l0,0q0,0 1,1l0,0l0,0q0,1 0,1l1,0l0,0q0,0 1,1l0,0l0,1q0,0 1,0l0,0l0,1l1,0l0,0l0,1l0,0l0,0l-1,0l0,0l0,1l-1,0l0,0l0,1l0,0l0,0l-1,0q0,0 -1,1q-2,1 -3,-1l-1,-1l0,-1q0,-1 -2,-4l0,-2l-1,-1l-1,-1l0,-2q0,-1 -1,-2q0,-1 1,-1q1,0 2,1z"/>
  <path id="svg_63" fill="#DDA054" fill-rule="evenodd" stroke="#DDA054" stroke-width="1px" d="m164,419l5,-1l2,2q3,1 1,2q-2,2 -2,2l0,1l-5,4q-5,4 -6,4l0,1l-1,0l0,0l0,0q-1,0 -2,-2l-2,-1l0,-1l0,-1l-1,0l0,-1l0,0l-1,0l0,0l0,0l0,-1l0,0l0,0l0,0l1,-1l1,-1l0,0l0,-1l0,0q0,0 3,-2q3,-2 7,-3z"/>
  <path id="svg_64" fill="#F3E3B7" fill-rule="evenodd" stroke="#F3E3B7" stroke-width="1px" d="m126,499l15,0l0,0q0,1 1,1l0,0l4,12q4,11 4,12l0,2l0,2q-1,2 -2,2q-2,2 -11,4q-9,2 -15,6q-6,3 -8,6q-2,3 -2,8q0,4 5,8q5,4 19,8q13,4 24,5q10,2 11,4q1,2 1,5l0,4l-1,12q-1,13 -1,11q0,-2 1,1q1,4 1,8l0,3l0,14l0,14l1,0l0,0l0,6q1,6 1,9l0,4l1,2l1,3l0,0l0,1l0,0l0,0l1,-1l1,-1l0,-1l0,-1l1,-1l1,-1l0,0q0,0 4,-5q4,-5 9,-8q6,-3 15,-3l8,1l0,0q0,1 0,1l1,0l0,0l1,0l0,0l0,0l1,1l1,1l1,0l1,0l1,1l1,1l1,0l1,0l0,-1l0,0l1,-1q1,-1 7,-9q6,-9 12,-16q6,-7 7,-7q1,0 1,-1q0,-1 9,-8q9,-7 22,-15q13,-6 25,-9l11,-3l1,0l1,0l1,0l0,0l1,0l1,0l0,-1l0,-1l1,-1q1,-1 7,-12l6,-11l0,0l0,0l1,0l0,0l0,-1l1,0l0,-1l0,-1l1,0l0,-1l0,0l1,0l0,0l0,0l0,0l0,0l1,1l1,1l0,0l0,0l0,1l0,0l51,76q51,77 51,77l0,0l1,0l0,0l0,1l1,0l0,1l0,1l1,1l1,1l0,0l0,1l0,0l1,0l-1,6q0,5 -1,6q0,1 1,1q1,0 4,6q2,5 10,15q9,8 10,9q2,1 9,1l7,0l2,0l3,0l2,0l2,0l0,-1l0,0l0,0q1,0 6,-1q5,-2 13,-8q8,-6 11,-14l3,-8l0,0l0,-1l0,0l1,-1l0,0l0,0l1,0l0,0l0,-1l0,0l1,3q0,3 17,1q18,-1 39,-7q21,-4 28,-8q7,-4 9,-5q3,-1 4,-2l2,-1l1,0l1,0l0,-1l0,0l1,0l0,-1l0,0l1,0l0,-1l0,-1l-1,0l0,0l0,-1l-1,0l0,0l0,-1l-1,0l-1,0l-1,-1q-1,-1 -5,-3q-3,-2 -8,-4q-4,-1 -4,-2q0,-1 -7,-3q-7,-3 -25,-7q-18,-4 -42,-6q-24,-2 -66,-4q-42,-2 -44,-5q-1,-2 -3,-2l-2,0l0,-1q-1,0 -1,0l0,0l0,0q0,-1 -1,-1l0,0l0,-1q-1,0 -4,-5q-3,-5 -39,-57l-35,-51l0,-1l1,0l0,0l0,0l0,-1l0,0l1,0l0,-1l0,0l1,0l11,-11q11,-11 25,-19q15,-10 22,-12q6,-4 8,-4l1,0l41,4q40,4 43,4l3,0l0,0l0,0l4,1l3,1l33,6q32,6 53,14q21,8 31,14q10,6 30,20q20,14 45,28q25,12 27,13q1,0 2,1q0,0 4,2q4,1 4,2q0,1 6,2q5,2 5,3q0,1 3,2q2,1 22,8q20,7 32,11q11,4 23,9q12,5 43,11q32,8 62,12q29,4 87,11q58,7 131,17q74,10 82,11q9,1 17,2l8,0l0,-4l1,-4l0,0l0,0l0,43l0,42l-632,0l-632,0l0,-144l0,-143l24,-1q23,0 26,-1l4,0l0,1l0,2l-4,30q-4,31 -4,61q0,30 3,53q3,23 3,24l0,2l1,0l0,0l4,0l4,0l3,0l3,0l0,-3q-1,-3 -3,-21q-2,-19 -3,-54q-1,-34 1,-52q2,-18 4,-30l2,-13l22,-1q21,0 36,-1z"/>
  <path id="svg_65" fill="#F2E4BD" fill-rule="evenodd" stroke="#F2E4BD" stroke-width="1px" d="m188,498l22,0l-6,10q-6,9 -8,12q-2,4 -2,5l0,1l-1,1l-1,1l0,2l0,1l-1,1l0,0l0,0q-1,0 -2,1q-1,1 -9,1q-8,2 -12,2q-5,0 -8,-3l-4,-2l0,-1q0,0 -1,0l0,0l0,-1q-1,-1 -5,-14l-4,-13l-1,-2l0,-1l11,0q10,-1 32,-1z"/>
  <path id="svg_66" fill="#C2D344" fill-rule="evenodd" stroke="#C2D344" stroke-width="1px" d="m183,264l1,0l0,0l0,0l10,1q10,1 11,1l0,0l0,0l0,0l1,1l1,1l1,0l2,0l12,5q13,5 21,10q7,5 11,7q3,3 5,6q1,2 2,2l0,1l-2,0q-3,0 -4,1q-1,2 -3,0q-3,0 -6,5q-2,5 -3,5q-1,0 -1,5l0,5l-1,0l0,1l-1,0l0,-1l0,0l0,0l-1,0l0,0l0,-1l-1,0l0,-1l0,-1l-1,0l0,-1l0,0l-1,0l0,0l0,0l0,-1q0,0 -8,-7l-6,-8l-1,0l0,0l0,-1l-1,0l0,0l0,-1l0,0l0,0l-1,0l0,0l0,-1l-1,0l0,0l0,-1l0,0l0,0l-1,0l0,0l0,-1l-1,0l0,-1l0,-1l0,1l0,2l0,0l0,0l0,1l0,0l1,0l0,1l0,0l1,0l0,1l0,1l1,0l0,0l0,1l1,0l8,15q10,14 14,26q4,12 3,26q-1,15 -5,28q-6,13 -13,23q-7,9 -16,19q-9,8 -15,13q-7,5 -8,5l-1,0l-1,1l-1,1l-1,0l-1,0l-1,1l-2,1l0,0l0,0l0,-1l0,-1l0,-1l0,-1l1,0l0,0l0,-1l1,0l0,-1q0,-2 5,-13l5,-11l0,-2l0,-2l0,0q0,0 1,-2q1,-1 3,-24q4,-23 4,-54l0,-30l-1,-2q-1,-3 -1,-5l0,-2l-1,0q0,1 -1,1l0,0l0,-4q0,-5 -4,-12q-4,-7 -7,-10q-3,-3 -3,-4l0,-1l-1,-1l0,-1l1,-1q2,0 2,0l0,0l0,0l1,0l1,-1l1,-1l0,0l1,0l0,0l0,0l-1,-1q-1,0 -2,-2l-1,-3l-1,0l-1,0l0,-1l0,0l1,0l0,-1l0,0zm29,27q0,0 1,0q0,1 -1,1q0,0 0,-1z"/>
  <path id="svg_67" fill="#BAD040" fill-rule="evenodd" stroke="#BAD040" stroke-width="1px" d="m178,230l2,0l2,2q2,2 3,7q2,5 5,7q4,2 9,5q5,3 5,6q2,3 2,5l0,3l-1,1l0,0l0,0q-1,0 -11,-1l-10,-1l0,0l0,0l-1,0l0,0l0,1l-1,0l0,0l0,1l1,0l1,0l0,2q1,1 2,1l2,0l0,1l0,2l-1,0l0,0l-1,1l-1,1l-1,0l0,0l0,-1l0,-1l-1,0l0,0l0,0l0,0l-2,0q-2,0 -3,0l-1,0l-1,1l-1,1l-1,0l-1,0l-1,1l-1,0l0,-5q1,-5 1,-9q0,-4 -1,-5l-1,-1l0,-1q0,0 -1,0l0,0l0,-2q1,-1 2,-2q2,0 0,-6q-2,-7 -3,-7q-1,0 -1,-1l0,-2l0,0l1,0l1,0q2,0 4,-2q2,-2 5,-2z"/>
  <path id="svg_68" fill="#779555" fill-rule="evenodd" stroke="#779555" stroke-width="1px" d="m126,448l1,0l0,0l0,0l1,1l0,0l0,1l0,2l2,3q0,3 1,5l0,1l-1,0l0,0l0,0q0,0 -2,-5q-2,-6 -4,-6q-1,0 -4,3l-4,3l0,0q0,0 -1,0l0,1l-1,0q-1,-1 -1,-1l-1,0l0,-2l0,-3l0,0l1,-1l5,-2q6,-2 6,-1q1,1 2,1z"/>
  <path id="svg_69" fill="#7BB167" fill-rule="evenodd" stroke="#7BB167" stroke-width="1px" d="m165,429l5,-4l0,0q0,0 1,1l0,2l0,0q-1,0 -1,0l0,1l0,0q0,0 -1,1l0,0l-3,5q-4,5 -4,5l0,0l0,0q-1,0 -2,-3l-2,-3l0,0l1,0l0,-1q1,0 6,-4z"/>
  <path id="svg_70" fill="#67C0DF" fill-rule="evenodd" stroke="#67C0DF" stroke-width="1px" d="m412,411l1,0l0,0l1,0l0,0l0,1l1,0l1,0l1,0l1,0l10,3q9,4 9,6l0,2l-1,0q0,1 -10,5q-10,6 -13,9l-3,3l0,0q-1,0 -4,1l-4,1l0,1q0,0 -9,6l-9,6l-2,0q-2,-1 -6,-2q-5,-2 -5,-3q0,-1 -3,-2l-3,0l0,-1l-1,0l0,0l0,1l-1,0l-1,0l0,-1l0,-1l-1,0l-1,0l0,0l0,-1l1,0l0,-1l0,0l1,0l0,0l0,0l0,-1l0,0l1,0l0,-1l0,0l1,0l0,0l0,0l0,-1l0,0l14,-10q14,-11 15,-11q1,0 2,-1l1,0l0,0q1,-1 1,-1l0,0l7,-3q7,-3 8,-4z"/>
  <path id="svg_71" fill="#20AED6" fill-rule="evenodd" stroke="#20AED6" stroke-width="1px" d="m418,485l0,0l3,3q3,2 3,2l0,0l1,1l1,1l0,0l0,0l1,0l0,0l1,1l1,1l0,0l1,0l0,0l0,0l0,1l0,0l1,0l0,1l1,0l1,0l1,0l0,0l0,0l0,0l1,0l0,0l0,2q-1,1 -4,3l-4,1l-4,1l-4,1l0,0l0,0l-1,0q-2,0 -8,4q-7,2 -22,12q-14,8 -25,19l-11,11l-1,0l0,0l0,1l-1,0l0,0l0,1l0,0l0,0l-1,0l0,1l-1,0l0,-1l0,0l0,0l-1,-1l-1,-1l0,0l0,0l0,-1l0,0l-1,-1l-1,-1l0,0l0,-1l0,0l0,0l-1,-1l-1,-1l0,0l0,0l0,-1l0,0l-1,-1l0,-1l0,-1l1,0l0,0l0,0l0,-1l0,0l1,0l0,-1l0,0l1,0l14,-14q15,-14 29,-22q14,-8 23,-12q8,-4 8,-5z"/>
  <path id="svg_72" fill="#CFC859" fill-rule="evenodd" stroke="#CFC859" stroke-width="1px" d="m129,397l0,0l3,0l2,1l1,0l1,0l4,0q5,1 5,2q0,1 4,3q4,1 4,3q0,0 1,1q0,1 1,1l0,1l-1,0q-1,1 -6,1q-5,2 -9,0q-3,-2 -4,0q-1,2 -3,2l-2,0l0,0l0,0l-1,0l0,0l-1,0l0,0l0,-1l0,0l-1,0l0,-1l0,0l-1,0l0,-1l0,-1l-1,0l0,0l0,-1l-1,0l0,-1l0,-1l-1,0l0,-1l0,0l0,0l1,0l0,0l1,-1l1,-1l0,0l0,0l1,0l0,0l1,-1l1,-1l0,0l1,0l0,0l0,0l0,-1l0,0l1,0l0,-1l-1,0q-1,0 -1,-1z"/>
  <path id="svg_73" fill="#A7C83E" fill-rule="evenodd" stroke="#A7C83E" stroke-width="1px" d="m259,299l2,0l6,7q5,6 11,17q6,11 10,25q2,13 3,35q1,22 0,28l0,6l-1,0l-1,0l0,-1l-1,-2l0,-2l0,-1l-1,-2q-1,-2 -3,-9q-2,-7 -10,-24q-8,-17 -21,-36l-12,-19l0,-1l1,0l0,-5q0,-5 1,-5q1,0 3,-5q3,-5 6,-5q2,2 3,0q1,-1 4,-1z"/>
  <path id="svg_74" fill="#F5F8F4" fill-rule="evenodd" stroke="#F5F8F4" stroke-width="1px" d="m130,461l0,0l0,1l0,2l0,1q0,1 -26,1l-25,-1l0,0q0,-1 2,-2l3,-1l0,0q0,0 4,-2l5,-2l7,-1q8,-1 12,0q3,1 3,0l0,0l1,0q0,-1 0,-1l0,0l4,-3q3,-3 4,-3q2,0 4,6q2,5 2,5z"/>
  <path id="svg_75" fill="#A3C63B" fill-rule="evenodd" stroke="#A3C63B" stroke-width="1px" d="m180,292l0,-20l2,0l1,0l0,0l1,0l0,1l0,1l0,0q0,0 -2,0l-1,1l0,1l1,1l0,1q0,1 3,4q3,3 7,10q4,7 4,12l0,4l-2,11q-2,11 -7,21q-5,10 -5,10l0,0l-1,0l0,0l0,1l-1,0l0,0l0,1l0,0l0,0l-1,0l0,1l0,0l-1,0l0,1l0,0l0,0l0,0l-1,0l0,1l-1,0l0,-1l0,0l0,0l-1,-1l0,-1l-1,0l-1,0l0,-2l1,-1l0,-1q0,-2 0,-10q2,-8 4,-18q2,-9 2,-28z"/>
  <path id="svg_76" fill="#ECC14A" fill-rule="evenodd" stroke="#ECC14A" stroke-width="1px" d="m370,406l0,0l7,1q7,1 11,2q5,1 7,2l2,1l-1,2q-1,3 0,3q1,1 1,1l0,0l0,0q-1,0 -1,0l0,1l-1,0q-1,1 -2,1q-1,0 -15,11l-14,10l0,0l0,1l0,0l0,0l-1,0l0,0l0,1l-1,0l0,0l0,1l0,0l0,0l-1,0l0,0l0,1l-1,0l0,1l0,0l-11,11q-11,11 -11,12l0,0l-1,1l0,0l-1,0l0,0l0,0l0,0l-1,-1l-1,-1l0,0l0,0l0,-1l0,0l-1,0l0,-1l0,0l-1,0l0,0q0,0 -8,-8l-8,-8l-1,0l0,0l0,-1l0,0l0,-1l1,0l0,0q0,0 6,-7q7,-7 10,-10q4,-4 10,-7l5,-4l1,0l0,0l1,-1l1,-1l10,-6q10,-6 10,-6z"/>
  <path id="svg_77" fill="#E4A55C" fill-rule="evenodd" stroke="#E4A55C" stroke-width="1px" d="m476,412l1,0l0,0q1,0 1,1l0,1l-8,6q-8,5 -18,16q-10,10 -21,26q-11,16 -11,18q0,1 -1,2l-1,2l0,0l0,0l-2,0q-1,0 -10,-6q-8,-5 -8,-6l0,-1l0,-2q0,-2 6,-15l6,-14l0,0l0,-1l4,-3q4,-4 13,-8q9,-4 9,-5l1,0l17,-6q18,-5 20,-5q2,0 2,0z"/>
  <path id="svg_78" fill="#007fff" fill-rule="evenodd" stroke="#75C5E8" stroke-width="1px" d="m54,500l0,1l-4,0q-3,1 -26,1l-24,1l0,-19l0,-18l28,0l27,0l2,-1q2,-1 3,0q1,0 -2,17q-4,18 -4,18z"/>
  <path id="svg_79" fill="#C7813F" fill-rule="evenodd" stroke="#C7813F" stroke-width="1px" d="m119,438l4,-2l0,0l0,0l0,1l1,0l0,1l0,2l1,2l1,1l0,1l0,2l1,1l0,1l-1,0q-1,0 -2,-1q0,-1 -6,1l-5,2l-1,1l0,0l0,-1q0,0 -1,-2l0,-3l0,-1l0,0l1,0l1,0l0,-1l1,0l0,0l0,-1l0,0l0,0l1,0l0,0l0,-1q1,0 4,-3z"/>
  <path id="svg_80" fill="#179ED0" fill-rule="evenodd" stroke="#179ED0" stroke-width="1px" d="m496,732l-2,-2l2,0l3,0l12,2q12,2 17,2l6,0l-3,8q-3,8 -11,14q-8,6 -13,8q-5,1 -6,1l0,0l-2,0l-2,-1l-1,0l-2,0l-2,-1l-1,-1l0,0l-1,0l0,0l0,0l0,-1l0,-1l1,0l0,0l0,-1l1,0l0,0l0,-1l0,0q0,0 0,-6q1,-6 4,-7q2,-2 3,-7q0,-5 -3,-6z"/>
  <path id="svg_81" fill="#BBD041" fill-rule="evenodd" stroke="#BBD041" stroke-width="1px" d="m168,254l1,0l0,0q0,0 1,1l0,0l1,1q1,1 1,5q0,4 -1,9l0,5l1,0l1,-1l1,0l1,0l1,-1l1,-1l1,0q1,0 3,0l2,0l0,0l0,0l-1,0l-2,0l0,20q0,19 -2,28q-2,10 -4,18q0,8 0,10l0,1l-1,1l0,2l1,0l1,0l0,1q0,1 1,1q1,0 2,-1l1,0l-9,10q-9,9 -22,19q-14,10 -15,10l-1,0l-1,1l-1,1l0,0l0,0l-1,0l0,0l-1,1l-1,1l0,0l-1,0l0,1l0,1l1,0l0,0l1,-1l1,0l0,0q0,1 1,1l1,0l0,1l-1,0l0,0l0,1l0,0l0,0l-1,0l0,0l-1,1l-1,1l0,0l-1,0l0,0l0,0l-1,1l-1,1l0,0l-1,0l-1,0l0,0l0,-1l0,0l-1,0l0,-1l0,0l-1,0l0,0l0,0l-2,0l-2,0l-1,0l-1,0l0,-1l0,-1l1,0l0,0l0,-1l1,0l0,0l0,-1l0,0l0,0l0,-1q0,-1 4,-7q2,-6 12,-40q8,-35 7,-35l-2,0l0,-1q1,-1 1,-4q0,-2 0,-8q2,-5 4,-8q2,-4 3,-12q1,-7 4,-14q3,-6 10,-8q7,-2 8,-4q1,-3 1,-2z"/>
  <path id="svg_82" fill="#0BA3CB" fill-rule="evenodd" stroke="#0BA3CB" stroke-width="1px" d="m409,438l1,0l0,1l0,0l0,1l0,0l-6,14q-6,13 -6,15l0,2l0,0q0,0 -2,1l-1,1l0,-1q0,-1 -7,-5q-7,-5 -7,-6q-1,-2 1,-4l2,-2l9,-6q9,-6 9,-6l0,-1l3,-2q3,-2 4,-2z"/>
  <path id="svg_83" fill="#22B0D8" fill-rule="evenodd" stroke="#22B0D8" stroke-width="1px" d="m173,644l1,-7l0,5q0,6 1,10l1,5l0,2l0,2l1,-1l1,-2l0,-2l0,-1l1,-1l1,-1l0,-1q0,-2 2,-4q0,-3 4,-7l3,-4l0,1l-1,1l0,1l0,1l1,0l1,-1l2,0l1,0l5,-2q5,0 6,-1l1,0l1,0l2,1l3,0l3,0l2,1l1,1l1,0l0,0l0,2l0,1l1,5l0,6l-1,0l-1,0l0,1l0,1l-3,-1q-4,-1 -11,-1q-7,0 -12,4q-5,4 -8,8q-3,4 -3,4l0,0l-1,1l-1,1l0,1l0,1l-1,1l-1,1l0,0l0,0l0,-1l0,0l-1,-3l-1,-2l0,-4q0,-3 -1,-9l0,-6l0,-7z"/>
  <path id="svg_84" fill="#FCFCF8" fill-rule="evenodd" stroke="#FCFCF8" stroke-width="1px" d="m197,307l1,0l0,2q0,2 1,5l1,2l0,30q0,31 -4,54q-2,23 -3,24q-1,2 -1,2l0,0l0,0l0,0l-1,-1l-1,0l0,-1q0,0 -2,-3l-2,-3l0,0q0,-1 -1,-1l0,0l0,-1q-1,0 -1,0l0,0l0,-1l0,0l-1,0l0,-1l0,0l-1,0l0,0l0,0l0,-1l0,0l-1,0q0,-1 -5,-4q-4,-3 -12,-6q-7,-3 -18,-5l-10,0l0,0l0,0l-1,0l-1,0l-2,-1l-3,0l-1,0l-1,1l0,0l-1,0l0,-1l0,-1l1,0l0,0l1,-1l1,-1l0,0l1,0l0,0l0,0l1,-1l1,-1l1,0q1,0 12,-8q11,-8 21,-18l11,-11l1,0q0,-1 0,-1l0,0l0,0q1,0 1,-1l0,0l0,-1l1,0l0,0l0,0l0,-1l0,0l1,0l0,-1l0,0l1,0l0,0q0,0 5,-10q5,-10 7,-21l2,-11l0,0q1,0 1,-1z"/>
 </g>
</svg>