<?xml version="1.0" encoding="iso-8859-1"?>
<!-- Generator: Adobe Illustrator 19.0.0, SVG Export Plug-In . SVG Version: 6.00 Build 0)  -->
<svg version="1.1" id="Capa_1" xmlns="http://www.w3.org/2000/svg" xmlns:xlink="http://www.w3.org/1999/xlink" x="0px" y="0px"
	 viewBox="0 0 511.997 511.997" style="enable-background:new 0 0 511.997 511.997;" xml:space="preserve">
<circle style="fill:#EF677E;" cx="256.001" cy="256.006" r="255.932"/>
<path style="fill:#5EBE52;" d="M7.932,192.93c-24.206,94.701,8.285,193.606,79.81,255.989
	c131.569-27.118,231.213-210.535,252.105-250.533C117.274,140.923,46.066,174.608,7.932,192.93z"/>
<path style="fill:#E6585F;" d="M350.203,18.04C315.395,4.26,279.375-1.352,244.259,0.281c27.574,1.262,55.412,7.03,82.515,17.759
	C458.197,70.068,522.56,218.785,470.531,350.208c-38.249,96.615-128.752,156.985-226.224,161.517
	c106.135,4.858,208.354-57.196,249.653-161.517C545.988,218.785,481.626,70.068,350.203,18.04z"/>
<path style="fill:#FFB700;" d="M350.203,18.04C310.024,2.134,268.23-2.876,228.076,1.566
	c51.155,32.086,81.434,78.115,111.769,196.819c14.605-11.098,90.903-50.419,114.33-104.371
	C427.466,61.277,392.28,34.698,350.203,18.04z"/>
<path style="fill:#FFA600;" d="M438.285,76.292c-0.022-0.023-0.046-0.046-0.068-0.068c-1.752-1.778-3.533-3.53-5.341-5.259
	c-0.144-0.138-0.286-0.276-0.431-0.414c-0.918-0.874-1.841-1.742-2.773-2.604c-0.026-0.024-0.054-0.049-0.081-0.073
	c-1.735-1.602-3.498-3.179-5.282-4.737c-0.364-0.318-0.728-0.636-1.094-0.951c-2.638-2.277-5.329-4.503-8.072-6.679
	c-0.57-0.452-1.143-0.903-1.718-1.351c-1.032-0.804-2.07-1.601-3.116-2.391c-0.886-0.669-1.774-1.335-2.671-1.994
	c-0.72-0.529-1.446-1.052-2.173-1.575c-0.826-0.594-1.657-1.181-2.492-1.765c-0.877-0.614-1.758-1.224-2.644-1.829
	c-1.032-0.704-2.069-1.401-3.113-2.09c-0.636-0.42-1.272-0.836-1.912-1.25c-1.26-0.816-2.527-1.624-3.806-2.419
	c-0.554-0.345-1.112-0.685-1.67-1.026c-1.167-0.714-2.342-1.421-3.524-2.118c-0.539-0.318-1.078-0.637-1.62-0.95
	c-1.504-0.872-3.016-1.733-4.543-2.577c-0.425-0.234-0.854-0.463-1.279-0.697c-1.317-0.718-2.643-1.427-3.978-2.125
	c-0.422-0.221-0.842-0.444-1.266-0.663c-1.623-0.837-3.259-1.658-4.907-2.465c-0.416-0.204-0.833-0.403-1.251-0.604
	c-1.509-0.728-3.026-1.444-4.554-2.145c-0.263-0.12-0.524-0.244-0.787-0.365c-1.73-0.786-3.476-1.552-5.231-2.304
	c-0.419-0.179-0.839-0.357-1.259-0.535c-1.795-0.758-3.598-1.504-5.418-2.225c-0.004-0.002-0.008-0.003-0.011-0.005
	c-0.003-0.001-0.006-0.002-0.009-0.004c-1.974-0.781-3.952-1.528-5.934-2.257c-0.316-0.116-0.632-0.235-0.947-0.349
	c-1.887-0.686-3.775-1.345-5.668-1.983c-0.384-0.129-0.769-0.258-1.154-0.386c-1.891-0.628-3.782-1.237-5.678-1.818
	c-0.316-0.097-0.632-0.189-0.947-0.284c-1.824-0.552-3.65-1.085-5.478-1.593c-0.218-0.061-0.435-0.125-0.653-0.185
	c-1.882-0.52-3.768-1.008-5.654-1.482c-0.454-0.114-0.909-0.23-1.364-0.341c-1.8-0.442-3.601-0.862-5.402-1.263
	c-0.516-0.115-1.034-0.226-1.55-0.338c-1.793-0.387-3.586-0.76-5.379-1.107c-0.462-0.09-0.925-0.171-1.387-0.258
	c-1.518-0.285-3.038-0.555-4.556-0.812c-0.521-0.088-1.04-0.181-1.561-0.266c-1.692-0.275-3.384-0.527-5.076-0.767
	c-0.678-0.097-1.358-0.193-2.036-0.283c-1.624-0.217-3.246-0.419-4.87-0.604c-0.733-0.084-1.468-0.16-2.201-0.237
	c-1.307-0.138-2.614-0.265-3.921-0.382c-1.008-0.091-2.017-0.173-3.025-0.252c-1.129-0.088-2.256-0.168-3.384-0.24
	c-0.917-0.059-1.833-0.117-2.749-0.166c-1.375-0.073-2.749-0.133-4.123-0.184c-0.921-0.035-1.842-0.064-2.762-0.088
	c-1.285-0.034-2.57-0.057-3.854-0.071c-1.098-0.012-2.195-0.014-3.291-0.012c-0.829,0.001-1.658,0.009-2.488,0.018
	c-1.544,0.018-3.087,0.051-4.63,0.097c-0.748,0.022-1.495,0.046-2.243,0.075c-0.592,0.022-1.183,0.05-1.774,0.076
	c27.511,1.28,55.282,7.044,82.322,17.748c49.547,19.615,89.556,52.977,117.398,93.97c3.915-5.793,7.312-11.797,10.004-17.996
	c-2.503-3.067-5.08-6.081-7.73-9.037c-0.004-0.004-0.007-0.008-0.01-0.012C443.791,82.016,441.073,79.124,438.285,76.292z"/>
<path style="fill:#B6E4EA;" d="M493.96,350.208c10.166-25.68,15.869-52.019,17.515-78.169
	c-49.299-30.485-146.764-69.083-171.631-73.654c18.781,31.541,96.298,153.426,41.783,280.582
	C430.982,451.199,471.492,406.964,493.96,350.208z"/>
<path style="fill:#96D7EE;" d="M488.532,259.015c-0.351,30.397-6.144,61.243-18.001,91.193
	c-17.534,44.29-46.054,80.957-81.188,108.126c-2.21,6.853-4.757,13.735-7.715,20.633c20.002-11.254,38.55-25.214,55.035-41.614
	c0.117-0.117,0.233-0.235,0.351-0.352c1.113-1.112,2.217-2.235,3.311-3.37c0.183-0.191,0.366-0.382,0.549-0.573
	c1.026-1.07,2.042-2.149,3.051-3.238c0.219-0.236,0.437-0.473,0.655-0.71c0.974-1.06,1.939-2.131,2.897-3.21
	c0.228-0.257,0.456-0.513,0.684-0.771c0.949-1.078,1.889-2.167,2.821-3.263c0.219-0.257,0.439-0.512,0.657-0.771
	c0.953-1.13,1.896-2.271,2.831-3.42c0.183-0.225,0.369-0.447,0.551-0.673c1.01-1.25,2.01-2.512,2.999-3.784
	c0.097-0.124,0.196-0.247,0.291-0.371c3.294-4.253,6.466-8.626,9.508-13.117c0.161-0.237,0.318-0.48,0.478-0.718
	c0.82-1.22,1.634-2.447,2.435-3.683c0.279-0.432,0.553-0.869,0.83-1.303c0.673-1.054,1.344-2.112,2.003-3.178
	c0.325-0.526,0.645-1.056,0.966-1.585c0.599-0.985,1.195-1.972,1.782-2.967c0.345-0.585,0.686-1.173,1.026-1.761
	c0.552-0.953,1.1-1.911,1.642-2.875c0.349-0.621,0.695-1.245,1.04-1.87c0.52-0.943,1.034-1.891,1.542-2.842
	c0.345-0.647,0.69-1.294,1.031-1.945c0.496-0.948,0.986-1.902,1.472-2.859c0.334-0.658,0.669-1.316,0.998-1.978
	c0.481-0.967,0.951-1.942,1.421-2.916c0.318-0.661,0.639-1.32,0.951-1.984c0.475-1.008,0.938-2.025,1.402-3.043
	c0.29-0.638,0.586-1.272,0.871-1.914c0.5-1.122,0.986-2.256,1.472-3.39c0.233-0.544,0.473-1.082,0.702-1.628
	c0.708-1.684,1.402-3.378,2.077-5.084c0.001-0.003,0.002-0.005,0.003-0.007c0.735-1.858,1.44-3.721,2.13-5.585
	c0.222-0.601,0.436-1.203,0.653-1.805c0.464-1.285,0.918-2.571,1.361-3.859c0.237-0.69,0.473-1.38,0.703-2.071
	c0.423-1.265,0.831-2.532,1.233-3.8c0.204-0.644,0.415-1.287,0.613-1.931c0.545-1.766,1.07-3.535,1.574-5.305
	c0.228-0.803,0.441-1.606,0.661-2.41c0.284-1.033,0.565-2.067,0.835-3.102c0.256-0.98,0.502-1.96,0.746-2.941
	c0.207-0.831,0.407-1.663,0.605-2.496c0.256-1.078,0.51-2.155,0.752-3.234c0.134-0.6,0.259-1.201,0.389-1.802
	c0.911-4.214,1.716-8.433,2.407-12.656c0.053-0.323,0.107-0.647,0.159-0.97c0.233-1.46,0.455-2.919,0.662-4.379
	c0.024-0.169,0.047-0.338,0.07-0.507c0.902-6.44,1.554-12.881,1.959-19.309C504.646,267.816,496.889,263.438,488.532,259.015z"/>
<circle style="fill:#F7F5F5;" cx="343.746" cy="195.52" r="58.368"/>
<g>
</g>
<g>
</g>
<g>
</g>
<g>
</g>
<g>
</g>
<g>
</g>
<g>
</g>
<g>
</g>
<g>
</g>
<g>
</g>
<g>
</g>
<g>
</g>
<g>
</g>
<g>
</g>
<g>
</g>
</svg>
