<?xml version="1.0" encoding="iso-8859-1"?>
<!-- Generator: Adobe Illustrator 19.0.0, SVG Export Plug-In . SVG Version: 6.00 Build 0)  -->
<svg version="1.1" id="Capa_1" xmlns="http://www.w3.org/2000/svg" xmlns:xlink="http://www.w3.org/1999/xlink" x="0px" y="0px"
	 viewBox="0 0 512.001 512.001" style="enable-background:new 0 0 512.001 512.001;" xml:space="preserve">
<path style="fill:#5EBE52;" d="M257.022,0c-37.551,0-68.101,30.55-68.101,68.101s30.55,68.101,68.101,68.101
	s68.101-30.55,68.101-68.101S294.572,0,257.022,0z M257.022,93.035c-13.749,0-24.935-11.185-24.935-24.935
	c0-13.748,11.185-24.935,24.935-24.935c13.749,0,24.935,11.186,24.935,24.935C281.956,81.85,270.771,93.035,257.022,93.035z"/>
<path style="fill:#00935C;" d="M257.022,0c-3.47,0-6.879,0.264-10.211,0.767C279.534,5.709,304.7,34.02,304.7,68.101
	s-25.165,62.391-57.889,67.334c3.332,0.503,6.741,0.767,10.211,0.767c37.551,0,68.101-30.55,68.101-68.101S294.572,0,257.022,0z"/>
<path style="fill:#5EBE52;" d="M410.816,138.241C369.463,96.889,314.482,74.115,256,74.115c-50.096,0-99.063,17.354-137.884,48.864
	c-46.214,36.493-81.059,109.6-81.059,170.079c0,58.482,22.774,113.463,64.127,154.816C142.538,489.226,197.519,512,256,512
	s113.463-22.774,154.815-64.126c41.353-41.352,64.127-96.335,64.127-154.816S452.169,179.595,410.816,138.241z"/>
<path style="fill:#00935C;" d="M410.816,138.241C369.463,96.889,314.482,74.115,256,74.115c-3.382,0-6.758,0.086-10.126,0.243
	c54.616,2.512,105.603,24.967,144.519,63.883c41.353,41.352,64.127,96.335,64.127,154.816s-22.774,113.463-64.127,154.816
	c-38.936,38.936-89.957,61.395-144.604,63.887c3.391,0.154,6.795,0.24,10.211,0.24c58.483,0,113.463-22.774,154.815-64.126
	c41.353-41.352,64.127-96.335,64.127-154.816C474.943,234.576,452.169,179.595,410.816,138.241z"/>
<path style="fill:#F7F5F5;" d="M256.001,106.231c-103.017,0-186.826,83.809-186.826,186.826
	c0,103.016,83.809,186.825,186.826,186.825s186.826-83.809,186.826-186.825C442.827,190.041,359.017,106.231,256.001,106.231z"/>
<path style="fill:#EF677E;" d="M343.693,202.243c-2.398-2.397-6.08-2.933-9.058-1.321l-106.806,57.747
	c-1.31,0.709-2.385,1.784-3.094,3.094l-57.748,106.805c-1.61,2.979-1.073,6.663,1.321,9.057c1.473,1.473,3.433,2.243,5.418,2.243
	c1.243,0,2.494-0.302,3.64-0.922l106.806-57.748c1.31-0.709,2.385-1.784,3.094-3.094l57.748-106.805
	C346.625,208.322,346.088,204.638,343.693,202.243z"/>
<path style="fill:#E6585F;" d="M343.693,202.243c-0.848-0.848-1.859-1.449-2.941-1.819c-0.114,0.928-0.38,1.847-0.843,2.707
	l-57.748,106.805c-0.709,1.311-1.784,2.385-3.094,3.094L172.26,370.779c-1.147,0.62-2.399,0.922-3.64,0.922
	c-0.843,0-1.679-0.147-2.477-0.42c-0.28,2.289,0.464,4.643,2.166,6.346c1.473,1.473,3.433,2.243,5.418,2.243
	c1.243,0,2.494-0.302,3.64-0.922l106.806-57.748c1.31-0.709,2.385-1.784,3.094-3.094l57.748-106.805
	C346.625,208.322,346.088,204.638,343.693,202.243z"/>
<g>
	<path style="fill:#A9A9A9;" d="M256.001,149.14c-4.231,0-7.658-3.429-7.658-7.658v-12.632c0-4.229,3.428-7.658,7.658-7.658
		c4.23,0,7.658,3.429,7.658,7.658v12.632C263.659,145.711,260.231,149.14,256.001,149.14z"/>
	<path style="fill:#A9A9A9;" d="M363.181,193.535c-1.96,0-3.92-0.747-5.416-2.243c-2.991-2.991-2.991-7.84,0-10.83l8.933-8.933
		c2.992-2.991,7.84-2.991,10.831,0c2.991,2.991,2.991,7.84,0,10.83l-8.933,8.933C367.101,192.788,365.141,193.535,363.181,193.535z"
		/>
	<path style="fill:#A9A9A9;" d="M420.209,300.716h-12.631c-4.23,0-7.658-3.429-7.658-7.658c0-4.229,3.428-7.658,7.658-7.658h12.631
		c4.23,0,7.658,3.429,7.658,7.658C427.867,297.287,424.438,300.716,420.209,300.716z"/>
	<path style="fill:#A9A9A9;" d="M372.114,416.829c-1.96,0-3.92-0.747-5.415-2.243l-8.933-8.933
		c-2.992-2.991-2.992-7.839-0.001-10.83c2.992-2.991,7.841-2.992,10.83,0l8.933,8.933c2.992,2.991,2.992,7.839,0.001,10.83
		C376.034,416.081,374.074,416.829,372.114,416.829z"/>
	<path style="fill:#A9A9A9;" d="M256.001,464.924c-4.231,0-7.658-3.429-7.658-7.658v-12.632c0-4.229,3.428-7.658,7.658-7.658
		c4.23,0,7.658,3.429,7.658,7.658v12.632C263.659,461.495,260.231,464.924,256.001,464.924z"/>
	<path style="fill:#A9A9A9;" d="M139.887,416.829c-1.961,0-3.92-0.747-5.416-2.243c-2.991-2.991-2.991-7.84,0.001-10.83l8.933-8.933
		c2.99-2.992,7.839-2.991,10.83,0s2.991,7.84-0.001,10.83l-8.933,8.933C143.807,416.081,141.846,416.829,139.887,416.829z"/>
	<path style="fill:#A9A9A9;" d="M104.425,300.716H91.792c-4.23,0-7.658-3.429-7.658-7.658c0-4.229,3.428-7.658,7.658-7.658h12.633
		c4.23,0,7.658,3.429,7.658,7.658C112.084,297.287,108.655,300.716,104.425,300.716z"/>
	<path style="fill:#A9A9A9;" d="M148.82,193.535c-1.96,0-3.92-0.747-5.416-2.243l-8.933-8.933c-2.991-2.991-2.991-7.84,0-10.83
		c2.992-2.991,7.84-2.991,10.831,0l8.933,8.933c2.991,2.991,2.991,7.84,0,10.83C152.74,192.788,150.779,193.535,148.82,193.535z"/>
</g>
<path style="fill:#40A2E1;" d="M266.619,306.508c-1.898,0-3.8-0.701-5.282-2.114l-23.016-21.93
	c-3.062-2.917-3.179-7.765-0.261-10.828c2.916-3.061,7.765-3.18,10.828-0.261l23.016,21.93c3.062,2.917,3.179,7.765,0.261,10.827
	C270.661,305.712,268.642,306.508,266.619,306.508z"/>
<g>
</g>
<g>
</g>
<g>
</g>
<g>
</g>
<g>
</g>
<g>
</g>
<g>
</g>
<g>
</g>
<g>
</g>
<g>
</g>
<g>
</g>
<g>
</g>
<g>
</g>
<g>
</g>
<g>
</g>
</svg>
