<?xml version="1.0" encoding="iso-8859-1"?>
<!-- Generator: Adobe Illustrator 19.0.0, SVG Export Plug-In . SVG Version: 6.00 Build 0)  -->
<svg version="1.1" id="Capa_1" xmlns="http://www.w3.org/2000/svg" xmlns:xlink="http://www.w3.org/1999/xlink" x="0px" y="0px"
	 viewBox="0 0 512 512" style="enable-background:new 0 0 512 512;" xml:space="preserve">
<path style="fill:#FFA600;" d="M229.388,217.864c-14.303-51.83-28.433-85.142-31.711-92.595V50.228
	C197.676,22.532,175.144,0,147.449,0S97.223,22.532,97.223,50.228v75.3c-4.155,11.29-33.654,92.854-51.235,179.589
	c-0.015,0.074-0.028,0.147-0.041,0.221c-8.43,48.839-12.704,97.652-12.704,145.081c0,1.19,0.274,2.362,0.8,3.425
	c0.521,1.053,13.173,25.801,49.428,25.801c12.858,0,18.938,6.148,26.635,13.932c8.537,8.633,18.213,18.418,37.344,18.418
	c19.132,0,28.808-9.785,37.345-18.418c7.697-7.784,13.777-13.931,26.635-13.931c36.254,0,48.907-24.747,49.428-25.801
	c0.526-1.063,0.8-2.236,0.8-3.425C261.657,354.856,244.109,271.207,229.388,217.864z"/>
<g>
	<path style="fill:#FF902C;" d="M229.388,217.864c-15.974-57.888-31.745-92.704-32.408-94.158c-0.281-0.616-0.648-1.169-1.063-1.675
		H172.69c0.415,0.506,0.783,1.059,1.063,1.675c0.663,1.454,16.434,36.271,32.408,94.158
		c14.721,53.344,32.269,136.992,32.269,232.555c0,1.19-0.274,2.362-0.8,3.425c-0.521,1.054-13.174,25.801-49.428,25.801
		c-12.858,0-18.938,6.148-26.635,13.931c-6.608,6.682-13.902,14.052-25.732,17.042c3.454,0.873,7.29,1.376,11.613,1.376
		c19.132,0,28.808-9.785,37.345-18.418c7.697-7.784,13.777-13.931,26.635-13.931c36.254,0,48.907-24.747,49.428-25.801
		c0.526-1.063,0.8-2.236,0.8-3.425C261.657,354.856,244.109,271.207,229.388,217.864z"/>
	<path style="fill:#FF902C;" d="M147.449,466.175c-4.183,0-7.574-3.391-7.574-7.574V213.344c0-4.183,3.391-7.574,7.574-7.574
		s7.574,3.391,7.574,7.574v245.258C155.023,462.784,151.632,466.175,147.449,466.175z"/>
</g>
<path style="fill:#606673;" d="M146.48,0.009C118.981,0.53,97.223,23.566,97.223,51.07v115.565c0,27.53,21.779,50.612,49.304,51.109
	c28.115,0.507,51.149-22.217,51.149-50.219V50.228C197.676,22.209,174.616-0.524,146.48,0.009z"/>
<rect x="97.225" y="59.424" style="fill:#D2D2D2;" width="100.457" height="62.609"/>
<rect x="97.225" y="84.674" style="fill:#606673;" width="100.457" height="12.118"/>
<path style="fill:#FFA600;" d="M477.957,58.107c-0.521-1.052-13.173-25.779-49.428-25.779c-12.858,0-18.938-6.143-26.635-13.92
	c-8.537-8.625-18.213-18.402-37.344-18.402c-19.132,0-28.808,9.776-37.345,18.402c-7.697,7.777-13.777,13.919-26.635,13.919
	c-36.254,0-48.907,24.725-49.428,25.779c-0.526,1.062-0.8,2.234-0.8,3.422c0,95.48,17.548,179.056,32.269,232.354
	c14.303,51.785,28.432,85.068,31.711,92.516v75.375c0,27.695,22.532,50.227,50.227,50.227c27.695,0,50.226-22.532,50.226-50.227
	v-75.634c4.155-11.279,33.654-92.773,51.235-179.434c0.015-0.074,0.028-0.147,0.041-0.221c8.43-48.797,12.705-97.567,12.705-144.956
	C478.757,60.341,478.483,59.17,477.957,58.107z"/>
<g>
	<path style="fill:#FF902C;" d="M477.957,58.107c-0.521-1.052-13.173-25.779-49.428-25.779c-12.858,0-18.938-6.143-26.635-13.92
		c-8.537-8.625-18.213-18.402-37.344-18.402c-4.33,0-8.155,0.521-11.613,1.397c11.819,2.991,19.127,10.332,25.732,17.005
		c7.698,7.778,13.777,13.92,26.635,13.92c36.255,0,48.908,24.726,49.428,25.779c0.526,1.062,0.8,2.234,0.8,3.422
		c0,47.389-4.275,96.158-12.705,144.955c-0.013,0.074-0.026,0.147-0.041,0.221c-18.85,92.913-51.403,179.899-51.73,180.767
		c-0.302,0.802-0.732,1.526-1.253,2.161h23.226c0.522-0.635,0.951-1.358,1.253-2.161c0.326-0.867,32.88-87.855,51.73-180.767
		c0.015-0.074,0.028-0.147,0.041-0.221c8.43-48.797,12.705-97.567,12.705-144.955C478.757,60.341,478.483,59.17,477.957,58.107z"/>
	<path style="fill:#FF902C;" d="M364.549,45.825c4.183,0,7.574,3.391,7.574,7.574v245.258c0,4.183-3.391,7.574-7.574,7.574
		s-7.574-3.391-7.574-7.574V53.398C356.976,49.216,360.366,45.825,364.549,45.825z"/>
</g>
<path style="fill:#606673;" d="M365.519,511.991c27.498-0.521,49.257-23.557,49.257-51.061V345.317
	c0-27.503-21.759-50.538-49.257-51.061c-28.138-0.533-51.197,22.2-51.197,50.218v117.298
	C314.322,489.791,337.381,512.524,365.519,511.991z"/>
<rect x="314.326" y="389.962" style="fill:#D2D2D2;" width="100.457" height="62.609"/>
<rect x="314.326" y="415.208" style="fill:#606673;" width="100.457" height="12.118"/>
<g>
</g>
<g>
</g>
<g>
</g>
<g>
</g>
<g>
</g>
<g>
</g>
<g>
</g>
<g>
</g>
<g>
</g>
<g>
</g>
<g>
</g>
<g>
</g>
<g>
</g>
<g>
</g>
<g>
</g>
</svg>
