<?xml version="1.0" encoding="iso-8859-1"?>
<!-- Generator: Adobe Illustrator 19.0.0, SVG Export Plug-In . SVG Version: 6.00 Build 0)  -->
<svg version="1.1" id="Capa_1" xmlns="http://www.w3.org/2000/svg" xmlns:xlink="http://www.w3.org/1999/xlink" x="0px" y="0px"
	 viewBox="0 0 512 512" style="enable-background:new 0 0 512 512;" xml:space="preserve">
<path style="fill:#FFCA00;" d="M426.68,304.073c-15.027-14.009-34.623-21.724-55.179-21.724c-1.067,0-8.662,0.47-10.001,0.635
	c-0.002,0-0.004,0-0.005,0.001l0,0c-16.844,2.082-32.608,9.375-45.172,21.089c-12.888,12.016-21.395,27.701-24.475,44.82
	L373,367.748l58.142-18.855h20.013C448.075,331.774,439.569,316.089,426.68,304.073z"/>
<path style="fill:#FFB700;" d="M426.68,304.073c-15.027-14.009-34.623-21.724-55.179-21.724c-1.067,0-8.662,0.47-10.001,0.635
	c-0.002,0-0.004,0-0.005,0.001l0,0c-0.462,0.057-0.919,0.133-1.379,0.198c16.239,2.337,31.4,9.55,43.565,20.891
	c12.889,12.016,21.395,27.701,24.475,44.82h2.987h20.013C448.075,331.774,439.569,316.089,426.68,304.073z"/>
<polygon style="fill:#B6E4EA;" points="451.155,348.893 431.142,348.893 291.847,348.893 0,348.893 0,482.581 512,482.581 
	512,348.893 "/>
<g>
	<path style="fill:#FFCA00;" d="M371.269,266.283c-4.142,0-7.5-3.358-7.5-7.5v-18.369c0-4.142,3.358-7.5,7.5-7.5s7.5,3.358,7.5,7.5
		v18.369C378.769,262.925,375.411,266.283,371.269,266.283z"/>
	<path style="fill:#FFCA00;" d="M414.302,275.141c-1.088,0-2.194-0.238-3.241-0.741c-3.734-1.793-5.307-6.273-3.515-10.007
		l7.951-16.559c1.793-3.734,6.272-5.307,10.007-3.515c3.734,1.793,5.308,6.273,3.515,10.007l-7.951,16.559
		C419.778,273.573,417.096,275.141,414.302,275.141z"/>
	<path style="fill:#FFCA00;" d="M449.276,301.752c-2.199,0-4.376-0.962-5.858-2.811c-2.59-3.232-2.069-7.953,1.164-10.542
		l14.335-11.485c3.233-2.59,7.953-2.069,10.543,1.164c2.59,3.232,2.069,7.953-1.164,10.543l-14.335,11.485
		C452.578,301.213,450.921,301.752,449.276,301.752z"/>
	<path style="fill:#FFCA00;" d="M469.266,340.878c-3.412,0-6.496-2.342-7.3-5.808c-0.935-4.035,1.577-8.065,5.612-9l17.894-4.149
		c4.034-0.936,8.064,1.577,9,5.612c0.935,4.035-1.577,8.065-5.612,9l-17.894,4.149C470.397,340.814,469.827,340.878,469.266,340.878
		z"/>
	<path style="fill:#FFCA00;" d="M332.365,275.141c-2.794,0-5.476-1.568-6.767-4.255l-7.951-16.559
		c-1.792-3.734-0.219-8.214,3.515-10.007c3.732-1.793,8.214-0.219,10.007,3.515l7.951,16.559c1.793,3.734,0.219,8.214-3.515,10.007
		C334.56,274.903,333.454,275.141,332.365,275.141z"/>
	<path style="fill:#FFCA00;" d="M297.391,301.752c-1.645,0-3.301-0.539-4.685-1.647l-14.335-11.485
		c-3.232-2.59-3.753-7.31-1.164-10.543c2.59-3.232,7.31-3.754,10.543-1.164l14.335,11.485c3.232,2.59,3.753,7.31,1.164,10.542
		C301.767,300.79,299.589,301.752,297.391,301.752z"/>
	<path style="fill:#FFCA00;" d="M277.401,340.878c-0.561,0-1.13-0.063-1.7-0.195l-17.894-4.149c-4.035-0.936-6.548-4.965-5.612-9
		c0.936-4.034,4.963-6.547,9-5.612l17.894,4.149c4.035,0.936,6.548,4.965,5.612,9C283.897,338.535,280.812,340.878,277.401,340.878z
		"/>
</g>
<g>
	<path style="fill:#F7F5F5;" d="M308.995,406.576h-21.333c-4.142,0-7.5-3.358-7.5-7.5s3.358-7.5,7.5-7.5h21.333
		c4.142,0,7.5,3.358,7.5,7.5S313.137,406.576,308.995,406.576z"/>
	<path style="fill:#F7F5F5;" d="M480,449.581h-21.334c-4.142,0-7.5-3.358-7.5-7.5s3.358-7.5,7.5-7.5H480c4.142,0,7.5,3.358,7.5,7.5
		S484.142,449.581,480,449.581z"/>
	<path style="fill:#F7F5F5;" d="M42.328,395.909H20.994c-4.142,0-7.5-3.358-7.5-7.5s3.358-7.5,7.5-7.5h21.333
		c4.142,0,7.5,3.358,7.5,7.5S46.47,395.909,42.328,395.909z"/>
	<path style="fill:#F7F5F5;" d="M490.328,406.576h-128c-4.142,0-7.5-3.358-7.5-7.5s3.358-7.5,7.5-7.5h128c4.142,0,7.5,3.358,7.5,7.5
		S494.47,406.576,490.328,406.576z"/>
	<path style="fill:#F7F5F5;" d="M415.661,449.243h-85.333c-4.142,0-7.5-3.358-7.5-7.5s3.358-7.5,7.5-7.5h85.333
		c4.142,0,7.5,3.358,7.5,7.5S419.804,449.243,415.661,449.243z"/>
</g>
<path style="fill:#B65607;" d="M190.125,374.998l-7.625-68.417l-0.017-67.746c-0.152-2.805-2.544-52.711-3.009-62.41h-49.042
	c-0.102,0.444-0.177,0.9-0.202,1.372l-9.845,197.325L190.125,374.998z"/>
<path style="fill:#99382A;" d="M160,363.785c10.001,0,19.851,0.913,29.409,2.688l-6.926-127.639
	c-0.152-2.805-2.544-52.711-3.009-62.41h-19.806v187.363C159.779,363.788,159.889,363.785,160,363.785z"/>
<path style="fill:#FF902C;" d="M154.732,363.855c1.742-0.046,3.497-0.07,5.268-0.07c-0.111,0-0.221,0.003-0.332,0.003
	C158.01,363.791,156.366,363.815,154.732,363.855z"/>
<path style="fill:#FFDB2D;" d="M254.105,395.769c-18.187-14.783-40.509-24.804-64.696-29.296
	c-9.559-1.775-19.408-2.688-29.409-2.688c-1.771,0-3.526,0.025-5.268,0.07c-0.094,0.002-0.187,0.007-0.281,0.009
	c-1.655,0.043-3.294,0.109-4.924,0.191c-0.039,0.002-0.079,0.003-0.118,0.005c0.006,0,0.012,0.001,0.018,0.001
	c-10.29,0.52-20.074,1.805-29.296,3.856c-9.111,2.026-17.684,4.787-25.658,8.289c-24.109,10.589-43.028,27.929-56.231,51.542
	c-8.048,13.849-12.603,38.389-13.559,54.999h250.614h20.013C293.488,453.118,278.943,415.958,254.105,395.769z"/>
<path style="fill:#FFCA00;" d="M254.105,395.769c-18.187-14.783-40.509-24.804-64.696-29.296
	c-9.559-1.775-19.408-2.688-29.409-2.688c-1.771,0-3.526,0.025-5.268,0.07c-0.094,0.002-0.187,0.007-0.281,0.009
	c-1.655,0.043-3.294,0.109-4.924,0.191c-0.039,0.002-0.079,0.003-0.118,0.005c0.006,0,0.012,0.001,0.018,0.001
	c-0.507,0.026-1.008,0.062-1.513,0.091c6.258,0.419,12.436,1.196,18.495,2.321c24.187,4.492,46.509,14.513,64.696,29.296
	c24.837,20.188,39.382,57.349,41.204,86.979h2.987h20.013C293.488,453.118,278.943,415.958,254.105,395.769z"/>
<g>
	<path style="fill:#8E2618;" d="M150.518,251.691h-27.211c-4.142,0-7.5-3.358-7.5-7.5s3.358-7.5,7.5-7.5h27.211
		c4.142,0,7.5,3.358,7.5,7.5S154.66,251.691,150.518,251.691z"/>
	<path style="fill:#8E2618;" d="M188.476,301.652h-27.21c-4.142,0-7.5-3.358-7.5-7.5s3.358-7.5,7.5-7.5h27.21
		c4.142,0,7.5,3.358,7.5,7.5C195.976,298.294,192.618,301.652,188.476,301.652z"/>
	<path style="fill:#8E2618;" d="M147.585,337.024h-27.21c-4.142,0-7.5-3.358-7.5-7.5s3.358-7.5,7.5-7.5h27.21
		c4.142,0,7.5,3.358,7.5,7.5S151.727,337.024,147.585,337.024z"/>
</g>
<path style="fill:#5EBE52;" d="M239.504,116.588c-4.209-1.152-8.457-2.011-12.709-2.607l1.76-1.063
	c2.219-1.34,3.59-3.732,3.623-6.325l0.107-8.377l8.047,3.73c2.263,1.049,4.898,0.904,7.031-0.384L300.8,69.294
	c2.033-1.228,3.365-3.346,3.59-5.71c0.225-2.365-0.684-4.696-2.449-6.285c-24.814-22.334-65.607-23.765-99.201-3.482
	c-16.518,9.974-29.426,24.015-37.136,39.976c-6.583-17.651-19.067-33.765-35.661-45.606c-33.011-23.555-75.15-25.313-102.476-4.271
	c-1.882,1.449-2.966,3.704-2.923,6.079s1.209,4.589,3.142,5.968l52.672,37.586c2.031,1.448,4.646,1.794,6.981,0.92l9.009-3.365
	l-0.581,9.089c-0.165,2.587,1.018,5.077,3.128,6.583l18.595,13.269c-14.053-2.062-29.008-0.919-43.333,3.514
	c-37.486,11.6-63.544,43.019-63.367,76.405c0.012,2.375,1.15,4.604,3.065,6.008c1.278,0.938,2.803,1.434,4.35,1.451
	c0.771,0.009,1.548-0.101,2.302-0.335l59.635-18.454c2.382-0.737,4.241-2.609,4.962-4.995l2.566-8.49l6.328,5.491
	c1.959,1.7,4.658,2.266,7.133,1.5c0,0,29.47-5.371,29.537-5.392c6.847-2.119,44.995-1.388,49-0.333l34.882-0.368
	c2.483,0.653,5.127-0.008,7.009-1.754l6.143-5.697l2.844,8.402c0.8,2.361,2.72,4.171,5.124,4.829l60.21,16.477
	c0.625,0.171,1.26,0.258,1.894,0.266c1.69,0.019,3.359-0.534,4.718-1.601c1.868-1.467,2.931-3.732,2.865-6.106
	C304.434,157.488,277.354,126.946,239.504,116.588z"/>
<g style="opacity:0.83;">
	<path style="fill:#478F3E;" d="M169.131,134.579c0.556-0.605,1.215-1.133,1.98-1.542c19.751-10.564,44.637-12.913,68.279-6.443
		c35.292,9.658,61.211,36.867,65.302,67.555c0.46-1.019,0.697-2.139,0.665-3.287c-0.923-33.374-28.003-63.916-65.852-74.274
		c-23.642-6.47-48.528-4.121-68.279,6.443c-3.653,1.953-5.03,6.498-3.077,10.151C168.425,133.698,168.762,134.157,169.131,134.579z"
		/>
</g>
<g style="opacity:0.83;">
	<path style="fill:#478F3E;" d="M74.043,133.565c22.946-7.101,47.508-5.762,67.388,3.672c1.882,0.893,3.211,2.469,3.849,4.29
		l3.377-5.174c-0.941-0.531-1.905-1.035-2.878-1.527c0.339-3.088-1.269-6.187-4.234-7.594c-19.88-9.434-44.442-10.773-67.388-3.672
		c-37.486,11.6-63.544,43.019-63.367,76.405c0.004,0.743,0.13,1.468,0.344,2.162C14.694,171.758,39.51,144.251,74.043,133.565z"/>
</g>
<path style="opacity:0.83;fill:#478F3E;enable-background:new    ;" d="M202.74,53.818c-16.518,9.974-29.426,24.015-37.136,39.976
	c-6.583-17.652-19.067-33.765-35.661-45.606c-33.011-23.555-75.15-25.313-102.476-4.271c-1.139,0.877-1.979,2.051-2.46,3.366
	c27.328-18.265,67.272-15.702,98.865,6.841c18.158,12.957,31.392,31.031,37.36,50.636c-0.741,2.334-1.379,4.694-1.898,7.078
	c-0.882,4.047,1.685,8.043,5.732,8.924c0.896,0.195,1.786,0.212,2.643,0.089c-0.357-1.182-0.43-2.467-0.148-3.758
	c0.196-0.898,0.413-1.792,0.64-2.684c1.111-1.448,1.694-3.29,1.524-5.215c6.622-20.118,21.304-38.082,41.243-50.121
	c28.334-17.108,61.79-18.767,86.46-5.467C272.378,34.88,234.37,34.72,202.74,53.818z"/>
<g>
	<path style="fill:#FFA600;" d="M178.411,138.084c-13.803-0.158-25.161,10.944-25.318,24.747
		c-0.158,13.803,10.944,25.161,24.747,25.319s25.161-10.944,25.319-24.747C203.316,149.6,192.214,138.242,178.411,138.084z"/>
	<path style="fill:#FFA600;" d="M138.288,137.626c-13.803-0.158-25.161,10.944-25.319,24.747
		c-0.158,13.803,10.944,25.161,24.747,25.319s25.161-10.944,25.319-24.747C163.193,149.142,152.092,137.784,138.288,137.626z"/>
</g>
<g>
	<path style="fill:#FF902C;" d="M138.288,137.626c-1.712-0.02-3.386,0.135-5.005,0.445c11.389,2.454,19.891,12.668,19.753,24.759
		c-0.138,12.092-8.871,22.109-20.313,24.302c1.612,0.347,3.282,0.54,4.994,0.56c13.803,0.158,25.161-10.944,25.319-24.747
		C163.193,149.142,152.092,137.784,138.288,137.626z"/>
	<path style="fill:#FF902C;" d="M178.411,138.084c-1.712-0.02-3.386,0.135-5.005,0.445c11.389,2.454,19.891,12.668,19.753,24.759
		c-0.138,12.092-8.871,22.109-20.313,24.302c1.612,0.347,3.282,0.54,4.994,0.56c13.803,0.158,25.161-10.944,25.319-24.747
		C203.316,149.6,192.214,138.242,178.411,138.084z"/>
</g>
<path style="fill:#FFA600;" d="M155.005,102.745c-13.803-0.158-25.161,10.944-25.319,24.747s10.944,25.161,24.747,25.319
	s25.161-10.944,25.319-24.747C179.91,114.261,168.808,102.903,155.005,102.745z"/>
<path style="fill:#FF902C;" d="M155.005,102.745c-1.712-0.02-3.386,0.135-5.005,0.445c11.389,2.453,19.891,12.668,19.753,24.759
	c-0.138,12.092-8.871,22.109-20.314,24.302c1.612,0.347,3.282,0.54,4.994,0.56c13.803,0.158,25.161-10.944,25.319-24.747
	C179.91,114.261,168.808,102.903,155.005,102.745z"/>
<g>
</g>
<g>
</g>
<g>
</g>
<g>
</g>
<g>
</g>
<g>
</g>
<g>
</g>
<g>
</g>
<g>
</g>
<g>
</g>
<g>
</g>
<g>
</g>
<g>
</g>
<g>
</g>
<g>
</g>
</svg>
