<?xml version="1.0" encoding="iso-8859-1"?>
<!-- Generator: Adobe Illustrator 19.0.0, SVG Export Plug-In . SVG Version: 6.00 Build 0)  -->
<svg version="1.1" id="Capa_1" xmlns="http://www.w3.org/2000/svg" xmlns:xlink="http://www.w3.org/1999/xlink" x="0px" y="0px"
	 viewBox="0 0 512.001 512.001" style="enable-background:new 0 0 512.001 512.001;" xml:space="preserve">
<path style="fill:#FFDB2D;" d="M509.975,263.402c-1.434-1.544-3.448-2.422-5.555-2.422H390.679v-22.493
	c0-34.509-14.061-65.9-36.934-89.099c-0.738-0.748-1.485-1.488-2.241-2.22c-1.512-1.463-3.059-2.89-4.642-4.281
	c-2.374-2.087-4.825-4.092-7.35-6.013c-2.525-1.919-5.122-3.754-7.787-5.496c-0.888-0.581-1.785-1.152-2.689-1.713
	c-1.807-1.122-3.644-2.202-5.508-3.24c-1.865-1.038-3.759-2.035-5.678-2.987c-3.84-1.905-7.787-3.635-11.83-5.18
	c-3.032-1.158-6.119-2.212-9.254-3.158c-3.136-0.945-6.321-1.782-9.549-2.505c-9.688-2.168-19.776-3.314-30.135-3.314
	c-4.599,0-10.606,0.445-17.357,1.419c-3,0.433-6.147,0.971-9.381,1.621c-1.617,0.325-3.258,0.678-4.911,1.06
	c-14.062,3.247-29.189,8.589-40.897,16.601c-0.09,0.062-0.179,0.125-0.266,0.19c-0.467,0.184-0.921,0.418-1.357,0.702
	c-6.422,4.184-12.288,8.525-17.616,13.053c-5.327,4.528-10.115,9.243-14.381,14.176c-1.706,1.973-3.329,3.981-4.87,6.026
	c-1.54,2.045-2.999,4.127-4.375,6.247s-2.671,4.279-3.887,6.48c-5.468,9.9-9.31,20.624-11.624,32.354
	c-0.514,2.607-0.954,5.263-1.318,7.97c-0.182,1.353-0.347,2.721-0.491,4.1c-0.581,5.519-0.868,11.249-0.868,17.204l0,0v22.493H7.581
	c-2.107,0-4.121,0.877-5.555,2.422c-1.434,1.544-2.161,3.616-2.005,5.719c3.725,50.283,78.309,101.982,145.274,121.046
	c0.033,0.009,0.066,0.018,0.099,0.027c32.077,8.662,66.189,12.526,110.606,12.526c65.859,0,128.346-13.399,175.951-37.73
	c48.877-24.981,77.299-59.027,80.03-95.87C512.136,267.019,511.409,264.946,509.975,263.402z"/>
<path style="fill:#FFCA00;" d="M257.08,109.283c-3.101,0-6.843,0.203-11.021,0.634c67.477,6.448,120.363,61.647,120.363,128.57
	v26.539c0,4.186-3.393,7.58-7.58,7.58h24.257c4.187,0,7.58-3.394,7.58-7.58v-26.539C390.679,167.244,330.746,109.283,257.08,109.283
	z"/>
<path style="fill:#F996B1;" d="M124.37,223.61c-0.587,4.957-0.89,9.96-0.89,14.877v26.539c0,4.186,3.394,7.58,7.58,7.58h252.039
	c4.187,0,7.58-3.394,7.58-7.58v-26.539c0-4.921-0.302-9.924-0.89-14.877L124.37,223.61L124.37,223.61z"/>
<path style="fill:#F28598;" d="M389.789,223.61h-23.246c0.588,4.952,0.89,9.954,0.89,14.877v26.539c0,4.186-3.393,7.58-7.58,7.58
	h23.246c4.187,0,7.58-3.394,7.58-7.58v-26.539C390.679,233.566,390.377,228.563,389.789,223.61z"/>
<path style="fill:#FFDB2D;" d="M509.975,263.402c-1.434-1.544-3.448-2.422-5.555-2.422H7.581c-2.107,0-4.121,0.877-5.555,2.422
	c-1.434,1.544-2.161,3.616-2.005,5.719c3.725,50.283,78.309,101.982,145.274,121.046c0.033,0.009,0.066,0.018,0.099,0.027
	c32.077,8.662,66.189,12.526,110.606,12.526c65.859,0,128.346-13.399,175.951-37.73c48.877-24.981,77.299-59.027,80.03-95.87
	C512.136,267.019,511.409,264.946,509.975,263.402z"/>
<path style="fill:#FFCA00;" d="M509.975,263.402c-1.434-1.544-3.448-2.422-5.555-2.422h-23.246c2.107,0,4.121,0.877,5.555,2.422
	c1.434,1.544,2.161,3.616,2.004,5.719c-2.73,36.842-31.152,70.889-80.03,95.87c-45.121,23.061-103.615,36.293-165.674,37.612
	c4.228,0.078,8.546,0.117,12.969,0.117c65.859,0,128.346-13.399,175.951-37.73c48.877-24.981,77.299-59.027,80.03-95.87
	C512.136,267.019,511.409,264.946,509.975,263.402z"/>
<path style="fill:#F996B1;" d="M130.27,260.754c-0.001,0.054-0.008,0.105-0.008,0.16v60.806c0,2.992,1.76,5.703,4.491,6.922
	c0.992,0.443,2.044,0.658,3.089,0.658c1.833,0,3.645-0.665,5.064-1.938l13.084-11.737l13.796,11.845
	c2.247,1.929,5.412,2.375,8.103,1.137c2.691-1.236,4.416-3.927,4.416-6.888v-60.806c0-0.054-0.007-0.106-0.008-0.16H130.27z"/>
<path style="fill:#F28598;" d="M171.177,260.754c0.001,0.054,0.008,0.105,0.008,0.16v60.806c0,1.965-0.771,3.798-2.067,5.179
	l0.667,0.572c2.247,1.929,5.412,2.375,8.103,1.137c2.691-1.236,4.416-3.927,4.416-6.888v-60.806c0-0.054-0.007-0.106-0.008-0.16
	H171.177z"/>
<g>
</g>
<g>
</g>
<g>
</g>
<g>
</g>
<g>
</g>
<g>
</g>
<g>
</g>
<g>
</g>
<g>
</g>
<g>
</g>
<g>
</g>
<g>
</g>
<g>
</g>
<g>
</g>
<g>
</g>
</svg>
