<?xml version="1.0" encoding="iso-8859-1"?>
<!-- Generator: Adobe Illustrator 19.0.0, SVG Export Plug-In . SVG Version: 6.00 Build 0)  -->
<svg version="1.1" id="Capa_1" xmlns="http://www.w3.org/2000/svg" xmlns:xlink="http://www.w3.org/1999/xlink" x="0px" y="0px"
	 viewBox="0 0 512 512" style="enable-background:new 0 0 512 512;" xml:space="preserve">
<path style="fill:#B6E4EA;" d="M374.893,152.548c-2.042-0.735-4.232-1.156-6.524-1.156H139.081c-2.164,0-4.238,0.372-6.182,1.031
	c-7.644,2.587-13.169,9.814-13.169,18.32v47.624c0,7.299,4.065,13.664,10.048,16.959l18.717,155.933
	c0.117,4.765,1.903,9.094,4.754,12.407L250,421.079l104.201-17.414c2.851-3.313,4.637-7.642,4.754-12.407l18.718-155.934
	c5.982-3.295,10.047-9.659,10.047-16.958v-47.624C387.72,162.365,382.358,155.234,374.893,152.548z"/>
<path style="fill:#FFDB2D;" d="M368.369,151.393c2.292,0,4.482,0.421,6.524,1.156c3.953-9.248,4.832-17.075,4.832-27.484
	c0-39.155-31.855-71.011-71.011-71.011c-22.052,0-42.773,10.346-56.119,27.528c-8.141-6.933-18.603-10.887-29.453-10.887
	c-25.008,0-45.354,20.346-45.354,45.353c0,0.508,0.009,1.016,0.025,1.524c-0.273-0.005-0.548-0.007-0.822-0.007
	c-21.392,0-39.344,14.898-44.093,34.858c1.944-0.658,4.018-1.031,6.182-1.031l115.586,27.354L368.369,151.393z"/>
<path style="fill:#FFCA00;" d="M308.715,54.055c-3.88,0-7.717,0.327-11.482,0.948c33.695,5.521,59.493,34.829,59.493,70.062
	c0,9.971-0.815,17.576-4.358,26.328h16.001c2.292,0,4.482,0.421,6.524,1.156c3.953-9.248,4.832-17.075,4.832-27.484
	C379.726,85.91,347.87,54.055,308.715,54.055z"/>
<path style="fill:#93D6F4;" d="M368.369,237.717h-13.983L335.955,391.26c-0.117,4.765-3.104,13.174-5.955,16.487l24.201-4.08
	c2.851-3.313,4.637-7.642,4.754-12.407l18.718-155.934C374.91,236.848,371.74,237.717,368.369,237.717z"/>
<path style="fill:#4BBAED;" d="M374.893,152.548c-2.042-0.735-4.232-1.156-6.524-1.156H139.081c-2.164,0-4.238,0.372-6.182,1.031
	c-7.644,2.587-13.169,9.814-13.169,18.32v47.624c0,7.299,4.065,13.664,10.048,16.959c2.763,1.522,5.932,2.392,9.303,2.392h229.288
	c3.371,0,6.541-0.87,9.304-2.392c5.982-3.295,10.047-9.659,10.047-16.958v-47.624C387.72,162.365,382.358,155.234,374.893,152.548z"
	/>
<path style="fill:#40A2E1;" d="M374.893,152.548c-2.042-0.735-4.232-1.156-6.524-1.156h-23c2.292,0,4.482,0.421,6.524,1.156
	c7.465,2.686,12.826,9.817,12.826,18.194v47.624c0,7.299-4.065,13.663-10.047,16.958c-2.763,1.522-5.933,2.392-9.304,2.392h23
	c3.371,0,6.541-0.87,9.304-2.392c5.982-3.295,10.047-9.659,10.047-16.958v-47.624C387.72,162.365,382.358,155.234,374.893,152.548z"
	/>
<path style="fill:#F7F5F5;" d="M253.726,312.588c-56.854,0-103.107-46.253-103.107-103.106c0-4.142,3.357-7.5,7.5-7.5
	s7.5,3.358,7.5,7.5c0,48.582,39.525,88.106,88.107,88.106c48.581,0,88.105-39.524,88.105-88.106c0-4.142,3.357-7.5,7.5-7.5
	s7.5,3.358,7.5,7.5C356.831,266.335,310.578,312.588,253.726,312.588z"/>
<path style="fill:#F8E7C7;" d="M491.263,403.579l-0.027-24.765c-0.03-26.911-20.059-49.204-45.981-52.835l-0.102-93.297
	c0-0.158-0.014-0.313-0.024-0.468c16.456-3.475,28.838-18.116,28.819-35.587c-0.001-1.094-0.057-2.237-0.167-3.398
	c-0.364-3.855-3.603-6.8-7.475-6.795l-57.406,0.063c-3.869,0.004-7.1,2.951-7.459,6.804c-0.108,1.161-0.162,2.307-0.161,3.407
	c0.019,17.472,12.434,32.086,28.897,35.524c-0.009,0.156-0.023,0.311-0.023,0.469l0.102,93.297
	c-25.914,3.687-45.894,26.025-45.865,52.936l0.027,24.648l53.082,15.5L491.263,403.579z M416.828,201.488l41.581-0.046
	c-2.172,9.463-10.658,16.547-20.772,16.558C427.522,218.01,419.021,210.945,416.828,201.488z"/>
<g>
	<path style="fill:#F3D7A2;" d="M461.6,403.579v-3.76c0-4.142-3.357-7.5-7.5-7.5s-7.5,3.358-7.5,7.5v3.76H461.6z"/>
	<path style="fill:#F3D7A2;" d="M431.83,403.579v-20.097c0-4.142-3.357-7.5-7.5-7.5s-7.5,3.358-7.5,7.5v20.097L431.83,403.579
		L431.83,403.579z"/>
</g>
<path style="fill:#F8E7C7;" d="M67.207,366.589c-19.986,3.011-36.135,17.863-41.071,37.158l7.531,6l8.177-6
	c4.167-10.985,13.685-19.357,25.361-21.907v21.907l7.462,4.333l7.538-4.333v-21.908c11.678,2.549,21.197,10.922,25.365,21.908
	l6.43,4.667l9.278-4.667c-4.936-19.295-21.085-34.148-41.071-37.158v-86.157c0-0.004-0.001-0.009-0.001-0.014
	c15.303-3.43,26.774-17.114,26.774-33.436c0-1.037-0.05-2.082-0.152-3.197c-0.356-3.859-3.594-6.812-7.469-6.812H48.056
	c-3.872,0-7.107,2.947-7.468,6.803c-0.103,1.114-0.154,2.162-0.154,3.206c0,16.321,11.472,30.005,26.774,33.436
	c0,0.005-0.001,0.009-0.001,0.014V366.589z M56.089,251.973h37.236c-2.204,8.215-9.716,14.281-18.618,14.281
	S58.293,260.189,56.089,251.973z"/>
<path style="fill:#FFDB2D;" d="M101.376,18.586c-26.826,0-48.651,21.824-48.651,48.65s21.825,48.65,48.651,48.65
	c26.825,0,48.649-21.824,48.649-48.65S128.201,18.586,101.376,18.586z"/>
<path style="fill:#FFCA00;" d="M101.376,18.586c-3.962,0-7.811,0.487-11.5,1.385c21.292,5.182,37.15,24.401,37.15,47.265
	s-15.858,42.083-37.15,47.265c3.69,0.898,7.538,1.385,11.5,1.385c26.825,0,48.649-21.824,48.649-48.65
	S128.201,18.586,101.376,18.586z"/>
<g>
	<path style="fill:#F7F5F5;" d="M158.119,174.008c-11.329,0-20.546,9.217-20.546,20.547c0,11.329,9.217,20.546,20.546,20.546
		s20.547-9.217,20.547-20.546C178.666,183.225,169.448,174.008,158.119,174.008z"/>
	<path style="fill:#F7F5F5;" d="M349.331,174.008c-11.329,0-20.547,9.217-20.547,20.547c0,11.329,9.218,20.546,20.547,20.546
		s20.547-9.217,20.547-20.546C369.878,183.225,360.66,174.008,349.331,174.008z"/>
</g>
<polygon style="fill:#F3D7A2;" points="123.72,403.625 108.232,403.625 82.205,403.625 67.205,403.625 41.182,403.625 
	25.694,403.625 0,403.625 0,493.414 512,493.414 512,403.625 "/>
<g>
	<path style="fill:#EFC47F;" d="M51.842,465.288H41.768c-4.143,0-7.5-3.358-7.5-7.5s3.357-7.5,7.5-7.5h10.074
		c4.143,0,7.5,3.358,7.5,7.5C59.342,461.93,55.984,465.288,51.842,465.288z"/>
	<path style="fill:#EFC47F;" d="M101.375,444.302H91.303c-4.142,0-7.5-3.358-7.5-7.5s3.358-7.5,7.5-7.5h10.072
		c4.143,0,7.5,3.358,7.5,7.5S105.518,444.302,101.375,444.302z"/>
	<path style="fill:#EFC47F;" d="M156.439,465.288h-10.074c-4.143,0-7.5-3.358-7.5-7.5s3.357-7.5,7.5-7.5h10.074
		c4.143,0,7.5,3.358,7.5,7.5S160.582,465.288,156.439,465.288z"/>
	<path style="fill:#EFC47F;" d="M205.973,444.302H195.9c-4.143,0-7.5-3.358-7.5-7.5s3.357-7.5,7.5-7.5h10.072
		c4.143,0,7.5,3.358,7.5,7.5S210.115,444.302,205.973,444.302z"/>
	<path style="fill:#EFC47F;" d="M261.037,465.288h-10.074c-4.143,0-7.5-3.358-7.5-7.5s3.357-7.5,7.5-7.5h10.074
		c4.143,0,7.5,3.358,7.5,7.5S265.18,465.288,261.037,465.288z"/>
	<path style="fill:#EFC47F;" d="M310.57,444.302h-10.072c-4.142,0-7.5-3.358-7.5-7.5s3.358-7.5,7.5-7.5h10.072
		c4.143,0,7.5,3.358,7.5,7.5S314.713,444.302,310.57,444.302z"/>
	<path style="fill:#EFC47F;" d="M365.635,465.288H355.56c-4.142,0-7.5-3.358-7.5-7.5s3.358-7.5,7.5-7.5h10.074
		c4.143,0,7.5,3.358,7.5,7.5C373.135,461.93,369.777,465.288,365.635,465.288z"/>
	<path style="fill:#EFC47F;" d="M415.168,444.302h-10.072c-4.143,0-7.5-3.358-7.5-7.5s3.357-7.5,7.5-7.5h10.072
		c4.142,0,7.5,3.358,7.5,7.5S419.31,444.302,415.168,444.302z"/>
	<path style="fill:#EFC47F;" d="M470.232,465.288h-10.074c-4.143,0-7.5-3.358-7.5-7.5s3.357-7.5,7.5-7.5h10.074
		c4.143,0,7.5,3.358,7.5,7.5S474.375,465.288,470.232,465.288z"/>
</g>
<g>
</g>
<g>
</g>
<g>
</g>
<g>
</g>
<g>
</g>
<g>
</g>
<g>
</g>
<g>
</g>
<g>
</g>
<g>
</g>
<g>
</g>
<g>
</g>
<g>
</g>
<g>
</g>
<g>
</g>
</svg>
