<?xml version="1.0" encoding="iso-8859-1"?>
<!-- Generator: Adobe Illustrator 19.0.0, SVG Export Plug-In . SVG Version: 6.00 Build 0)  -->
<svg version="1.1" id="Capa_1" xmlns="http://www.w3.org/2000/svg" xmlns:xlink="http://www.w3.org/1999/xlink" x="0px" y="0px"
	 viewBox="0 0 512 512" style="enable-background:new 0 0 512 512;" xml:space="preserve">
<path style="fill:#FFDB2D;" d="M442.044,426.883c0.08-0.432,0.124-20.877,0.124-21.333v-240.6c0-4.142-3.357-7.5-7.5-7.5h-42.666
	c-4.143,0-7.5,3.358-7.5,7.5v24.5h-6.334v-24.5c0-4.142-3.357-7.5-7.5-7.5h-43l20,249.433L442.044,426.883z"/>
<path style="fill:#FFCA00;" d="M434.668,157.45h-23c4.143,0,7.5,3.358,7.5,7.5v240.6c0,0.456-0.044,0.901-0.124,1.333h23
	c0.08-0.432,0.124-0.877,0.124-1.333v-240.6C442.168,160.808,438.811,157.45,434.668,157.45z"/>
<path style="fill:#B64A07;" d="M381.668,238.05h10c10.201,0,18.5,8.299,18.5,18.5v42c0,10.201-8.299,18.5-18.5,18.5h-10
	c-10.201,0-18.5-8.299-18.5-18.5v-42C363.168,246.349,371.467,238.05,381.668,238.05z"/>
<path style="fill:#99382A;" d="M391.668,238.05h-10c-1.734,0-3.407,0.257-5,0.705c7.776,2.189,13.5,9.328,13.5,17.795v42
	c0,8.467-5.724,15.606-13.5,17.794c1.593,0.448,3.266,0.706,5,0.706h10c10.201,0,18.5-8.299,18.5-18.5v-42
	C410.168,246.349,401.869,238.05,391.668,238.05z"/>
<path style="fill:#EF706B;" d="M327.255,41.849c-0.391-1.01-0.98-1.892-1.71-2.614c-0.709-0.704-1.567-1.275-2.547-1.658
	c-0.189-0.074-0.38-0.14-0.573-0.199l-60.399-19.117c0.302,0.895-7.108,27.11-7.108,28.121l7.584,24.327l59.928-18.968
	c0.177-0.053,0.352-0.113,0.522-0.18c1.021-0.391,1.91-0.984,2.638-1.72c0.709-0.713,1.282-1.579,1.665-2.568
	c0.332-0.855,0.51-1.773,0.51-2.713c0,0,0,0,0-0.001v0.001C327.764,43.622,327.587,42.704,327.255,41.849z"/>
<path style="fill:#EF677E;" d="M247.5,65.217c0,0.004,0.001,0.008,0.001,0.013v-0.1C247.501,65.158,247.5,65.188,247.5,65.217z"/>
<path style="fill:#8E2618;" d="M262.501,88.716V21.131c0-1.01-0.173-1.974-0.476-2.869c-1.06-3.139-3.801-5.379-7.024-5.379
	c-4.143,0-7.5,3.693-7.5,8.248v87.585L262.501,88.716z"/>
<path style="fill:#FFDB2D;" d="M428.919,9.451c-27.662,0-50.167,22.505-50.167,50.167s22.505,50.167,50.167,50.167
	s50.167-22.505,50.167-50.167S456.581,9.451,428.919,9.451z"/>
<path style="fill:#FFCA00;" d="M428.919,9.451c-3.958,0-7.804,0.475-11.5,1.345c22.136,5.214,38.667,25.117,38.667,48.822
	c0,23.704-16.531,43.607-38.667,48.821c3.696,0.87,7.542,1.346,11.5,1.346c27.662,0,50.167-22.505,50.167-50.167
	S456.581,9.451,428.919,9.451z"/>
<path style="fill:#FFDB2D;" d="M162.334,406.883l30-249.433h-54.666c-4.143,0-7.5,3.358-7.5,7.5v24.5h-6.334v-24.5
	c0-4.142-3.357-7.5-7.5-7.5H73.668c-4.143,0-7.5,3.358-7.5,7.5v240.6c0,0.456,0.044,20.901,0.124,21.333L162.334,406.883z"/>
<rect x="139.33" y="157.45" style="fill:#FFCA00;" width="23" height="249.43"/>
<path style="fill:#FFDB2D;" d="M347.71,406.883c0.08-0.432,0.124-0.877,0.124-1.333V96.216c0-4.142-3.357-7.5-7.5-7.5h-42.666
	c-4.143,0-7.5,3.358-7.5,7.5v24.5h-6.334v-24.5c0-4.142-3.357-7.5-7.5-7.5h-42.666c-4.143,0-7.5,3.358-7.5,7.5v24.5h-6.334v-24.5
	c0-4.142-3.357-7.5-7.5-7.5h-42.666c-4.143,0-7.5,3.358-7.5,7.5v309.334c0,0.456,0.044,30.901,0.124,31.333L347.71,406.883z"/>
<path style="fill:#FFCA00;" d="M340.334,88.716h-23c4.143,0,7.5,3.358,7.5,7.5v309.334c0,0.456-0.044,0.901-0.124,1.333h23
	c0.08-0.432,0.124-0.877,0.124-1.333V96.216C347.834,92.074,344.477,88.716,340.334,88.716z"/>
<path style="fill:#B64A07;" d="M228.001,163.383h-10c-10.201,0-18.5,8.299-18.5,18.5v42c0,10.201,8.299,18.5,18.5,18.5h10
	c10.201,0,18.5-8.299,18.5-18.5v-42C246.501,171.682,238.202,163.383,228.001,163.383z"/>
<path style="fill:#99382A;" d="M228.001,163.383h-10c-1.734,0-3.407,0.257-5,0.705c7.776,2.189,13.5,9.328,13.5,17.795v42
	c0,8.467-5.724,15.606-13.5,17.795c1.593,0.448,3.266,0.705,5,0.705h10c10.201,0,18.5-8.299,18.5-18.5v-42
	C246.501,171.682,238.202,163.383,228.001,163.383z"/>
<path style="fill:#B64A07;" d="M292.001,163.383h-10c-10.201,0-18.5,8.299-18.5,18.5v42c0,10.201,8.299,18.5,18.5,18.5h10
	c10.201,0,18.5-8.299,18.5-18.5v-42C310.501,171.682,302.202,163.383,292.001,163.383z"/>
<path style="fill:#99382A;" d="M292.001,163.383h-10c-1.734,0-3.407,0.257-5,0.705c7.776,2.189,13.5,9.328,13.5,17.795v42
	c0,8.467-5.724,15.606-13.5,17.795c1.593,0.448,3.266,0.705,5,0.705h10c10.201,0,18.5-8.299,18.5-18.5v-42
	C310.501,171.682,302.202,163.383,292.001,163.383z"/>
<path style="fill:#B64A07;" d="M118.668,238.05h-10c-10.201,0-18.5,8.299-18.5,18.5v42c0,10.201,8.299,18.5,18.5,18.5h10
	c10.201,0,18.5-8.299,18.5-18.5v-42C137.168,246.349,128.869,238.05,118.668,238.05z"/>
<path style="fill:#99382A;" d="M118.668,238.05h-10c-1.734,0-3.407,0.257-5,0.705c7.776,2.189,13.5,9.328,13.5,17.795v42
	c0,8.467-5.724,15.606-13.5,17.794c1.593,0.448,3.266,0.706,5,0.706h10c10.201,0,18.5-8.299,18.5-18.5v-42
	C137.168,246.349,128.869,238.05,118.668,238.05z"/>
<path style="fill:#B64A07;" d="M314.926,406.883c0.575-1.059,0.909-2.268,0.909-3.558V280.883c0-10.201-8.299-18.5-18.5-18.5
	h-84.667c-10.201,0-18.5,8.299-18.5,18.5v122.442c0,1.29,0.334,2.499,0.909,3.558L314.926,406.883L314.926,406.883z"/>
<g>
	<path style="fill:#8E2618;" d="M229.001,406.549v-112c0-3.038-2.462-5.5-5.5-5.5s-5.5,2.462-5.5,5.5v112H229.001z"/>
	<path style="fill:#8E2618;" d="M259,406.549v-112c0-3.038-2.462-5.5-5.5-5.5s-5.5,2.462-5.5,5.5v112H259z"/>
	<path style="fill:#8E2618;" d="M288.999,406.549v-112c0-3.038-2.462-5.5-5.5-5.5s-5.5,2.462-5.5,5.5v112H288.999z"/>
</g>
<rect y="406.549" style="fill:#F3D7A2;" width="512" height="96"/>
<g>
	<path style="fill:#EFC47F;" d="M52.741,467.383H42.667c-4.143,0-7.5-3.358-7.5-7.5s3.357-7.5,7.5-7.5h10.074
		c4.143,0,7.5,3.358,7.5,7.5S56.884,467.383,52.741,467.383z"/>
	<path style="fill:#EFC47F;" d="M102.274,446.397H92.202c-4.143,0-7.5-3.358-7.5-7.5s3.357-7.5,7.5-7.5h10.072
		c4.143,0,7.5,3.358,7.5,7.5S106.417,446.397,102.274,446.397z"/>
	<path style="fill:#EFC47F;" d="M157.339,467.383h-10.074c-4.143,0-7.5-3.358-7.5-7.5s3.357-7.5,7.5-7.5h10.074
		c4.143,0,7.5,3.358,7.5,7.5S161.482,467.383,157.339,467.383z"/>
	<path style="fill:#EFC47F;" d="M206.872,446.397H196.8c-4.143,0-7.5-3.358-7.5-7.5s3.357-7.5,7.5-7.5h10.072
		c4.143,0,7.5,3.358,7.5,7.5C214.372,443.039,211.015,446.397,206.872,446.397z"/>
	<path style="fill:#EFC47F;" d="M261.936,467.383h-10.074c-4.143,0-7.5-3.358-7.5-7.5s3.357-7.5,7.5-7.5h10.074
		c4.143,0,7.5,3.358,7.5,7.5S266.079,467.383,261.936,467.383z"/>
	<path style="fill:#EFC47F;" d="M311.47,446.397h-10.072c-4.143,0-7.5-3.358-7.5-7.5s3.357-7.5,7.5-7.5h10.072
		c4.143,0,7.5,3.358,7.5,7.5S315.612,446.397,311.47,446.397z"/>
	<path style="fill:#EFC47F;" d="M366.534,467.383H356.46c-4.143,0-7.5-3.358-7.5-7.5s3.357-7.5,7.5-7.5h10.074
		c4.143,0,7.5,3.358,7.5,7.5S370.677,467.383,366.534,467.383z"/>
	<path style="fill:#EFC47F;" d="M416.067,446.397h-10.072c-4.143,0-7.5-3.358-7.5-7.5s3.357-7.5,7.5-7.5h10.072
		c4.143,0,7.5,3.358,7.5,7.5S420.21,446.397,416.067,446.397z"/>
	<path style="fill:#EFC47F;" d="M471.132,467.383h-10.074c-4.143,0-7.5-3.358-7.5-7.5s3.357-7.5,7.5-7.5h10.074
		c4.143,0,7.5,3.358,7.5,7.5S475.274,467.383,471.132,467.383z"/>
</g>
<g>
</g>
<g>
</g>
<g>
</g>
<g>
</g>
<g>
</g>
<g>
</g>
<g>
</g>
<g>
</g>
<g>
</g>
<g>
</g>
<g>
</g>
<g>
</g>
<g>
</g>
<g>
</g>
<g>
</g>
</svg>
