<?xml version="1.0" encoding="iso-8859-1"?>
<!-- Generator: Adobe Illustrator 19.0.0, SVG Export Plug-In . SVG Version: 6.00 Build 0)  -->
<svg version="1.1" id="Capa_1" xmlns="http://www.w3.org/2000/svg" xmlns:xlink="http://www.w3.org/1999/xlink" x="0px" y="0px"
	 viewBox="0 0 512 512" style="enable-background:new 0 0 512 512;" xml:space="preserve">
<path style="fill:#D2D2D2;" d="M362.381,284.504c-1.852,0-4.665-0.41-7.702-3.954c-6.122-7.143-15.793-30.014-11.783-102.946
	c2.343-42.607,8.335-81.625,8.395-82.015c0.335-2.164-0.293-4.366-1.718-6.029c-1.425-1.662-3.505-2.619-5.694-2.619
	c-38.693,0.001-80.893,4.681-127.279,38.63c-0.056,0.041-0.111,0.082-0.166,0.125c-31.966,24.783-55.132,62.045-66.991,107.758
	c-8.903,34.319-8.382,61.075-8.355,62.197c0.097,4.078,3.432,7.323,7.496,7.323c0.041,0,0.082-0.001,0.124-0.001l213.796-3.47
	c4.117-0.067,7.411-3.441,7.378-7.56C369.848,287.825,366.499,284.504,362.381,284.504z"/>
<path style="fill:#A9A9A9;" d="M362.381,284.504c-1.852,0-4.665-0.41-7.702-3.954c-6.122-7.143-15.793-30.014-11.783-102.946
	c2.343-42.607,8.335-81.625,8.395-82.015c0.335-2.164-0.293-4.366-1.718-6.029c-1.425-1.662-3.505-2.619-5.694-2.619
	c-6.637,0-13.379,0.145-20.225,0.544c1.113,0.444,2.121,1.144,2.919,2.075c1.425,1.663,2.053,3.865,1.718,6.029
	c-0.06,0.389-6.053,39.408-8.395,82.015c-4.01,72.932,5.661,95.804,11.783,102.946c3.037,3.544,5.851,3.954,7.702,3.954
	c4.118,0,7.467,3.321,7.5,7.439c0.033,4.119-3.261,7.493-7.378,7.56l-193.14,3.135c0.702,0.218,1.448,0.336,2.22,0.336
	c0.041,0,0.082-0.001,0.124-0.001l213.796-3.47c4.117-0.067,7.411-3.441,7.378-7.56
	C369.848,287.825,366.499,284.504,362.381,284.504z"/>
<path style="fill:#4BBAED;" d="M511.667,229.013c-17.117,0-28.773,5.72-39.056,10.767c-9.675,4.748-18.813,9.233-32.448,9.233
	c-13.151,0-19.413-4.072-26.663-8.787c-5.931-3.857-12.458-8.083-22.461-10.064c-3.004-0.595-6.327-0.982-10.04-1.099
	c-0.769-0.024-1.536-0.05-2.34-0.05c-17.6,0-26.759,5.957-34.84,11.213c-7.249,4.715-13.51,8.787-26.661,8.787
	c-13.15,0-19.412-4.072-26.661-8.787c-8.081-5.256-17.24-11.213-34.839-11.213s-26.757,5.957-34.837,11.213
	c-7.249,4.715-13.509,8.787-26.659,8.787s-19.411-4.072-26.66-8.787c-8.08-5.256-17.24-11.213-34.839-11.213
	c-4.679,0-8.747,0.43-12.371,1.147c-10.008,1.98-16.535,6.208-22.468,10.066c-7.249,4.715-13.51,8.787-26.66,8.787
	c-13.633,0-22.77-4.485-32.444-9.233C28.505,234.767,16.931,229.095,0,229.02v63.997v64v68.042h512V357.03v-64v-64
	C511.889,229.025,511.779,229.013,511.667,229.013z"/>
<path style="fill:#B6E4EA;" d="M466.826,304.226c-7.25,4.715-13.511,8.787-26.663,8.787c-13.151,0-19.413-4.072-26.663-8.787
	c-8.081-5.256-17.241-11.213-34.841-11.213c-17.6,0-26.759,5.957-34.84,11.213c-7.25,4.715-13.51,8.787-26.661,8.787
	c-13.15,0-19.412-4.072-26.661-8.787c-8.081-5.256-17.24-11.213-34.839-11.213s-26.757,5.957-34.837,11.213
	c-7.249,4.715-13.509,8.787-26.659,8.787s-19.411-4.072-26.66-8.787c-8.081-5.256-17.24-11.213-34.839-11.213
	c-17.6,0-26.758,5.957-34.839,11.213c-7.249,4.715-13.51,8.787-26.66,8.787s-19.41-4.072-26.659-8.787
	c-8.03-5.223-26.998-11.135-44.505-11.21v64c17.507,0.074,36.475,5.987,44.505,11.21c7.249,4.715,13.509,8.787,26.659,8.787
	s19.411-4.072,26.66-8.787c8.081-5.256,17.24-11.213,34.839-11.213s26.758,5.957,34.839,11.213c7.249,4.715,13.51,8.787,26.66,8.787
	s19.41-4.072,26.659-8.787c8.081-5.256,17.239-11.213,34.837-11.213c17.599,0,26.758,5.957,34.839,11.213
	c7.249,4.715,13.51,8.787,26.661,8.787s19.412-4.072,26.661-8.787c8.081-5.256,17.24-11.213,34.84-11.213
	c17.6,0,26.76,5.957,34.841,11.213c7.25,4.715,13.512,8.787,26.663,8.787c13.152,0,19.413-4.072,26.663-8.787
	c8.081-5.256,27.241-11.213,44.841-11.213c0.113,0,0.222,0.012,0.333,0.017v-64c-0.111-0.005-0.221-0.017-0.333-0.017
	C494.067,293.013,474.907,298.97,466.826,304.226z"/>
<g>
</g>
<g>
</g>
<g>
</g>
<g>
</g>
<g>
</g>
<g>
</g>
<g>
</g>
<g>
</g>
<g>
</g>
<g>
</g>
<g>
</g>
<g>
</g>
<g>
</g>
<g>
</g>
<g>
</g>
</svg>
