<?xml version="1.0" encoding="iso-8859-1"?>
<!-- Generator: Adobe Illustrator 19.0.0, SVG Export Plug-In . SVG Version: 6.00 Build 0)  -->
<svg version="1.1" id="Capa_1" xmlns="http://www.w3.org/2000/svg" xmlns:xlink="http://www.w3.org/1999/xlink" x="0px" y="0px"
	 viewBox="0 0 512 512" style="enable-background:new 0 0 512 512;" xml:space="preserve">
<path style="fill:#5EBE52;" d="M483.839,151.326c0.01-0.159,0.023-0.318,0.023-0.479c-0.029-69.358-64.074-125.786-142.769-125.786
	c-14.808,0.001-65.971,2.679-102.613,37.138c-26.414,24.83-39.261,53.706-39.275,88.28c0,0.287,0.019,0.568,0.051,0.847h-0.032
	c-0.006,0.126-0.019,0.251-0.019,0.378v9.871c0,15.528,12.588,28.161,28.062,28.161c9.679,0,18.229-4.943,23.276-12.447
	c5.046,7.503,13.596,12.447,23.276,12.447c9.679,0,18.229-4.944,23.275-12.447c5.046,7.503,13.596,12.447,23.275,12.447
	c9.68,0,18.23-4.943,23.276-12.446c5.047,7.502,13.596,12.446,23.275,12.446s18.229-4.943,23.275-12.446
	c5.047,7.502,13.597,12.446,23.276,12.446c8.44,0,16.015-3.764,21.164-9.7c5.149,5.936,12.724,9.7,21.164,9.7
	c15.474,0,28.061-12.633,28.061-28.161v-9.871c0-0.127-0.013-0.252-0.019-0.378H483.839z"/>
<path style="fill:#478F3E;" d="M460.863,150.848c0,0.161-0.013,0.319-0.023,0.479h0.004c0.003,0.056,0.005,0.111,0.008,0.167h23
	c-0.004-0.055-0.006-0.111-0.008-0.167h-0.004c0.01-0.159,0.023-0.318,0.023-0.479c-0.03-69.359-64.075-125.787-142.77-125.787
	c-2.659,0-6.505,0.091-11.213,0.432C403.083,30.793,460.835,84.987,460.863,150.848z"/>
<path style="fill:#FFDB2D;" d="M108.938,17.01c-30.334,0-55.012,24.678-55.012,55.012s24.678,55.012,55.012,55.012
	s55.012-24.678,55.012-55.012S139.271,17.01,108.938,17.01z"/>
<path style="fill:#FFCA00;" d="M108.938,17.01c-4.122,0-8.134,0.47-12,1.334c24.58,5.493,43.012,27.466,43.012,53.678
	s-18.432,48.185-43.012,53.677c3.866,0.864,7.878,1.334,12,1.334c30.333,0,55.012-24.678,55.012-55.012S139.271,17.01,108.938,17.01
	z"/>
<polygon style="fill:#FFDB2D;" points="328.128,149.993 328.128,398.659 344.333,413.993 360.92,398.659 360.92,149.993 
	343.333,136.993 "/>
<path style="fill:#F7F5F5;" d="M382.599,64.429c-10.441-25.387-25.082-39.368-41.224-39.368c-16.137,0-30.723,13.92-41.07,39.195
	c-9.478,23.151-14.699,53.773-14.704,86.225c-0.001,4.131,3.34,7.485,7.472,7.501l96.865,0.368c0.01,0,0.019,0,0.028,0
	c1.984,0,3.888-0.786,5.294-2.187c1.412-1.408,2.206-3.32,2.206-5.314C397.462,118.419,392.182,87.727,382.599,64.429z"/>
<path style="fill:#ECEDEF;" d="M382.599,64.429c-10.441-25.387-25.082-39.368-41.224-39.368c-3.941,0-7.789,0.837-11.507,2.46
	c11.533,5.038,21.833,17.708,29.73,36.908c9.583,23.298,14.863,53.989,14.867,86.42c0,1.994-0.794,3.906-2.206,5.314
	c-1.155,1.15-2.646,1.877-4.24,2.104l21.918,0.083c0.01,0,0.019,0,0.028,0c1.984,0,3.888-0.786,5.294-2.187
	c1.412-1.408,2.206-3.32,2.206-5.314C397.462,118.419,392.182,87.727,382.599,64.429z"/>
<path style="fill:#EF677E;" d="M199.216,151.493c-0.005,0.07-0.011,0.14-0.011,0.211v9.871c0,15.528,12.588,28.161,28.062,28.161
	s28.063-12.633,28.063-28.161v-9.871c0-0.071-0.006-0.141-0.011-0.211H199.216z"/>
<path style="fill:#ECEDEF;" d="M245.767,151.493c-0.005,0.07-0.011,0.14-0.011,0.211v9.871c0,15.528,12.589,28.161,28.063,28.161
	s28.061-12.633,28.061-28.161v-9.871c0-0.071-0.006-0.141-0.011-0.211H245.767z"/>
<path style="fill:#EF677E;" d="M292.319,151.493c-0.005,0.07-0.011,0.14-0.011,0.211v9.871c0,15.528,12.588,28.161,28.061,28.161
	c15.475,0,28.064-12.633,28.064-28.161l0.025-9.364c0-0.071-0.031-0.094-0.036-0.719L292.319,151.493L292.319,151.493z"/>
<path style="fill:#ECEDEF;" d="M338.87,151.493c-0.005,0.07-0.011,0.14-0.011,0.211v9.871c0,15.528,12.589,28.161,28.063,28.161
	s28.063-12.633,28.063-28.161v-9.871c0-0.071-0.006-0.141-0.011-0.211H338.87z"/>
<path style="fill:#EF677E;" d="M385.42,151.493c-0.005,0.07-0.011,0.14-0.011,0.211v9.871c0,15.528,12.589,28.161,28.063,28.161
	s28.062-12.633,28.062-28.161v-9.871c0-0.071-0.006-0.141-0.011-0.211H385.42z"/>
<path style="fill:#ECEDEF;" d="M427.75,151.493c-0.005,0.07-0.011,0.14-0.011,0.211v9.871c0,15.528,12.589,28.161,28.063,28.161
	s28.061-12.633,28.061-28.161v-9.871c0-0.071-0.006-0.141-0.011-0.211H427.75z"/>
<g>
	<path style="fill:#D2D2D2;" d="M469.505,314.862c0-18.895-15.372-34.266-34.267-34.266H165.482c-0.772,0-1.536,0.035-2.296,0.085
		l-26.839-101.14c-2.347-8.847-8-16.251-15.916-20.846c-7.458-4.33-16.084-5.676-24.457-3.854l-1.579-5.966
		c-1.061-4.004-5.169-6.391-9.169-5.331l-36.529,9.669c-1.923,0.509-3.564,1.761-4.564,3.481s-1.275,3.766-0.767,5.689
		l39.905,150.752H62.517c-4.142,0-7.5,3.358-7.5,7.5v37.787c0,4.142,3.358,7.5,7.5,7.5h398.867c4.143,0,7.5-3.358,7.5-7.5v-37.133
		C469.288,319.165,469.505,317.008,469.505,314.862z"/>
	<path style="fill:#D2D2D2;" d="M435.767,327.027h-29.779c-4.143,0-7.5,3.358-7.5,7.5v82.391c0,4.142,3.357,7.5,7.5,7.5h29.779
		c4.143,0,7.5-3.358,7.5-7.5v-82.391C443.267,330.385,439.91,327.027,435.767,327.027z"/>
	<path style="fill:#D2D2D2;" d="M138.717,332.029h-29.779c-4.142,0-7.5,3.358-7.5,7.5v82.391c0,4.142,3.358,7.5,7.5,7.5h29.779
		c4.142,0,7.5-3.358,7.5-7.5v-82.391C146.217,335.387,142.859,332.029,138.717,332.029z"/>
</g>
<path style="fill:#EF677E;" d="M145.967,343.697L94.396,148.874c-1.061-4.004-5.169-6.391-9.169-5.331l-36.529,9.669
	c-1.923,0.509-3.564,1.761-4.564,3.481s-1.275,3.766-0.767,5.689l51.571,194.822c0.509,1.923,1.761,3.565,3.481,4.565
	c1.155,0.671,2.456,1.016,3.77,1.016c0.643,0,1.288-0.083,1.919-0.25l36.529-9.67C144.64,351.807,147.027,347.702,145.967,343.697z"
	/>
<rect y="398.991" style="fill:#F3D7A2;" width="512" height="96"/>
<g>
	<path style="fill:#EFC47F;" d="M52.74,465.829H42.666c-4.142,0-7.5-3.358-7.5-7.5s3.358-7.5,7.5-7.5H52.74
		c4.142,0,7.5,3.358,7.5,7.5S56.882,465.829,52.74,465.829z"/>
	<path style="fill:#EFC47F;" d="M102.274,444.843H92.202c-4.142,0-7.5-3.358-7.5-7.5s3.358-7.5,7.5-7.5h10.072
		c4.142,0,7.5,3.358,7.5,7.5S106.416,444.843,102.274,444.843z"/>
	<path style="fill:#EFC47F;" d="M157.338,465.829h-10.074c-4.142,0-7.5-3.358-7.5-7.5s3.358-7.5,7.5-7.5h10.074
		c4.142,0,7.5,3.358,7.5,7.5S161.48,465.829,157.338,465.829z"/>
	<path style="fill:#EFC47F;" d="M206.872,444.843H196.8c-4.142,0-7.5-3.358-7.5-7.5s3.358-7.5,7.5-7.5h10.072
		c4.142,0,7.5,3.358,7.5,7.5S211.014,444.843,206.872,444.843z"/>
	<path style="fill:#EFC47F;" d="M261.936,465.829h-10.074c-4.142,0-7.5-3.358-7.5-7.5s3.358-7.5,7.5-7.5h10.074
		c4.143,0,7.5,3.358,7.5,7.5S266.079,465.829,261.936,465.829z"/>
	<path style="fill:#EFC47F;" d="M311.469,444.843h-10.072c-4.143,0-7.5-3.358-7.5-7.5s3.357-7.5,7.5-7.5h10.072
		c4.143,0,7.5,3.358,7.5,7.5S315.612,444.843,311.469,444.843z"/>
	<path style="fill:#EFC47F;" d="M366.534,465.829H356.46c-4.143,0-7.5-3.358-7.5-7.5s3.357-7.5,7.5-7.5h10.074
		c4.143,0,7.5,3.358,7.5,7.5S370.676,465.829,366.534,465.829z"/>
	<path style="fill:#EFC47F;" d="M416.067,444.843h-10.072c-4.143,0-7.5-3.358-7.5-7.5s3.357-7.5,7.5-7.5h10.072
		c4.143,0,7.5,3.358,7.5,7.5S420.209,444.843,416.067,444.843z"/>
	<path style="fill:#EFC47F;" d="M471.131,465.829h-10.074c-4.143,0-7.5-3.358-7.5-7.5s3.357-7.5,7.5-7.5h10.074
		c4.143,0,7.5,3.358,7.5,7.5S475.274,465.829,471.131,465.829z"/>
</g>
<path style="fill:#EF677E;" d="M461.383,313.135H62.517c-4.142,0-7.5,3.358-7.5,7.5v37.787c0,4.142,3.358,7.5,7.5,7.5h398.867
	c4.143,0,7.5-3.358,7.5-7.5v-37.787C468.883,316.493,465.526,313.135,461.383,313.135z"/>
<g>
</g>
<g>
</g>
<g>
</g>
<g>
</g>
<g>
</g>
<g>
</g>
<g>
</g>
<g>
</g>
<g>
</g>
<g>
</g>
<g>
</g>
<g>
</g>
<g>
</g>
<g>
</g>
<g>
</g>
</svg>
