<?xml version="1.0" encoding="utf-8"?>
<!-- Generator: Adobe Illustrator 16.0.0, SVG Export Plug-In . SVG Version: 6.00 Build 0)  -->
<!DOCTYPE svg PUBLIC "-//W3C//DTD SVG 1.1//EN" "http://www.w3.org/Graphics/SVG/1.1/DTD/svg11.dtd">
<svg version="1.1" id="Layer_1" xmlns="http://www.w3.org/2000/svg" xmlns:xlink="http://www.w3.org/1999/xlink" x="0px" y="0px"
	 width="700px" height="490px" viewBox="0 0 700 490" enable-background="new 0 0 700 490" xml:space="preserve">
<g>
	<g>
		<g>
			<g>
				<path fill="#333333" d="M362.4,454.9c0.3,0,0.7,0.3,0.7,0.3l-5.7,11.8c-0.6,0-2.1,0.1-2.5,0.1c-0.3,0-0.7-0.3-0.7-0.3l-1.9-11.8
					c1.2,0,2.7-0.1,3.1-0.1c0.3,0,0.7,0.3,0.7,0.3l0.6,5.8c0.1,0.5,0.1,1.2,0,1.9c0.2-0.8,0.4-1.5,0.6-2.1l2.4-5.8
					C360.7,455,362,454.9,362.4,454.9L362.4,454.9z"/>
			</g>
			<g>
				<path fill="#333333" d="M368.3,460.7c0,1.3-0.7,2.1-2.6,2.5l-1.9,0.4c0.2,0.8,0.7,1.2,1.5,1.2c1.1,0,1.8-0.8,1.8-0.8
					s0.5,0.3,0.5,0.9c0,1.1-1.7,2.2-3.7,2.2c-2,0-3.3-1.2-3.3-3.3c0-2.4,1.7-5.6,4.8-5.6C367.2,458.2,368.3,459.2,368.3,460.7
					L368.3,460.7z M365,461.9c0.4-0.1,0.5-0.5,0.5-0.8c0-0.4-0.1-0.9-0.5-0.9c-0.8,0-1.1,1.2-1.2,2.1L365,461.9z"/>
			</g>
			<g>
				<path fill="#333333" d="M373.5,458.2c1.6,0,2.7,0.8,2.7,1.9c0,1.3-1.6,1.8-1.6,1.8s-0.5-1.4-1.6-1.4c-0.7,0-1.2,0.7-1.2,2.3
					c0,1.4,0.4,2.1,1.3,2.1c1,0,1.6-0.6,1.6-0.6s0.5,0.3,0.5,0.9c0,1-1.6,2.1-3.5,2.1c-2,0-3.3-1.2-3.3-3.3
					C368.5,461.5,370.3,458.2,373.5,458.2L373.5,458.2z"/>
			</g>
			<g>
				<path fill="#333333" d="M381,456.3c0.4,0,0.6,0.3,0.6,0.3l-0.3,1.8h2l-0.4,1.4c-0.1,0.4-0.4,0.7-0.8,0.7h-1l-0.6,3.5
					c-0.1,0.6,0,0.8,0.4,0.8c0.4,0,0.7-0.2,0.7-0.2s0.5,0.3,0.5,0.9c0,0.9-1.3,1.7-2.9,1.7c-1.7,0-2.4-1-2.1-2.8l0.6-3.9h-1.1
					l0.5-1.4c0.1-0.4,0.4-0.6,0.8-0.6h0.5l0.6-1.7C379.9,456.6,380.6,456.3,381,456.3L381,456.3z"/>
			</g>
			<g>
				<path fill="#333333" d="M390.5,460.7c0,1.3-0.7,2.1-2.6,2.5l-1.9,0.4c0.2,0.8,0.7,1.2,1.5,1.2c1.1,0,1.8-0.8,1.8-0.8
					s0.5,0.3,0.5,0.9c0,1.1-1.7,2.2-3.7,2.2c-2,0-3.3-1.2-3.3-3.3c0-2.4,1.7-5.6,4.8-5.6C389.5,458.2,390.5,459.2,390.5,460.7
					L390.5,460.7z M387.3,461.9c0.4-0.1,0.5-0.5,0.5-0.8c0-0.4-0.1-0.9-0.5-0.9c-0.8,0-1.1,1.2-1.2,2.1L387.3,461.9z"/>
			</g>
			<g>
				<path fill="#333333" d="M398.4,460.7c0,1.3-0.7,2.1-2.6,2.5l-1.9,0.4c0.1,0.8,0.7,1.2,1.5,1.2c1.1,0,1.8-0.8,1.8-0.8
					s0.5,0.3,0.5,0.9c0,1.1-1.7,2.2-3.7,2.2c-2,0-3.3-1.2-3.3-3.3c0-2.4,1.7-5.6,4.8-5.6C397.3,458.2,398.4,459.2,398.4,460.7
					L398.4,460.7z M395.1,461.9c0.4-0.1,0.5-0.5,0.5-0.8c0-0.4-0.1-0.9-0.5-0.9c-0.8,0-1.1,1.2-1.2,2.1L395.1,461.9z"/>
			</g>
			<g>
				<path fill="#333333" d="M404.8,463.9c0,0,0.7,0.6,0.7,1.6c0,1.3-1.1,1.7-2.1,1.7c-1.3,0-2.2-0.6-3.1-0.9
					c-0.3,0.3-0.5,0.6-0.8,0.9c0,0-1.4,0-1.4-1c0-1.1,2-3.1,4.1-5.3c-0.2,0-0.5-0.1-0.7-0.1c-1.2,0-1.7,0.6-1.7,0.6
					s-0.6-0.7-0.6-1.6c0.1-1.2,1.3-1.6,2.2-1.6c1,0,1.8,0.4,2.5,0.7l0.6-0.7c0,0,1.4,0,1.4,1c0,1.1-1.9,3-3.9,5.2
					c0.4,0.1,0.8,0.2,1.2,0.2C404.3,464.6,404.8,463.9,404.8,463.9L404.8,463.9z"/>
			</g>
			<g>
				<path fill="#333333" d="M414,466.4c-0.5,3-2.6,4.5-5.3,4.5c-1.7,0-3-0.9-3-1.9c0-0.7,0.6-1,0.6-1s0.6,0.5,1.7,0.5
					c1.1,0,2.5-0.4,2.8-2l0.2-1.2c-0.7,1-1.7,1.8-2.9,1.8c-1.4,0-2-1.1-1.6-3.3l0.4-2.4c0.2-1.5,0.3-2.6,0.3-2.6
					c1-0.2,2.2-0.6,2.7-0.6c0.3,0,0.7,0.3,0.7,0.3l-0.5,3l-0.4,2.8c0,0.3,0,0.4,0.2,0.4c1.1,0,1.8-3.1,1.8-3.1
					c0.2-1.5,0.3-2.6,0.3-2.6c1-0.2,2.2-0.6,2.7-0.6c0.3,0,0.7,0.3,0.7,0.3l-0.5,3L414,466.4z"/>
			</g>
		</g>
		<g>
			<path fill="#333333" d="M283.2,458.7h3c0.7,0,1.2,0.1,1.6,0.2c0.5,0.1,0.9,0.4,1.2,0.7c0.3,0.4,0.6,0.8,0.8,1.3
				c0.2,0.5,0.3,1.1,0.3,1.9c0,0.7-0.1,1.2-0.3,1.7c-0.2,0.6-0.5,1.1-0.9,1.4c-0.3,0.3-0.7,0.5-1.2,0.6c-0.4,0.1-0.9,0.2-1.5,0.2
				h-3.1V458.7z M284.9,460.1v5.3h1.2c0.5,0,0.8,0,1-0.1c0.3-0.1,0.5-0.2,0.7-0.3c0.2-0.2,0.3-0.4,0.4-0.8c0.1-0.4,0.2-0.8,0.2-1.5
				s-0.1-1.1-0.2-1.4c-0.1-0.3-0.3-0.6-0.5-0.8c-0.2-0.2-0.5-0.3-0.8-0.4c-0.2-0.1-0.7-0.1-1.4-0.1H284.9z"/>
			<path fill="#333333" d="M294.7,464.9l1.6,0.3c-0.2,0.6-0.5,1-1,1.3c-0.4,0.3-1,0.4-1.6,0.4c-1,0-1.8-0.3-2.3-1
				c-0.4-0.5-0.6-1.2-0.6-2c0-1,0.3-1.7,0.8-2.3s1.2-0.8,2-0.8c0.9,0,1.6,0.3,2.1,0.9c0.5,0.6,0.8,1.4,0.7,2.6h-4
				c0,0.5,0.1,0.8,0.4,1.1c0.2,0.3,0.5,0.4,0.9,0.4c0.2,0,0.5-0.1,0.6-0.2C294.5,465.4,294.7,465.2,294.7,464.9z M294.8,463.3
				c0-0.4-0.1-0.8-0.4-1s-0.5-0.3-0.8-0.3c-0.3,0-0.6,0.1-0.9,0.4s-0.3,0.6-0.3,1H294.8z"/>
			<path fill="#333333" d="M296.9,465.1l1.6-0.2c0.1,0.3,0.2,0.5,0.4,0.7c0.2,0.2,0.5,0.2,0.9,0.2c0.4,0,0.7-0.1,0.9-0.2
				c0.1-0.1,0.2-0.2,0.2-0.4c0-0.1,0-0.2-0.1-0.3c-0.1-0.1-0.3-0.1-0.5-0.2c-1.3-0.3-2.1-0.5-2.4-0.7c-0.5-0.3-0.7-0.7-0.7-1.3
				c0-0.5,0.2-0.9,0.6-1.3c0.4-0.3,1-0.5,1.9-0.5c0.8,0,1.4,0.1,1.8,0.4c0.4,0.3,0.7,0.6,0.8,1.1l-1.5,0.3c-0.1-0.2-0.2-0.4-0.4-0.5
				c-0.2-0.1-0.4-0.2-0.8-0.2c-0.4,0-0.7,0.1-0.9,0.2c-0.1,0.1-0.2,0.2-0.2,0.3c0,0.1,0.1,0.2,0.2,0.3c0.1,0.1,0.6,0.2,1.5,0.4
				c0.8,0.2,1.4,0.4,1.8,0.7c0.3,0.3,0.5,0.7,0.5,1.1c0,0.5-0.2,1-0.7,1.4c-0.5,0.4-1.1,0.6-2,0.6c-0.8,0-1.5-0.2-1.9-0.5
				C297.4,466,297.1,465.6,296.9,465.1z"/>
			<path fill="#333333" d="M303.6,460.1v-1.4h1.6v1.4H303.6z M303.6,466.7v-5.8h1.6v5.8H303.6z"/>
			<path fill="#333333" d="M306.4,467.1l1.8,0.2c0,0.2,0.1,0.3,0.2,0.4c0.2,0.1,0.4,0.2,0.7,0.2c0.4,0,0.7-0.1,0.9-0.2
				c0.1-0.1,0.2-0.2,0.3-0.4c0-0.1,0.1-0.4,0.1-0.7v-0.8c-0.5,0.6-1.1,0.9-1.8,0.9c-0.8,0-1.4-0.3-1.9-1c-0.4-0.5-0.5-1.2-0.5-1.9
				c0-1,0.2-1.7,0.7-2.2c0.5-0.5,1.1-0.8,1.8-0.8c0.7,0,1.3,0.3,1.8,0.9v-0.8h1.5v5.2c0,0.7-0.1,1.2-0.2,1.5
				c-0.1,0.3-0.3,0.6-0.5,0.8c-0.2,0.2-0.5,0.3-0.8,0.5s-0.8,0.2-1.3,0.2c-1,0-1.7-0.2-2.2-0.5c-0.4-0.3-0.6-0.8-0.6-1.3
				C306.4,467.2,306.4,467.2,306.4,467.1z M307.9,463.7c0,0.6,0.1,1.1,0.4,1.4c0.2,0.3,0.5,0.4,0.9,0.4c0.4,0,0.7-0.1,1-0.4
				c0.3-0.3,0.4-0.7,0.4-1.3c0-0.6-0.1-1-0.4-1.3c-0.3-0.3-0.6-0.4-1-0.4c-0.4,0-0.7,0.1-0.9,0.4C308,462.7,307.9,463.1,307.9,463.7
				z"/>
			<path fill="#333333" d="M318.8,466.7h-1.6v-3c0-0.6,0-1-0.1-1.2c-0.1-0.2-0.2-0.3-0.3-0.4c-0.1-0.1-0.3-0.2-0.5-0.2
				c-0.3,0-0.5,0.1-0.7,0.2c-0.2,0.1-0.4,0.3-0.4,0.6c-0.1,0.2-0.1,0.7-0.1,1.3v2.6h-1.6v-5.8h1.5v0.9c0.5-0.7,1.2-1,2-1
				c0.3,0,0.7,0.1,1,0.2c0.3,0.1,0.5,0.3,0.7,0.5c0.1,0.2,0.3,0.4,0.3,0.6c0.1,0.2,0.1,0.6,0.1,1V466.7z"/>
			<path fill="#333333" d="M323.6,464.9l1.6,0.3c-0.2,0.6-0.5,1-1,1.3c-0.4,0.3-1,0.4-1.6,0.4c-1,0-1.8-0.3-2.3-1
				c-0.4-0.5-0.6-1.2-0.6-2c0-1,0.3-1.7,0.8-2.3c0.5-0.5,1.2-0.8,2-0.8c0.9,0,1.6,0.3,2.1,0.9c0.5,0.6,0.8,1.4,0.7,2.6h-4
				c0,0.5,0.1,0.8,0.4,1.1c0.2,0.3,0.5,0.4,0.9,0.4c0.2,0,0.5-0.1,0.6-0.2S323.5,465.2,323.6,464.9z M323.7,463.3
				c0-0.4-0.1-0.8-0.4-1c-0.2-0.2-0.5-0.3-0.8-0.3c-0.3,0-0.6,0.1-0.9,0.4s-0.3,0.6-0.3,1H323.7z"/>
			<path fill="#333333" d="M331.8,466.7h-1.5v-0.9c-0.2,0.3-0.5,0.6-0.9,0.7c-0.3,0.2-0.7,0.2-1,0.2c-0.7,0-1.3-0.3-1.8-0.8
				c-0.5-0.5-0.7-1.3-0.7-2.2c0-1,0.2-1.7,0.7-2.2c0.5-0.5,1.1-0.8,1.8-0.8c0.7,0,1.2,0.3,1.7,0.8v-2.9h1.6V466.7z M327.6,463.7
				c0,0.6,0.1,1.1,0.3,1.3c0.3,0.4,0.6,0.6,1.1,0.6c0.4,0,0.7-0.2,0.9-0.4c0.3-0.3,0.4-0.7,0.4-1.3c0-0.7-0.1-1.1-0.4-1.4
				c-0.2-0.3-0.6-0.4-0.9-0.4c-0.4,0-0.7,0.1-0.9,0.4C327.7,462.7,327.6,463.1,327.6,463.7z"/>
			<path fill="#333333" d="M336,466.7v-8h1.6v2.9c0.5-0.5,1.1-0.8,1.7-0.8c0.7,0,1.3,0.3,1.8,0.8c0.5,0.5,0.7,1.2,0.7,2.2
				c0,1-0.2,1.8-0.7,2.3c-0.5,0.5-1.1,0.8-1.8,0.8c-0.3,0-0.7-0.1-1-0.2c-0.3-0.2-0.6-0.4-0.9-0.7v0.9H336z M337.6,463.7
				c0,0.6,0.1,1,0.3,1.3c0.3,0.4,0.6,0.6,1.1,0.6c0.3,0,0.6-0.1,0.9-0.4s0.4-0.7,0.4-1.4c0-0.7-0.1-1.1-0.4-1.4
				c-0.2-0.3-0.6-0.4-0.9-0.4c-0.4,0-0.7,0.1-0.9,0.4S337.6,463.1,337.6,463.7z"/>
			<path fill="#333333" d="M348,460.4c-0.4,0-0.7,0.2-0.9,0.5h-0.5l-1.4,4.1l-1.4-4.1h-1.7l2.3,5.8c-0.1,0.3-0.2,0.6-0.4,0.8
				c-0.2,0.2-0.4,0.3-0.8,0.3c-0.2,0-0.4,0-0.7-0.1l0.1,1.2c0.3,0.1,0.6,0.1,0.9,0.1c0.3,0,0.6,0,0.8-0.1c0.2-0.1,0.4-0.1,0.6-0.3
				s0.3-0.3,0.4-0.4c0.1-0.2,0.3-0.4,0.4-0.8l0.4-1l1.5-4c0.1,0,0.2,0.1,0.3,0.1C349.4,462.6,349.4,460.4,348,460.4z"/>
		</g>
	</g>
	<g>
		<ellipse fill="#EDEFEF" cx="349.5" cy="397.4" rx="151.5" ry="20.7"/>
		<g>
			<path fill="#333333" d="M349,280.5c-2.8-1.9-4.9-4.6-6.8-7.3c2,0.5,4,0.9,6,1.2c2.2,0.3,3-3,0.8-3.3c-1.3-0.2-2.5-0.5-3.8-0.7
				c2.6-1,5.3-2.1,7.9-3.3c2-0.9,0.2-3.8-1.8-2.9c-3.4,1.6-6.8,2.9-10.3,4.2c0.9-1.7,1.4-3.6,1.2-5.7c-0.3-2.2-3.7-2.1-3.4,0
				c0.3,2.3-0.6,3.9-1.7,5.7c-5.7-0.8-11-1.4-16.6-3.7c-6.7-2.8-18.7-7.9-20.9-15.5c-0.6-2.1-3.9-1.2-3.3,0.9
				c2.1,7,9.5,10.9,15.6,14c4.8,2.5,9.5,4.8,14.6,6.5c3.4,1.1,7.3,1.1,10.9,1.4c0,0.3,0.1,0.6,0.3,0.9c2.9,4,5.5,7.8,9.6,10.6
				C349.2,284.7,350.8,281.7,349,280.5z"/>
			<path fill="#FF586E" d="M170.6,313.3c3.1-6,4.7-12.7,7.5-18.9c2.9-6.5,6.6-12.2,10.5-18c9.1-13.6,17-28.3,24.6-42.8
				c7.1-13.5,12.6-27.9,20.6-40.9c3.3-5.4,5.7-11.1,8.9-16.5c3.2-5.5,8.1-9.8,11.1-15.6c0.5-1,1.9-1.1,2.7-0.3
				c1.4,1.4,1.6,1.6,2.1,2.5c0.2,0.2,0.5,0.4,0.6,0.8c4,10.9,9.6,21.2,13.9,31.9c3.6,8.8,6.3,17.9,9.8,26.7
				c5.4,10.2,11,20.4,16.8,30.4c7.5,13,13.3,27.9,22.9,39.5c0.4,0.5,0.5,1.1,0.3,1.6c0.6,0.7,0.7,1.9-0.4,2.5
				c-6,3.6-11.4,8.4-17.3,12.2c-6.5,4.2-13,8.3-19.4,12.7c-12.1,8.3-25.5,15-40,17.8c-6.5,1.3-13.3,0.7-20-0.6
				c-3.2-0.2-6.4-0.7-9.6-1.5c-0.2,0.1-0.4,0.1-0.6,0.1c-7,0-12.3-3.7-18.4-6.2c-0.9-0.3-1.8-0.7-2.7-1c-0.2-0.1-0.4-0.1-0.6-0.2
				c-0.2-0.1-0.3-0.2-0.4-0.2c-7.8-3.3-15.1-7.9-21-13.6C171.1,315.9,169.9,314.7,170.6,313.3z"/>
			<path fill="#FFEDDB" d="M168.1,315.5c0.4,0.2,0.8,0.4,1.1,0.6c0.1,0,0.1,0.1,0.1,0.1c5.8-0.6,14.2,8.5,18.9,11.3
				c16.1,9.4,32.1,14.4,50.8,11.7c15.8-2.4,33.1-9.8,47.2-17c6.5-3.3,12.6-7.7,19-11.2c6.9-3.8,11-10,17.3-14.4
				c1.3-0.9,2.5,0.4,2.5,1.6c0.2,0.3,0.2,0.7,0,1.2c-1.5,3.7-4,5.8-7.6,7.2c-4.3,3.8-8.6,7.5-13.3,10.8c-4.4,3.2-9.1,5.8-13.8,8.4
				c0.4,0.7,0.3,1.7-0.6,2.1c-2.4,1.2-4.9,1.9-7.4,2.9c-2.9,1.4-5.6,3.1-8.5,4.5c-5.3,2.6-11.4,4-17,5.5c-11.5,3-24.1,4.3-36,3.8
				c-20-0.8-41.4-11.8-54.8-26.3C164.7,316.8,166.3,314.7,168.1,315.5z"/>
			<path fill="#5A8200" d="M158.6,332.5c2.8-2.5,3.1-6.9,5.4-9.9c0.1-0.2,0.2-0.3,0.4-0.4c0.3-1.3,2.3-1.9,3.1-0.5
				c2.5,4.3,9,6.2,13.3,8.3c5.8,2.8,11.2,6.6,17,9.4c15.1,7.3,32.2,8.3,48.6,5.8c15.6-2.4,31.3-9,44.3-17.7
				c11.6-7.7,27.3-13.3,34.9-25.9c0.8-1.4,2.6-0.8,3.1,0.3c0.5,0.1,1,0.3,1.3,0.8c1.1,2.3,2.2,4.6,3.4,6.8c0.4,0.8,0.2,1.6-0.4,2
				c0,0.1,0,0.1,0,0.2c-1,8.9-10.1,16.6-17.2,21c-8.1,5.1-17.3,8.7-26.6,12.1c-0.3,0.5-0.7,0.8-1.3,0.9c-0.7,0.1-1.4,0.2-2.1,0.4
				c-3.3,1.2-6.5,2.4-9.7,3.6c-0.2,0.6-0.7,1.2-1.6,1.2h-1.4c-1.2,0.5-2.4,1-3.6,1.4c-7.3,2.5-13.8,4.9-21.5,6.1
				c-14.2,2.2-29.1,2.6-43-1.2c-10.3-2.9-20.4-8.2-30.1-12.6c-3.5-1.6-14-4.8-15.5-9.3C158.3,335,157.5,333.6,158.6,332.5z"/>
			<path fill="#FF3A66" d="M285.1,384.9c0.1,0,0.2,0.1,0.3,0.1c0.2-0.1,0.4-0.2,0.7-0.2c1.8-0.1,4.3-1,6.4-0.8
				c0.3-0.4,0.7-0.6,1.3-0.6c1.5,0,3,0.8,3.3,2.4c0.2,1.2-0.1,2.8-1.4,3.2c-0.3,0.1-0.6,0.1-0.9,0c-0.4,0.4-0.8,0.7-1.3,0.9
				c-1.1,0.5-2.3,0.6-3.4,0.5c-0.4,0.1-0.9,0.1-1.4-0.1c-1.4-0.8-2.9-1.6-4.4-2.1C282.1,387.4,283,384.1,285.1,384.9z"/>
			<path fill="#FF3A66" d="M247,395.4c0.1,0,0.2,0.1,0.3,0.1c0.2-0.1,0.4-0.2,0.7-0.2c1.8-0.1,4.3-1,6.4-0.8
				c0.3-0.4,0.7-0.6,1.3-0.6c1.5,0,3,0.8,3.3,2.4c0.2,1.2-0.1,2.8-1.4,3.2c-0.3,0.1-0.6,0.1-0.9,0c-0.4,0.4-0.9,0.7-1.3,0.9
				c-1.1,0.5-2.3,0.6-3.4,0.5c-0.4,0.1-0.9,0.1-1.4-0.1c-1.4-0.8-2.9-1.6-4.4-2.1C244,398,244.9,394.7,247,395.4z"/>
			<path fill="#333333" d="M159,334.9c2.4-4.3,4.6-8.8,6.8-13.2c0.1,0,0.2,0.1,0.3,0.1c7,7.3,16.1,11.9,25.7,15.2
				c0,0.1,0.1,0.2,0.2,0.4c-0.8,4.1-1.8,8.1-3.4,11.8C178.4,345.3,168.6,340.2,159,334.9z M192.2,333.5c-8.9-3.1-17.3-7.4-23.9-14.3
				c0.3-0.6,0.5-1.2,0.8-1.8c0.1,0.1,0.2,0.2,0.3,0.3c8,4.1,15,9.6,22.7,14.2C192.1,332.5,192.1,333,192.2,333.5z M252.8,165.6
				c-12.5,34.5-26.6,68.5-39.8,102.7c-5.5,14.2-10.6,28.5-15.2,43.1c-1.5,4.7-4.2,11-5.2,16.8c-7.1-4.4-13.8-9.5-21.3-13.4
				c-0.3-0.1-0.5-0.2-0.8-0.2c11.9-26,26.4-50.3,40.7-75C225.4,215.2,236.2,188.6,252.8,165.6z M321.9,294.5
				c-33.8,28.4-80.5,56.9-125.3,36c0.4-2.6,0.9-5.2,1.3-7.8c0-0.1,0-0.3,0-0.4c0.2-0.7,0.5-1.5,0.7-2.1c1.5-5.1,3.1-10.2,4.8-15.2
				c4.9-15.1,10.6-29.8,16.3-44.6c12.3-32,25.5-63.8,37.2-96c19.5,43.4,37.5,87.9,64.1,127.6c-0.2,0.4-0.2,0.9,0.2,1.4
				C321.4,293.7,321.7,294.1,321.9,294.5z M325.1,299.5c-2.5,3.2-19.9,16-21.6,17.2c-6.8,5-14,11.3-21.8,14.7
				c-24.8,10.8-61.2,19.4-86,4.4c0.1-0.2,0.1-0.4,0-0.7c0.1-0.4,0.1-0.8,0.2-1.2c45.7,20.5,93-7.5,127.7-36.6
				C324.2,298.1,324.7,298.8,325.1,299.5z M157.1,337.8c10.1,5.5,20.4,10.9,31.2,14.9c0.1,0.3,0.3,0.6,0.8,0.8
				c30.5,13.6,61.9,9,92.1-2.2c20.7-7.7,44.7-18.6,53.9-40.2c1-0.4,1.8-1.8,0.7-2.8c-2.8-2.9-5-6.2-7.1-9.6c0-0.5,0-1.1-0.3-1.5
				c-0.2-0.4-0.5-0.6-0.8-0.7c0.1-0.4,0-0.8-0.3-1.3c-29-41.5-47.7-88.6-68.4-134.5c-0.3-0.8-1-1.1-1.7-1c-0.1,0-0.1,0-0.2-0.1
				c0.1-1.5-1.7-2.9-2.8-1.5c-18.5,23.6-29.6,51.5-44.6,77.3c-14.7,25.3-29.6,50.1-41.8,76.7c-0.4,0.1-0.9,0.3-1.2,0.8
				c-0.8,1.3-1.5,2.7-2.2,4c-0.6,0.3-1,1-0.9,1.7c-2.9,5.6-5.6,11.3-8.8,16.8C153.9,337,155.8,338.5,157.1,337.8z M191.6,350.9
				c1.6-3.7,2.6-7.6,3.4-11.6c13.9,7.9,31.1,8.5,46.6,6.4c14.2-1.9,30.8-4.8,43.3-12.2c10.4-6.1,20.1-13.5,29.5-20.9
				c1.9-1.5,9.1-6.1,12.5-10.4c1.6,2.5,3.3,4.8,5.2,7c0,0-0.1,0.1-0.1,0.1c-9,22.5-35.6,32.7-56.7,40.4
				C248.2,359.8,218.8,362.8,191.6,350.9z"/>
			<path fill="#333333" d="M223,261.5c-0.3-0.9,0.6-1.8,1.4-1.9c1-0.2,1.7,0.5,1.9,1.4c0.3,1.2,1.5,2.2,2.4,2.9
				c0.4,0.3,1,0.5,1.3,0.5c0.1,0,0.1,0,0.1,0c0,0,0,0,0.1-0.1c0.1-0.1,0.2-0.5,0.2-0.7c0-0.1,0-0.1,0.1-0.2c0-0.2,0.1-0.5,0.2-0.7
				c-2.2-1-3.9-3-3.7-5.5c0.2-2.2,3.5-1.8,3.4,0.4c-0.1,1,0.8,1.7,1.7,2.1c1.6-2.6,4.3-4.7,7.2-5.6c6.1-2,10.8,3,14.5,7
				c1.5,1.6-1.2,3.8-2.6,2.2c-2.5-2.8-5.8-7-10.1-6.1c-3.6,0.7-7.5,4.3-7.2,8.2c0.1,1.2-1,1.9-1.9,1.9c-1,0.6-2.2,0.8-3.6,0.2
				C225.8,266.5,223.8,264,223,261.5z"/>
			<path fill="#333333" d="M289.1,246.5c-0.1-0.9-1.3-1.4-2.1-1.2c-1,0.3-1.3,1.2-1.2,2.1c0.2,1.2-0.4,2.6-1.1,3.6
				c-0.2,0.4-0.7,0.9-1,1c-0.1,0-0.1,0-0.1,0.1c0,0,0,0-0.1-0.1c-0.1,0-0.4-0.4-0.5-0.6c0-0.1-0.1-0.1-0.1-0.2
				c-0.1-0.2-0.3-0.4-0.4-0.6c1.6-1.8,2.3-4.4,1.2-6.6c-1-1.9-3.9-0.2-2.9,1.7c0.5,0.9-0.1,1.9-0.7,2.6c-2.6-1.7-5.8-2.5-8.9-2.2
				c-6.4,0.7-8.7,7.1-10.4,12.3c-0.7,2.1,2.6,3,3.3,0.9c1.2-3.6,2.5-8.8,6.8-9.7c3.6-0.8,8.6,0.9,10,4.6c0.4,1.2,1.7,1.4,2.5,1
				c1.1,0.2,2.3-0.2,3.4-1.3C288.6,252.1,289.4,249.1,289.1,246.5z"/>
			<path fill="#333333" d="M249.2,289.9c0.2-2.2,3.6-2.2,3.4,0c-1,14,24.6,10.7,22.6-3c-0.3-2.1,3-3.1,3.3-0.9
				C281.2,304.9,247.9,308.6,249.2,289.9z"/>
			<path fill="#FBA6AC" d="M220,308.1c1.3,5.9,7.2,9.6,13.1,8.3c5.9-1.3,9.7-7.2,8.3-13.1c-1.3-5.9-7.2-9.6-13.1-8.3
				C222.4,296.3,218.7,302.2,220,308.1z"/>
			<path fill="#FBA6AC" d="M288.5,283.8c1.3,5.9,7.2,9.6,13.1,8.3c5.9-1.3,9.7-7.2,8.3-13.1c-1.3-5.9-7.2-9.6-13.1-8.3
				C290.8,272,287.1,277.9,288.5,283.8z"/>
			<path fill="#333333" d="M285.5,387.1c0.1-0.1,0.1-0.1,0.2-0.2c0.4,0,0.8-0.1,1.2-0.4c1.5-1.3,3.8-2,5.8-2c0.8,0,3.3,0,3.1,1.3
				c-0.3,2.1-2.9,4.6-5.1,4.5C288.5,390.2,286.6,388.9,285.5,387.1z M282,387.9c1.6,3.6,5.7,6.1,9.7,5.7c3.4-0.4,7.4-4.2,7.5-7.8
				c0.1-6.3-8.3-5.1-12.8-2.9c1.1-11.2-0.5-22.5-0.3-33.7c0-2.2-3.4-2.2-3.4,0c-0.2,12,2,24.2,0.1,36.1c0,0.1,0,0.2,0,0.3
				C282.1,386.1,281.6,387,282,387.9z"/>
			<path fill="#333333" d="M246.9,397.7c0.1-0.1,0.1-0.1,0.2-0.2c0.4,0,0.8-0.1,1.2-0.4c1.5-1.3,3.8-2,5.8-2c0.8,0,3.3,0,3.1,1.3
				c-0.3,2.1-3,4.6-5.1,4.5C249.9,400.7,248,399.5,246.9,397.7z M243.5,398.5c1.6,3.6,5.7,6.1,9.7,5.7c3.4-0.4,7.4-4.2,7.4-7.8
				c0.1-6.3-8.3-5.1-12.8-2.9c1.1-11.2-0.5-22.5-0.3-33.7c0-2.2-3.4-2.2-3.4,0c-0.2,12.1,1.9,24.1,0.1,36.1c0,0.1,0,0.2,0,0.3
				C243.5,396.7,243,397.6,243.5,398.5z"/>
			<path fill="#333333" d="M255.7,195.1c0-1,1.5-1.1,1.7-0.2c0.5,0,1,0.5,0.9,1.1c-0.1,0.7,1,2.3,1.3,3c0.7,1.4,1.3,2.9,1.8,4.4
				c0.6,2,0.3,4.5-2.2,4.8C252.8,208.7,255.6,198.5,255.7,195.1z"/>
			<path fill="#333333" d="M213.3,314.4c0.3-1,1.8-0.7,1.7,0.2c0.5,0.2,0.8,0.7,0.6,1.3c-0.3,0.7,0.4,2.5,0.6,3.2
				c0.3,1.5,0.6,3.1,0.6,4.7c0.1,2.1-0.8,4.5-3.3,4.1C207.1,326.9,212.4,317.7,213.3,314.4z"/>
			<path fill="#333333" d="M286.9,299c-0.2-0.8,1-1.2,1.3-0.5c0.4-0.1,0.9,0.2,0.9,0.7c0,0.6,1.3,1.7,1.6,2.1c0.8,1,1.6,2,2.2,3.2
				c0.8,1.5,1.1,3.6-0.9,4.2C287.2,310.4,287.5,301.8,286.9,299z"/>
			<path fill="#333333" d="M257.3,313.8c0.1-0.8,1.4-0.7,1.4,0c0.4,0.1,0.7,0.5,0.6,1c-0.2,0.6,0.6,2,0.7,2.6
				c0.4,1.2,0.7,2.5,0.9,3.8c0.2,1.7-0.3,3.7-2.3,3.6C253.3,324.5,256.8,316.5,257.3,313.8z"/>
			<path fill="#333333" d="M225.2,279.6c0.2-0.8,1.4-0.6,1.4,0.2c0.4,0.1,0.7,0.5,0.5,1c-0.2,0.5,0.4,2,0.5,2.6
				c0.3,1.3,0.5,2.5,0.6,3.8c0.1,1.7-0.6,3.7-2.6,3.4C220.4,289.9,224.5,282.3,225.2,279.6z"/>
			<path fill="#333333" d="M246.3,232.2c0.2-0.8,1.4-0.6,1.4,0.2c0.4,0.1,0.7,0.5,0.5,1c-0.2,0.5,0.4,2,0.5,2.6
				c0.3,1.3,0.5,2.5,0.6,3.8c0.1,1.7-0.6,3.7-2.6,3.4C241.5,242.6,245.6,234.9,246.3,232.2z"/>
			<path fill="#333333" d="M265,224.7c0-0.9,1.2-1,1.4-0.3c0.4,0,0.8,0.3,0.8,0.8c0,0.6,1,1.8,1.3,2.3c0.7,1.1,1.3,2.3,1.7,3.5
				c0.6,1.6,0.6,3.7-1.5,4C263.5,236,265.1,227.5,265,224.7z"/>
			<path fill="#333333" d="M216.3,237.9c0.4-0.8,1.5-0.3,1.3,0.5c0.3,0.2,0.5,0.7,0.2,1.1c-0.3,0.5-0.1,2.1-0.1,2.7
				c0,1.3-0.1,2.6-0.3,3.9c-0.3,1.7-1.4,3.4-3.4,2.7C209.2,246.8,215,240.3,216.3,237.9z"/>
			<path fill="#333333" d="M179.8,308.7c1.9-2.9,4.5-4.9,7.3-6.9c-0.5,2-0.9,4-1.2,6c-0.3,2.2,3,3,3.3,0.8c0.2-1.3,0.5-2.5,0.7-3.8
				c1,2.6,2.1,5.3,3.3,7.8c0.9,2,3.8,0.2,2.9-1.8c-1.6-3.4-2.9-6.8-4.3-10.3c1.7,0.9,3.6,1.4,5.7,1.2c2.2-0.3,2.1-3.7-0.1-3.4
				c-2.3,0.3-3.9-0.6-5.7-1.7c0.8-5.7,1.4-11,3.7-16.6c2.8-6.8,7.9-18.7,15.5-21c2.1-0.6,1.2-3.9-0.9-3.3c-7,2.1-10.9,9.5-14,15.6
				c-2.5,4.8-4.7,9.5-6.4,14.7c-1.1,3.4-1,7.3-1.4,10.9c-0.3,0-0.6,0.1-0.9,0.3c-3.9,2.9-7.8,5.5-10.6,9.7
				C175.6,308.9,178.6,310.5,179.8,308.7z"/>
		</g>
		<g>
			<path fill="#FF586E" d="M529.4,313.3c-3.1-6-4.7-12.7-7.5-18.9c-2.9-6.5-6.6-12.2-10.5-18c-9.1-13.6-17-28.3-24.6-42.8
				c-7.1-13.5-12.6-27.9-20.6-40.9c-3.3-5.4-5.7-11.1-8.9-16.5c-3.2-5.5-8.1-9.8-11.1-15.6c-0.5-1-1.9-1.1-2.7-0.3
				c-1.4,1.4-1.6,1.6-2.1,2.5c-0.2,0.2-0.5,0.4-0.6,0.8c-4,10.9-9.6,21.2-13.9,31.9c-3.6,8.8-6.3,17.9-9.8,26.7
				c-5.4,10.2-11,20.4-16.8,30.4c-7.5,13-13.3,27.9-22.9,39.5c-0.4,0.5-0.5,1.1-0.3,1.6c-0.6,0.7-0.7,1.9,0.4,2.5
				c6,3.6,11.4,8.4,17.3,12.2c6.5,4.2,13,8.3,19.4,12.7c12.1,8.3,25.5,15,40,17.8c6.5,1.3,13.3,0.7,20-0.6c3.2-0.2,6.4-0.7,9.6-1.5
				c0.2,0.1,0.4,0.1,0.6,0.1c7,0,12.3-3.7,18.4-6.2c0.9-0.3,1.8-0.7,2.7-1c0.2-0.1,0.4-0.1,0.6-0.2c0.2-0.1,0.3-0.2,0.4-0.2
				c7.8-3.3,15.1-7.9,21-13.6C528.9,315.9,530.1,314.7,529.4,313.3z"/>
			<path fill="#FFEDDB" d="M531.9,315.5c-0.4,0.2-0.8,0.4-1.1,0.6c0,0-0.1,0.1-0.1,0.1c-5.8-0.6-14.2,8.5-18.9,11.3
				c-16,9.4-32.1,14.4-50.8,11.7c-15.8-2.4-33.1-9.8-47.2-17c-6.5-3.3-12.6-7.7-19-11.2c-6.9-3.8-11-10-17.3-14.4
				c-1.3-0.9-2.5,0.4-2.5,1.6c-0.2,0.3-0.2,0.7,0,1.2c1.5,3.7,4,5.8,7.6,7.2c4.3,3.8,8.6,7.5,13.3,10.8c4.4,3.2,9.1,5.8,13.8,8.4
				c-0.4,0.7-0.3,1.7,0.6,2.1c2.4,1.2,4.9,1.9,7.4,2.9c2.9,1.4,5.6,3.1,8.5,4.5c5.3,2.6,11.4,4,17,5.5c11.5,3,24.1,4.3,36,3.8
				c20-0.8,41.4-11.8,54.8-26.3C535.3,316.8,533.7,314.7,531.9,315.5z"/>
			<path fill="#5A8200" d="M541.4,332.5c-2.8-2.5-3.1-6.9-5.4-9.9c-0.1-0.2-0.2-0.3-0.4-0.4c-0.3-1.3-2.3-1.9-3.1-0.5
				c-2.5,4.3-9,6.2-13.3,8.3c-5.8,2.8-11.2,6.6-17,9.4c-15.1,7.3-32.2,8.3-48.6,5.8c-15.6-2.4-31.3-9-44.3-17.7
				c-11.6-7.7-27.3-13.3-34.9-25.9c-0.8-1.4-2.6-0.8-3.1,0.3c-0.5,0.1-1,0.3-1.3,0.8c-1.1,2.3-2.2,4.6-3.4,6.8
				c-0.4,0.8-0.2,1.6,0.4,2c0,0.1,0,0.1,0,0.2c1,8.9,10.1,16.6,17.2,21c8.1,5.1,17.3,8.7,26.6,12.1c0.3,0.5,0.7,0.8,1.3,0.9
				c0.7,0.1,1.4,0.2,2.1,0.4c3.3,1.2,6.5,2.4,9.7,3.6c0.2,0.6,0.7,1.2,1.6,1.2h1.4c1.2,0.5,2.4,1,3.6,1.4c7.3,2.5,13.8,4.9,21.5,6.1
				c14.2,2.2,29.1,2.6,43-1.2c10.3-2.9,20.4-8.2,30.1-12.6c3.5-1.6,14-4.8,15.5-9.3C541.7,335,542.5,333.6,541.4,332.5z"/>
			<path fill="#5A8200" d="M414.9,384.9c-0.1,0-0.2,0.1-0.3,0.1c-0.2-0.1-0.4-0.2-0.7-0.2c-1.8-0.1-4.3-1-6.4-0.8
				c-0.3-0.4-0.7-0.6-1.3-0.6c-1.5,0-3,0.8-3.3,2.4c-0.2,1.2,0.1,2.8,1.4,3.2c0.3,0.1,0.6,0.1,0.9,0c0.4,0.4,0.8,0.7,1.3,0.9
				c1.1,0.5,2.3,0.6,3.4,0.5c0.4,0.1,0.9,0.1,1.4-0.1c1.4-0.8,2.9-1.6,4.4-2.1C417.9,387.4,417,384.1,414.9,384.9z"/>
			<path fill="#5A8200" d="M453,395.4c-0.1,0-0.2,0.1-0.3,0.1c-0.2-0.1-0.4-0.2-0.7-0.2c-1.8-0.1-4.3-1-6.4-0.8
				c-0.3-0.4-0.7-0.6-1.3-0.6c-1.5,0-3,0.8-3.3,2.4c-0.2,1.2,0.1,2.8,1.4,3.2c0.3,0.1,0.6,0.1,0.9,0c0.4,0.4,0.9,0.7,1.3,0.9
				c1.1,0.5,2.3,0.6,3.4,0.5c0.4,0.1,0.9,0.1,1.4-0.1c1.4-0.8,2.9-1.6,4.4-2.1C456,398,455.1,394.7,453,395.4z"/>
			<path fill="#333333" d="M511.4,349.2c-1.6-3.8-2.6-7.8-3.4-11.8c0.1-0.1,0.2-0.2,0.2-0.4c9.6-3.3,18.7-7.8,25.7-15.2
				c0.1,0,0.2-0.1,0.3-0.1c2.3,4.4,4.5,8.8,6.8,13.2C531.4,340.2,521.6,345.3,511.4,349.2z M507.9,332c7.6-4.6,14.7-10.1,22.7-14.2
				c0.1-0.1,0.2-0.2,0.3-0.3c0.3,0.6,0.5,1.2,0.8,1.8c-6.5,6.9-14.9,11.1-23.9,14.3C507.9,333,507.9,332.5,507.9,332z M488.8,239.6
				c14.4,24.7,28.9,49,40.7,75c-0.2,0-0.5,0.1-0.8,0.2c-7.5,3.9-14.2,8.9-21.3,13.4c-1-5.9-3.7-12.1-5.2-16.8
				c-4.6-14.5-9.7-28.8-15.2-43.1c-13.2-34.2-27.3-68.2-39.8-102.7C463.8,188.6,474.6,215.2,488.8,239.6z M378.8,293.3
				c0.3-0.5,0.4-1,0.2-1.4c26.6-39.7,44.7-84.1,64.1-127.6c11.7,32.2,24.9,64,37.2,96c5.7,14.8,11.4,29.5,16.3,44.6
				c1.6,5.1,3.3,10.1,4.8,15.2c0.2,0.7,0.4,1.4,0.7,2.1c0,0.1,0,0.3,0,0.4c0.5,2.6,0.9,5.2,1.3,7.8c-44.8,20.9-91.6-7.6-125.3-36
				C378.3,294.1,378.6,293.7,378.8,293.3z M376.2,297.3c34.7,29.1,82,57.1,127.7,36.6c0.1,0.4,0.1,0.8,0.2,1.2c0,0.2,0,0.5,0,0.7
				c-24.8,15-61.2,6.3-86-4.4c-7.8-3.4-15-9.7-21.8-14.7c-1.7-1.2-19-14-21.6-17.2C375.3,298.8,375.8,298.1,376.2,297.3z
				 M545.2,335.4c-3.2-5.5-5.9-11.2-8.8-16.8c0-0.7-0.4-1.3-0.9-1.7c-0.7-1.4-1.4-2.7-2.2-4c-0.3-0.5-0.7-0.7-1.2-0.8
				c-12.2-26.6-27.1-51.4-41.8-76.7c-15-25.8-26-53.7-44.6-77.3c-1.1-1.4-2.9,0-2.8,1.5c-0.1,0-0.1,0-0.2,0.1c-0.7,0-1.4,0.3-1.7,1
				c-20.7,45.9-39.4,93-68.4,134.5c-0.3,0.4-0.4,0.9-0.3,1.3c-0.3,0.1-0.6,0.3-0.8,0.7c-0.2,0.5-0.3,1-0.2,1.5
				c-2.1,3.4-4.3,6.7-7.1,9.6c-1,1-0.3,2.4,0.7,2.8c9.1,21.6,33.2,32.5,53.9,40.2c30.3,11.2,61.6,15.8,92.1,2.2
				c0.4-0.2,0.7-0.5,0.8-0.8c10.8-4.1,21-9.4,31.2-14.9C544.2,338.5,546.1,337,545.2,335.4z M424.6,349.8
				c-21-7.7-47.7-17.9-56.7-40.4c0,0-0.1-0.1-0.1-0.1c1.9-2.2,3.6-4.6,5.2-7c3.4,4.3,10.6,8.9,12.5,10.4
				c9.4,7.5,19.2,14.9,29.5,20.9c12.6,7.4,29.1,10.3,43.3,12.2c15.5,2.1,32.7,1.5,46.6-6.4c0.8,4,1.9,7.8,3.4,11.6
				C481.2,362.8,451.8,359.8,424.6,349.8z"/>
			<path fill="#333333" d="M433,259.3c-1.7-5.2-4-11.6-10.4-12.3c-5.2-0.5-11.1,2.1-12.9,7.2c-0.7,2.1,2.5,3,3.3,0.9
				c1.3-3.7,6.4-5.4,10-4.6c4.3,0.9,5.6,6.1,6.8,9.7C430.4,262.2,433.7,261.4,433,259.3z"/>
			<path fill="#333333" d="M471.4,268.4c-1.7-5.2-4-11.6-10.4-12.3c-5.2-0.6-11.1,2.1-12.9,7.2c-0.7,2.1,2.5,3,3.3,0.9
				c1.3-3.7,6.4-5.4,10-4.6c4.3,0.9,5.6,6.1,6.8,9.7C468.8,271.3,472.1,270.4,471.4,268.4z"/>
			<path fill="#333333" d="M450.8,289.9c-0.2-2.2-3.6-2.2-3.4,0c1,14-24.6,10.7-22.6-3c0.3-2.1-3-3.1-3.3-0.9
				C418.8,304.9,452.1,308.6,450.8,289.9z"/>
			<path fill="#FBA6AC" d="M480,308.1c-1.3,5.9-7.2,9.6-13.1,8.3c-5.9-1.3-9.7-7.2-8.3-13.1c1.3-5.9,7.2-9.6,13.1-8.3
				C477.6,296.3,481.3,302.2,480,308.1z"/>
			<path fill="#FBA6AC" d="M411.5,283.8c-1.3,5.9-7.2,9.6-13.1,8.3c-5.9-1.3-9.7-7.2-8.3-13.1c1.3-5.9,7.2-9.6,13.1-8.3
				C409.2,272,412.9,277.9,411.5,283.8z"/>
			<path fill="#333333" d="M409.3,390.3c-2.1,0.1-4.8-2.3-5.1-4.5c-0.2-1.3,2.3-1.3,3.1-1.3c2,0,4.2,0.7,5.8,2
				c0.4,0.3,0.8,0.4,1.2,0.4c0.1,0.1,0.1,0.1,0.2,0.2C413.4,388.9,411.5,390.2,409.3,390.3z M417.3,385.7c0-0.1,0-0.2,0-0.3
				c-1.9-12,0.3-24.1,0.1-36.1c0-2.2-3.4-2.2-3.4,0c0.2,11.3-1.5,22.5-0.3,33.7c-4.5-2.2-12.9-3.4-12.8,2.9c0,3.6,4,7.4,7.5,7.8
				c4,0.4,8.1-2.1,9.7-5.7C418.4,387,417.9,386.1,417.3,385.7z"/>
			<path fill="#333333" d="M447.9,400.9c-2.1,0.1-4.8-2.3-5.1-4.5c-0.2-1.3,2.3-1.3,3.1-1.3c2,0,4.2,0.7,5.8,2
				c0.4,0.3,0.8,0.4,1.2,0.4c0,0.1,0.1,0.1,0.2,0.2C452,399.5,450.1,400.7,447.9,400.9z M455.8,396.2c0-0.1,0-0.2,0-0.3
				c-1.9-12,0.3-24.1,0.1-36.1c0-2.2-3.4-2.2-3.4,0c0.2,11.3-1.5,22.5-0.3,33.7c-4.5-2.2-12.9-3.4-12.8,2.9c0,3.6,4,7.4,7.4,7.8
				c4,0.4,8.1-2.1,9.7-5.7C457,397.6,456.5,396.7,455.8,396.2z"/>
			<path fill="#333333" d="M350.8,280.5c2.8-1.9,4.9-4.6,6.8-7.3c-2,0.5-4,0.9-6,1.2c-2.2,0.3-3-3-0.8-3.3c1.3-0.2,2.5-0.5,3.8-0.7
				c-2.6-1-5.3-2.1-7.9-3.3c-2-0.9-0.2-3.8,1.8-2.9c3.4,1.6,6.8,2.9,10.3,4.2c-0.9-1.7-1.4-3.6-1.2-5.7c0.3-2.2,3.7-2.1,3.4,0
				c-0.3,2.3,0.6,3.9,1.7,5.7c5.7-0.8,11-1.4,16.6-3.7c6.7-2.8,18.7-7.9,20.9-15.5c0.6-2.1,3.9-1.2,3.3,0.9c-2.1,7-9.5,10.9-15.6,14
				c-4.8,2.5-9.5,4.8-14.6,6.5c-3.4,1.1-7.3,1.1-10.9,1.4c0,0.3-0.1,0.6-0.3,0.9c-2.9,4-5.5,7.8-9.6,10.6
				C350.6,284.7,349,281.7,350.8,280.5z"/>
			<path fill="#333333" d="M444.3,195.1c0-1-1.5-1.1-1.7-0.2c-0.5,0-1,0.5-0.9,1.1c0.1,0.7-1,2.3-1.3,3c-0.7,1.4-1.3,2.9-1.8,4.4
				c-0.6,2-0.3,4.5,2.2,4.8C447.2,208.7,444.4,198.5,444.3,195.1z"/>
			<path fill="#333333" d="M486.7,314.4c-0.3-1-1.8-0.7-1.7,0.2c-0.5,0.2-0.8,0.7-0.6,1.3c0.3,0.7-0.4,2.5-0.6,3.2
				c-0.3,1.5-0.6,3.1-0.6,4.7c-0.1,2.1,0.8,4.5,3.3,4.1C492.9,326.9,487.6,317.7,486.7,314.4z"/>
			<path fill="#333333" d="M413.1,299c0.2-0.8-1-1.2-1.3-0.5c-0.4-0.1-0.9,0.2-0.9,0.7c0,0.6-1.3,1.7-1.6,2.1c-0.8,1-1.6,2-2.2,3.2
				c-0.8,1.5-1.1,3.6,0.9,4.2C412.8,310.4,412.5,301.8,413.1,299z"/>
			<path fill="#333333" d="M442.8,313.8c-0.1-0.8-1.4-0.7-1.4,0c-0.4,0.1-0.7,0.5-0.6,1c0.2,0.6-0.6,2-0.7,2.6
				c-0.4,1.2-0.7,2.5-0.9,3.8c-0.2,1.7,0.3,3.7,2.3,3.6C446.7,324.5,443.2,316.5,442.8,313.8z"/>
			<path fill="#333333" d="M474.8,279.6c-0.2-0.8-1.4-0.6-1.4,0.2c-0.4,0.1-0.7,0.5-0.5,1c0.2,0.5-0.4,2-0.5,2.6
				c-0.3,1.3-0.5,2.5-0.6,3.8c-0.1,1.7,0.6,3.7,2.6,3.4C479.6,289.9,475.5,282.3,474.8,279.6z"/>
			<path fill="#333333" d="M453.7,232.2c-0.2-0.8-1.4-0.6-1.4,0.2c-0.4,0.1-0.7,0.5-0.5,1c0.2,0.5-0.4,2-0.5,2.6
				c-0.3,1.3-0.5,2.5-0.6,3.8c-0.1,1.7,0.6,3.7,2.6,3.4C458.5,242.6,454.4,234.9,453.7,232.2z"/>
			<path fill="#333333" d="M435,224.7c0-0.9-1.2-1-1.4-0.3c-0.4,0-0.8,0.3-0.8,0.8c0,0.6-1,1.8-1.3,2.3c-0.7,1.1-1.3,2.3-1.7,3.5
				c-0.6,1.6-0.6,3.7,1.5,4C436.5,236,434.9,227.5,435,224.7z"/>
			<path fill="#333333" d="M518.8,308.7c-1.9-2.9-4.5-4.9-7.3-6.9c0.5,2,0.9,4,1.2,6c0.3,2.2-3,3-3.3,0.8c-0.2-1.3-0.5-2.5-0.7-3.8
				c-1,2.6-2.1,5.3-3.3,7.8c-0.9,2-3.8,0.2-2.9-1.8c1.6-3.4,2.9-6.8,4.3-10.3c-1.7,0.9-3.6,1.4-5.7,1.2c-2.2-0.3-2.1-3.7,0.1-3.4
				c2.3,0.3,3.9-0.6,5.7-1.7c-0.8-5.7-1.4-11-3.7-16.6c-2.8-6.8-7.9-18.7-15.5-21c-2.1-0.6-1.2-3.9,0.9-3.3c7,2.1,10.9,9.5,14,15.6
				c2.5,4.8,4.7,9.5,6.4,14.7c1.1,3.4,1,7.3,1.4,10.9c0.3,0,0.6,0.1,0.9,0.3c3.9,2.9,7.8,5.5,10.6,9.7
				C523,308.9,520,310.5,518.8,308.7z"/>
		</g>
	</g>
	<g>
		<g>
			<path fill="#333333" d="M207.6,60.7c-4.8-11.2-2.2-14,0.5-15.6c5.2-3.2,8.3,2.7,3.9,10.3c1.2,3,5.4,9.7,5.9,10.5
				c0.6-0.3,5.9-2.2,10.1-9.3c0,0,0.5-0.6,1.2-0.2c0.7,0.4,0.2,1.2,0.2,1.2c-3.3,6.5-8.6,9-10.4,10.5c0.4,1,1.9,3.1,2.2,7.5
				c1,8.4-7.3,8.8-9.5,8.5c-3.8-0.5-12.3-5.3,0.4-14.3C211,67.1,208.4,62.4,207.6,60.7z M212.8,72c-10.2,5.5-4.3,9.8,0,10.1
				C218.2,82.6,214.2,75.5,212.8,72z M211,53c1.2-2.6,1.2-2.7,1-4.8c-0.5-2.9-1.6-1.7-2.3-1.3C208.7,49.4,210.4,51.5,211,53z"/>
			<path fill="#333333" d="M234.9,68.7c4.3,0,6.3-7.4,6-10.8c0.2-6.1,1.3-5.3,2.3-4.9c1.2,0.4,3.7,2.6,3.8,4
				c-0.2,3.9-1.5,12.5,0.7,17.5c1.9,3.3,7.1-2.8,9.6-17.8c0,0,1-0.2,1.2,0.1c0.3,0.4,0.4,1.1,0.4,1.1c-3.8,21.4-11.3,19.6-12.1,19.5
				c-5.6-1.1-5.5-11.6-5.5-12c-3.3,7.1-9.2,7.1-11.2,4.8c-3.7-4.6-1.4-18-0.8-21.1c0.9-2.6,3.3-2.8,5.4-1c0.6,0.9,1.1,1.6,1.1,2.6
				C233.6,65.4,234.4,68.5,234.9,68.7z"/>
			<path fill="#333333" d="M286.9,80c1.5,1,7.5-0.2,12.2-23.6c0,0,1-0.2,1.2,0.1c0.3,0.4,0.4,1.1,0.4,1.1
				c-6.1,31.3-15.9,25.8-17.7,24.6c-5.1-4.4-0.5-28.6,0.1-32.2c0.3-2.4-0.8-0.4-1.2,0c-3.9,7.3-6.5,15.9-7.6,18.4
				c-0.4,0.5-0.6,1.4-0.6,1.9c-0.4,1.4-1.1,2-2.3,1.1c-1.5-1.1-3.3-2.8-3.3-4.7c-0.4-4.2,2.3-14.8,1.7-15.3
				c-1.3-0.3-6.2,7.9-6.7,11.6c-0.6,3.6-2.4,3.9-3.3,3.4c-3.3-3.2-2.9-14-1.5-18.4c0.5-1.9,1.9-1.9,3.5-0.8c2.2,1.2,2.4,2.7,2,3.8
				c-0.4,2.3-0.9,7.2-0.9,7.6c2.9-5.7,4.3-7.3,5.7-8.8c0.9-0.9,2.2-0.8,2.7-0.3c5.1,2.5,2.6,11.5,3,12c0-0.4,5-11.6,7.4-14.5
				c2.6-2.5,7.5,1.9,7.1,6.1C287.7,60.4,285.6,77.9,286.9,80z"/>
			<path fill="#333333" d="M328.7,80c1.5,1,7.5-0.2,12.2-23.6c0,0,1-0.2,1.2,0.1c0.3,0.4,0.4,1.1,0.4,1.1
				c-6.1,31.3-15.9,25.8-17.7,24.6c-5.1-4.4-0.5-28.6,0.1-32.2c0.3-2.4-0.8-0.4-1.2,0c-3.9,7.3-6.5,15.9-7.6,18.4
				c-0.4,0.5-0.6,1.4-0.6,1.9c-0.4,1.4-1.1,2-2.3,1.1c-1.5-1.1-3.3-2.8-3.3-4.7c-0.4-4.2,2.3-14.8,1.7-15.3
				c-1.3-0.3-6.2,7.9-6.7,11.6c-0.6,3.6-2.4,3.9-3.3,3.4c-3.3-3.2-2.9-14-1.5-18.4c0.5-1.9,1.9-1.9,3.5-0.8c2.2,1.2,2.4,2.7,2,3.8
				c-0.4,2.3-0.9,7.2-0.9,7.6c2.9-5.7,4.3-7.3,5.7-8.8c0.9-0.9,2.2-0.8,2.7-0.3c5.1,2.5,2.6,11.5,3,12c0-0.4,5-11.6,7.4-14.5
				c2.6-2.5,7.5,1.9,7.1,6.1C329.5,60.4,327.5,77.9,328.7,80z"/>
			<path fill="#333333" d="M341.7,69.1c-2.6-5.9-2-19.7,7.4-19.7c1.9,0.1,5.3-0.1,5.7,3.7c0.2,6.4-5.7,8.8-7.8,8.4
				c0.2,8.1,3,7.6,4.2,8.4c1.2,0.5,6.9-0.3,11.1-13.3c0,0,0.8-0.2,1,0.1c0.3,0.4,0.2,1.1,0.2,1.1C358.2,77.4,343.7,73,341.7,69.1z
				 M346.9,59.6c2.5-0.2,5-0.8,5.6-5.6c-0.2-3-2.1-3-3-2.4C348,53.5,347.4,55.4,346.9,59.6z"/>
			<path fill="#333333" d="M386.8,56.8c0,0,0.4-0.6,1.2-0.1c0.6,0.4,0.4,1.3,0.4,1.3c-3,19.7-7.1,21.7-9.2,22.8
				c-3.6,1.9-7.1,0.3-8.2-1.6c-3.4-5.9-0.7-15.3,0.2-18.1c-4,1.3-7.7-0.1-9.3-2c-1.6-3-2.8-5-1.8-8.6c1.2-3.3,4-4.3,5.8-2.8
				c2.8,2.4-0.1,6-1.4,8.9c1.1,3.1,6.6,2.3,8.2,1c2.2-1.3,4.8-0.4,4.6,2.4c-0.1,4.2-0.6,5-1.1,8.8c-1.3,9.9,1.4,10.1,1.4,10.1
				C383.2,79.8,386.8,56.8,386.8,56.8z M362.8,55c1.4-3.2,2.3-4,1.8-5.5c0,0-0.8-1.7-2.3,0.1C361.5,51.4,361.9,53.6,362.8,55z"/>
			<path fill="#333333" d="M411.2,80.5c2.3-0.1,7.7-5.7,10.8-24c0,0,1,0.1,1.1,0.3c0.3,0.4,0.3,1.2,0.3,1.2
				c-4.3,27.5-14.2,25.9-15.7,24.5c-1.7-1.7-3.1-3-3.9-6c-3.6-15.7-0.8-35.4,0.5-40.1c3.3-13.6,11.2-11.8,13-9.6
				c4.4,5.2-1.6,22.1-9.1,29.3C408,58.6,408,80,411.2,80.5z M408,53.3c0,0,7.2-6.5,8.5-20.8c0.6-6.2-2.4-6.7-3.2-4.8
				C410.9,30.6,408.4,48.4,408,53.3z"/>
			<path fill="#333333" d="M438.1,60.6c1.2,0.8,6.8,0.9,8.5-4c0,0,0.2-0.8,1.1-0.3c0.7,0.4,0.3,1.3,0.3,1.3
				c-2.8,6.4-9.7,4.9-10.4,4.8c-2.3,8.3-6.1,9.5-9.7,9.9c-4.6,0.3-6.1-5.8-6.4-8.7c-0.6-6.6,1.8-12.7,5.2-12.1
				c-0.3-3.6,2.1-4.5,2.9-4.9c2.3-1.1,6.7-0.2,8.2,4.2C438.7,53.8,439.5,56.3,438.1,60.6z M427.1,52.4c0,0.4,1.3,3.1,1.1,3.7
				c-0.4,2.2-0.9,12.2,2.4,13.1c1.9-0.3,3.8-3,5.4-7.3C434,61.6,429.4,57.6,427.1,52.4z M436.6,59.6c1.2-6.3-0.9-8.9-1.8-10.3
				c-1.3-1.7-4.6-3-4.9,1C429.9,53.5,433.5,58.2,436.6,59.6z"/>
			<path fill="#333333" d="M455.7,73.5c1.8-4.3,2.6-6,4.2-12.6c-3.9-3.7-2.1-8.6-0.6-8.9c4.2-0.1,4.4,3.7,3,7.2
				c0.4,0.9,4.4,3.6,7.1-2.9c0,0,0.9-0.1,1,0.2c0.5,0.5,0.2,1.3,0.2,1.3c-2.1,6.7-8.7,4.8-9.1,4.4c-1.8,7.4-3.5,11.5-5.8,16.8
				c-10.5,0-9.1-19.5-9-24.3c-0.4-1.5,1.7-1.7,3.2-1.2c3,1.4,3,3.5,3.3,6.5C453.2,63.6,454.2,72.4,455.7,73.5z M460.5,57.6
				c0,0,1.6-3.7-0.4-3.6C458.4,54.4,460.5,57.6,460.5,57.6z"/>
			<path fill="#333333" d="M470.1,69.1c-2.6-5.9-2-19.7,7.4-19.7c1.9,0.1,5.3-0.1,5.7,3.7c0.2,6.4-5.7,8.8-7.8,8.4
				c0.2,8.1,3,7.6,4.2,8.4c1.2,0.5,6.9-0.3,11.1-13.3c0,0,0.8-0.2,1,0.1c0.3,0.4,0.2,1.1,0.2,1.1C486.7,77.4,472.2,73,470.1,69.1z
				 M475.3,59.6c2.5-0.2,5-0.8,5.6-5.6c-0.2-3-2.1-3-3-2.4C476.4,53.5,475.8,55.4,475.3,59.6z"/>
		</g>
		<path fill="#333333" d="M513.1,63c-2.2-2.9-4.5-5.8-6.7-8.7c-0.1-0.1-0.1-0.1-0.2-0.2c0.2-0.2,0.4-0.4,0.6-0.6
			c1.4-1.4-0.8-3.5-2.1-2.1c-2.4,2.5-4.6,5.1-6.5,8c-0.4,0.5-0.7,1.1-1.1,1.6c-0.9,1.7,1.6,3.2,2.6,1.5c0.3-0.5,0.6-0.9,0.9-1.4
			c1.1-1.5,2.6-2.9,4.2-4c1.9,2.5,3.8,4.9,5.7,7.4C511.6,66,514.3,64.6,513.1,63z"/>
		<path fill="#333333" d="M510.6,69.4c-0.9-3-3.1-5.2-4.8-7.7c-0.7-1-1.9-1-2.6,0c-0.6,0-1.2,0.3-1.5,1c-0.2,0.6-0.5,1.2-0.8,1.8
			c-0.8,1-1.5,2.1-1.9,3.5c-0.5,1.7,1.8,2.5,2.7,1.2c0.7-1.1,1.3-2.2,1.9-3.4c0.3-0.3,0.5-0.6,0.8-1c1.3,1.6,2.7,3.3,3.3,5.3
			C508.2,72,511.1,71.2,510.6,69.4z"/>
		<path fill="#333333" d="M194,63c-2.2-2.9-4.5-5.8-6.7-8.7c-0.1-0.1-0.1-0.1-0.2-0.2c0.2-0.2,0.4-0.4,0.6-0.6
			c1.4-1.4-0.8-3.5-2.1-2.1c-2.4,2.5-4.6,5.1-6.5,8c-0.4,0.5-0.7,1.1-1.1,1.6c-0.9,1.7,1.6,3.2,2.6,1.5c0.3-0.5,0.6-0.9,0.9-1.4
			c1.1-1.5,2.6-2.9,4.2-4c1.9,2.5,3.8,4.9,5.7,7.4C192.5,66,195.1,64.6,194,63z"/>
		<path fill="#333333" d="M191.4,69.4c-0.9-3-3.1-5.2-4.8-7.7c-0.7-1-1.9-1-2.6,0c-0.6,0-1.2,0.3-1.5,1c-0.2,0.6-0.5,1.2-0.8,1.8
			c-0.8,1-1.5,2.1-1.9,3.5c-0.5,1.7,1.8,2.5,2.7,1.2c0.7-1.1,1.3-2.2,1.9-3.4c0.3-0.3,0.5-0.6,0.8-1c1.3,1.6,2.7,3.3,3.3,5.3
			C189.1,72,192,71.2,191.4,69.4z"/>
	</g>
	<g>
		<g>
			<path fill="#FF586E" d="M334,178c-0.5-2.2-3.1-5.3-5.5-5.3c-2.7,0-4,2.1-5.7,3.2c-4.4-4.1-12.2-1.9-12.6,4.8
				c-0.4,7,7.5,10,11.9,14.1c0.7,0.6,1.5,0.5,2.1,0c0.5,0.4,1.4,0.6,2,0C331,191,335.6,184.4,334,178z"/>
			<path fill="#333333" d="M334,178c-0.5-2.2-3.1-5.3-5.5-5.3c-2.7,0-4,2.1-5.7,3.2c-4.4-4.1-12.2-1.9-12.6,4.8
				c-0.4,7,7.5,10,11.9,14.1c0.7,0.6,1.5,0.5,2.1,0c0.5,0.4,1.4,0.6,2,0C331,191,335.6,184.4,334,178z M324.2,192.6
				c-2.9-2.7-6.5-4.7-9.3-7.6c-4.6-4.7,1.9-11.6,6.5-6.3c0.2,0.4,0.6,0.6,1,0.6c0.3,0,0.6-0.1,0.9-0.3c0.9-0.5,1.5-1.2,2.3-1.9
				c3.1-2.8,5.8,0.5,5.8,3.7C331.4,185.4,327.5,190,324.2,192.6z"/>
		</g>
		<g>
			<path fill="#FF586E" d="M377,216.2c-0.5-2.2-3.1-5.3-5.5-5.3c-2.7,0-4,2.1-5.7,3.2c-4.4-4.1-12.2-1.9-12.6,4.8
				c-0.4,7,7.5,10,11.9,14.1c0.7,0.6,1.5,0.5,2.1,0c0.5,0.4,1.4,0.6,2,0C374.1,229.2,378.6,222.6,377,216.2z"/>
			<path fill="#333333" d="M377,216.2c-0.5-2.2-3.1-5.3-5.5-5.3c-2.7,0-4,2.1-5.7,3.2c-4.4-4.1-12.2-1.9-12.6,4.8
				c-0.4,7,7.5,10,11.9,14.1c0.7,0.6,1.5,0.5,2.1,0c0.5,0.4,1.4,0.6,2,0C374.1,229.2,378.6,222.6,377,216.2z M367.2,230.8
				c-2.9-2.7-6.5-4.7-9.3-7.6c-4.6-4.7,1.9-11.6,6.5-6.3c0.2,0.4,0.6,0.6,1,0.6c0.3,0,0.6-0.1,0.9-0.3c0.9-0.5,1.5-1.2,2.3-1.9
				c3.1-2.8,5.8,0.5,5.8,3.7C374.5,223.6,370.5,228.1,367.2,230.8z"/>
		</g>
		<g>
			<path fill="#FF586E" d="M366.3,356c-0.5-2.2-3.1-5.3-5.5-5.3c-2.7,0-4,2.1-5.7,3.2c-4.4-4.1-12.2-1.9-12.6,4.8
				c-0.4,7,7.5,10,11.9,14.1c0.7,0.6,1.5,0.5,2.1,0c0.5,0.4,1.4,0.6,2,0C363.4,368.9,367.9,362.4,366.3,356z"/>
			<path fill="#333333" d="M366.3,356c-0.5-2.2-3.1-5.3-5.5-5.3c-2.7,0-4,2.1-5.7,3.2c-4.4-4.1-12.2-1.9-12.6,4.8
				c-0.4,7,7.5,10,11.9,14.1c0.7,0.6,1.5,0.5,2.1,0c0.5,0.4,1.4,0.6,2,0C363.4,368.9,367.9,362.4,366.3,356z M356.5,370.6
				c-2.9-2.7-6.5-4.7-9.3-7.6c-4.6-4.7,1.9-11.6,6.5-6.3c0.2,0.4,0.6,0.6,1,0.6c0.3,0,0.6-0.1,0.9-0.3c0.9-0.5,1.5-1.2,2.3-1.9
				c3.1-2.8,5.8,0.5,5.8,3.7C363.8,363.4,359.8,367.9,356.5,370.6z"/>
		</g>
		<g>
			<path fill="#FF586E" d="M373.9,176.2c-0.3-1-1.5-2.6-2.6-2.6c-1.3,0-1.9,1-2.7,1.5c-2.1-2-5.9-0.9-6,2.3
				c-0.2,3.3,3.6,4.8,5.7,6.8c0.3,0.3,0.7,0.2,1,0c0.3,0.2,0.7,0.3,1,0C372.4,182.4,374.6,179.2,373.9,176.2z"/>
			<path fill="#333333" d="M373.9,176.2c-0.3-1-1.5-2.6-2.6-2.6c-1.3,0-1.9,1-2.7,1.5c-2.1-2-5.9-0.9-6,2.3
				c-0.2,3.3,3.6,4.8,5.7,6.8c0.3,0.3,0.7,0.2,1,0c0.3,0.2,0.7,0.3,1,0C372.4,182.4,374.6,179.2,373.9,176.2z M369.1,183.1
				c-1.4-1.3-3.1-2.3-4.5-3.6c-2.2-2.3,0.9-5.6,3.1-3c0.1,0.2,0.3,0.3,0.5,0.3c0.2,0,0.3,0,0.4-0.1c0.4-0.2,0.7-0.6,1.1-0.9
				c1.5-1.3,2.8,0.2,2.8,1.8C372.6,179.7,370.7,181.9,369.1,183.1z"/>
		</g>
		<path fill="#333333" d="M502.5,169.9c-0.7,1.2,1.1,2.3,1.9,1.4c0.6,0.3,1.4,0.1,1.7-0.7c0.3-0.9,2.7-2,3.5-2.6
			c1.7-1.2,3.4-2.5,5-3.9c2-1.9,3.3-5.1,0.6-7C508,152.1,504.6,165.9,502.5,169.9z"/>
		<path fill="#333333" d="M512.7,196.2c-1.3,0.6-0.6,2.5,0.6,2.2c0.3,0.6,1.1,1,1.8,0.5c0.8-0.5,3.4,0.1,4.4,0.1
			c2.1,0.1,4.2,0.2,6.3-0.1c2.7-0.3,5.7-1.9,4.7-5.2C528.1,185.6,516.9,194.3,512.7,196.2z"/>
		<path fill="#333333" d="M472.7,159.8c-0.2,1.4,1.7,1.9,2.2,0.7c0.6,0.1,1.4-0.3,1.4-1.2c0-1,2-2.8,2.6-3.5
			c1.3-1.7,2.5-3.4,3.5-5.3c1.3-2.4,1.6-5.9-1.6-6.8C472.5,141.2,473.5,155.3,472.7,159.8z"/>
		<path fill="#333333" d="M193.6,169.9c0.7,1.2-1.1,2.3-1.9,1.4c-0.6,0.3-1.4,0.1-1.7-0.7c-0.3-0.9-2.7-2-3.5-2.6
			c-1.7-1.2-3.4-2.5-5-3.9c-2-1.9-3.3-5.1-0.6-7C188,152.1,191.4,165.9,193.6,169.9z"/>
		<path fill="#333333" d="M183.3,196.2c1.3,0.6,0.6,2.5-0.6,2.2c-0.3,0.6-1.1,1-1.8,0.5c-0.8-0.5-3.4,0.1-4.4,0.1
			c-2.1,0.1-4.2,0.2-6.3-0.1c-2.7-0.3-5.7-1.9-4.7-5.2C168,185.6,179.1,194.3,183.3,196.2z"/>
		<path fill="#333333" d="M223.3,159.8c0.2,1.4-1.7,1.9-2.2,0.7c-0.6,0.1-1.4-0.3-1.4-1.2c0-1-2-2.8-2.6-3.5
			c-1.3-1.7-2.5-3.4-3.5-5.3c-1.3-2.4-1.6-5.9,1.6-6.8C223.5,141.2,222.5,155.3,223.3,159.8z"/>
		<path fill="#333333" d="M563.8,276.7c-2-1.4-3.7-3.1-5.4-4.8c1.8-1.5,3.4-3.1,5.1-4.8c0.7-0.7,0.6-1.9-0.3-2.4
			c-2.3-1.2-4.6-2.4-7.1-3.3c2.1-1.9,4.1-4.4,4.4-7c0.3-1.9-2.6-2.7-2.9-0.8c-0.4,3-3.4,5.6-5.6,7.3c-0.9,0.7-0.4,2.3,0.7,2.5
			c2.6,0.6,4.9,1.8,7.2,2.9c-1.9,1.8-3.8,3.6-5.9,5.2c-1.5,1.2,0.5,3.2,2,2.2c2,2,4,3.9,6.3,5.5
			C563.8,280.4,565.3,277.8,563.8,276.7z"/>
		<path fill="#333333" d="M150.9,270.5c-2.8-1.2-5.4-2.8-8.2-4.1c1.2-2.7,2.8-4.9,5.2-6.9c1.5-1.2-0.6-3.3-2.1-2.1
			c-3.1,2.5-5,5.6-6.4,9.3c-0.2,0.6,0.1,1.4,0.7,1.7c2.1,0.9,4.2,2.1,6.2,3.2c-2.9,1.5-4.9,3.9-6.3,7.1c-0.2,0.6,0.1,1.4,0.7,1.7
			c2.2,1.1,4.4,2.2,6.7,3.3c1.7,0.9,3.2-1.7,1.5-2.6c-1.8-0.9-3.6-1.8-5.5-2.7c1.5-2.8,3.9-4.5,7.1-5.2
			C151.8,272.9,152.1,271,150.9,270.5z"/>
		<path fill="#333333" d="M593.7,123.5c-1.2-7.2-7.2-7.2-11.9-4c-2.2-5.2-8.6-5.7-11.7-1.2c-4.4-5.5-12.9-7.7-13.3,1.5
			c-4.7,0-8.5,2.8-6.8,8.3c1.5,5,5.7,5.4,9.4,3.8c0.4,4.9,7.6,8.3,11.8,4.2c4,7,17.6,5.2,17.1-3.3
			C592.6,133,594.4,128.1,593.7,123.5z M587.1,129.4c-0.4-0.2-0.7-0.2-1-0.1c-0.7,0.1-1.4,0.7-1.2,1.5c0,0.3,0,0.5,0.2,0.7
			c2.1,7.5-10.9,8.1-11.9,0.8c-0.2-1.6-2.4-1.2-2.9,0c-2.2,5.8-10.6,1.2-6.8-3.2c1.3-1.4-0.8-3.5-2.1-2.1c-2.3,2.4-5.7,4.5-8,1
			c-2.4-3.7,1.3-5.7,4.7-5.2c1.2,0.2,2-0.9,1.9-1.8c0-0.1,0-0.2,0-0.3c-0.2-8.4,7.2-2.6,9.2,1.4c0.6,1.2,2.4,0.8,2.7-0.4
			c1.5-5.3,7-4.5,7.8,0.7c0.2,1.2,1.8,1.4,2.5,0.7c3.2-3,7.1-4.5,8.6,0.6C591.4,126.3,590.9,131.2,587.1,129.4z"/>
		<path fill="#333333" d="M124.1,191.8c-1.2-7.2-7.2-7.2-11.9-4c-2.2-5.2-8.6-5.7-11.7-1.2c-4.4-5.5-12.9-7.7-13.3,1.5
			c-4.7,0-8.5,2.8-6.8,8.3c1.5,5,5.7,5.4,9.4,3.8c0.4,4.9,7.6,8.3,11.8,4.2c4,7,17.6,5.2,17.1-3.3
			C123,201.3,124.9,196.3,124.1,191.8z M117.5,197.7c-0.4-0.2-0.7-0.2-1-0.1c-0.7,0.1-1.4,0.7-1.2,1.5c0,0.3,0,0.5,0.2,0.7
			c2.1,7.5-10.9,8.1-11.9,0.8c-0.2-1.6-2.4-1.2-2.9,0c-2.2,5.8-10.6,1.2-6.8-3.2c1.3-1.4-0.8-3.5-2.1-2.1c-2.3,2.4-5.7,4.5-8,1
			c-2.4-3.7,1.3-5.7,4.7-5.2c1.2,0.2,2-0.9,1.9-1.8c0-0.1,0-0.2,0-0.3c-0.2-8.4,7.2-2.6,9.2,1.4c0.6,1.2,2.4,0.8,2.7-0.4
			c1.5-5.3,7-4.5,7.8,0.7c0.2,1.2,1.8,1.4,2.5,0.7c3.2-3,7.1-4.5,8.6,0.6C121.9,194.6,121.3,199.5,117.5,197.7z"/>
		<path fill="#333333" d="M602.5,380.2c-2.1-3.3-5.8-2.9-8.6-1.1c-2.4-3-5.2-3.8-7.2-1c-2.8-3.3-6.9-2.3-8.9,2.4
			c-5.7,0.1-8.7,4-4.4,8.8c2.4,2.7,6,3.7,8.6,2.4c1.6,4.4,7.8,6.1,10.7,1.5c2.2,1.7,5.2,2.8,7.6,0.8c2.4-1.9,1.8-4.5,0.4-6.7
			C603.3,385.9,604.3,383.2,602.5,380.2z M597.3,392c-1.7,0.1-2.9-1.3-3.9-2.4c-0.8-0.9-2.2-0.4-2.5,0.7c-1.7,5.4-7.4,1.9-5.8-2.5
			c0.6-1.9-2.2-2.6-2.9-0.8c-1,3.5-4,2.6-6.2,0.6c-3.1-2.8-1.1-4.1,2.3-4c0.2,0,0.3,0,0.5-0.1c0.7,0.1,1.4-0.2,1.6-1
			c1-3.3,3.5-4.7,5.1-0.7c0.5,1.3,2.4,1.5,2.9,0c1-3.5,2.6-1.8,3.9,0.4c0.5,0.8,1.7,1,2.4,0.3c4.1-4.1,8.2,1.7,3.2,2.8
			c-0.7,0.2-1,0.7-1.1,1.3c-0.1,0.4,0,0.9,0.4,1.3C598.4,388.9,600.5,391.7,597.3,392z"/>
		<path fill="#333333" d="M106.8,381c0.7-5.2-3.6-8-8.3-5.4c-2.9-2.5-5.7-1.7-8.1,0.9c-3.6-3.8-9.2-2.6-11.1,2.4
			c-2.8-1.7-4.6,4.7-4.5,7.5c0.3,7.2,5.6,7.9,10.3,4.3c3.3,1.8,8.7,2.5,10.7-0.9c3.7,1.9,8.3,1.9,11.7-0.7
			C110.9,386.5,109.3,383.1,106.8,381z M103.1,387.8c-2.6,0.7-5.2-0.2-7.3-1.7c-0.7-0.5-2.1,0-2.2,0.9c-0.7,4-6,1.7-7.8,0.4
			c-0.6-0.4-1.3-0.2-1.8,0.2c-2.7,2.4-5.5,3.6-6.1-0.8c-0.1-1.2-0.1-2.4,0.1-3.6c0.1-0.4,0.2-0.8,0.3-1.2c0,0,0,0.1,0,0.1
			c0.7,1.1,2,0.8,2.6,0c0.4-0.1,0.7-0.5,0.8-1c0.8-4.3,4.8-5.7,7.3-1.6c0.6,1,1.9,0.9,2.6,0c1.9-0.3,3.8-0.7,5.6-1
			c0.4,0.5,1.3,0.6,1.8,0.2c2.3-1.6,4.9-0.5,4.6,2c-0.1,0.3-0.2,0.5-0.2,0.8c0,0,0,0.1,0,0.1c-0.4,1.2,0.7,1.9,1.6,1.8
			C106.7,385.3,105.6,387.1,103.1,387.8z"/>
		<path fill="#333333" d="M575,216c-2.6,0-2.6,4,0,4S577.6,216,575,216z"/>
		<path fill="#333333" d="M568,176.5h-2c-1.4,0-2.5,1.1-2.5,2.5s1.1,2.5,2.5,2.5h2c1.4,0,2.5-1.1,2.5-2.5S569.4,176.5,568,176.5z"/>
		<path fill="#333333" d="M128,143.5c-3.2,0-3.2,5,0,5S131.2,143.5,128,143.5z"/>
		<path fill="#333333" d="M85,265.5c-3.2,0-3.2,5,0,5S88.2,265.5,85,265.5z"/>
		<path fill="#333333" d="M147,354.5c-3.2,0-3.2,5,0,5S150.2,354.5,147,354.5z"/>
		<path fill="#333333" d="M281.5,142.8c-0.8-0.1-1.6,0.4-2.1,0.9c-0.6,0.6-0.9,1.5-0.9,2.4c-0.1,1.4,1.2,2.5,2.5,2.5
			c0.2,0,0.3,0,0.5-0.1c0.2,0,0.3,0.1,0.5,0.1c1.3,0,2.6-1.1,2.5-2.5C284.4,144.2,283.3,142.9,281.5,142.8z"/>
		<path fill="#333333" d="M322.8,228.2c-1-1-2.6-1-3.5,0c-0.3,0.3-0.7,0.7-1,1c-1,1-1,2.6,0,3.5c1,1,2.6,1,3.5,0
			c0.3-0.3,0.7-0.7,1-1C323.7,230.8,323.7,229.2,322.8,228.2z"/>
		<path fill="#333333" d="M359,143.5c-3.2,0-3.2,5,0,5S362.2,143.5,359,143.5z"/>
		<path fill="#333333" d="M415,159.5c-3.2,0-3.2,5,0,5S418.2,159.5,415,159.5z"/>
		<path fill="#333333" d="M401,210.5h-1c-1.4,0-2.5,1.1-2.5,2.5s1.1,2.5,2.5,2.5h1c1.4,0,2.5-1.1,2.5-2.5S402.4,210.5,401,210.5z"/>
		<path fill="#333333" d="M189,392.5c-3.2,0-3.2,5,0,5S192.2,392.5,189,392.5z"/>
		<path fill="#333333" d="M524.1,369.4c-0.9-0.8-2-0.9-3.1-0.9c-1.4,0-2.5,1.1-2.5,2.5c0,0.9,0.5,1.7,1.3,2.2
			c0.1,0.2,0.2,0.4,0.4,0.6c0.9,0.9,2.6,1,3.5,0c0.5-0.5,0.8-1,1-1.6C525.2,371.3,524.8,370,524.1,369.4z"/>
		<path fill="#333333" d="M476.2,421.5c-0.3-1.5-1.8-2-3.2-2c-1.4,0-2.5,1.1-2.5,2.5c0,0.2,0,0.3,0.1,0.5c-0.2,0.8,0.1,1.6,0.7,2.3
			c1,1,2.6,1,3.5,0C475.7,423.8,476.5,422.9,476.2,421.5z"/>
		<path fill="#333333" d="M376.8,405.2c-1-1-2.6-1-3.5,0c-0.3,0.3-0.7,0.7-1,1c-1,1-1,2.6,0,3.5s2.6,1,3.5,0c0.3-0.3,0.7-0.7,1-1
			C377.7,407.8,377.7,406.2,376.8,405.2z"/>
		<path fill="#333333" d="M319,357.5h-1c-1.4,0-2.5,1.1-2.5,2.5s1.1,2.5,2.5,2.5h1c1.4,0,2.5-1.1,2.5-2.5S320.4,357.5,319,357.5z"/>
		<path fill="#333333" d="M353,326.5h-1c-1.4,0-2.5,1.1-2.5,2.5s1.1,2.5,2.5,2.5h1c1.4,0,2.5-1.1,2.5-2.5S354.4,326.5,353,326.5z"/>
		<path fill="#333333" d="M607,317.5h-1c-1.4,0-2.5,1.1-2.5,2.5s1.1,2.5,2.5,2.5h1c1.4,0,2.5-1.1,2.5-2.5S608.4,317.5,607,317.5z"/>
		<path fill="#333333" d="M99,328.5c-3.2,0-3.2,5,0,5S102.2,328.5,99,328.5z"/>
	</g>
</g>
</svg>
